<svg width="737" height="549" viewBox="0 0 737 549" fill="none" xmlns="http://www.w3.org/2000/svg">
<path d="M736.023 481.948H0V482.316H736.023V481.948Z" fill="#EBEBEB"/>
<path d="M638.559 497.61H589.804V497.978H638.559V497.61Z" fill="#EBEBEB"/>
<path d="M460.853 497.434H448.061V497.802H460.853V497.434Z" fill="#EBEBEB"/>
<path d="M662.273 505.633H634.025V506.001H662.273V505.633Z" fill="#EBEBEB"/>
<path d="M168.696 510.52H105.119V510.888H168.696V510.52Z" fill="#EBEBEB"/>
<path d="M163.235 494.445H153.917V494.813H163.235V494.445Z" fill="#EBEBEB"/>
<path d="M365.73 496.02H276.082V496.388H365.73V496.02Z" fill="#EBEBEB"/>
<path d="M348.875 416.294H64.6377C62.411 416.291 60.2769 415.403 58.7037 413.827C57.1306 412.251 56.2471 410.116 56.2471 407.889V8.33178C56.2665 6.11786 57.1586 4.00099 58.7296 2.44097C60.3006 0.880958 62.4237 0.00379256 64.6377 0H348.875C351.104 0 353.242 0.885565 354.818 2.46188C356.395 4.03819 357.28 6.17613 357.28 8.40538V407.889C357.28 410.118 356.395 412.256 354.818 413.833C353.242 415.409 351.104 416.294 348.875 416.294V416.294ZM64.6377 0.29441C62.5086 0.29831 60.4681 1.14682 58.964 2.6537C57.4599 4.16057 56.6151 6.20268 56.6151 8.33178V407.889C56.6151 410.018 57.4599 412.06 58.964 413.567C60.4681 415.074 62.5086 415.923 64.6377 415.926H348.875C351.005 415.923 353.047 415.074 354.554 413.568C356.06 412.062 356.908 410.02 356.912 407.889V8.33178C356.908 6.20133 356.06 4.15925 354.554 2.6528C353.047 1.14634 351.005 0.298301 348.875 0.29441H64.6377Z" fill="#EBEBEB"/>
<path d="M667.293 416.294H383.041C380.813 416.291 378.677 415.404 377.102 413.828C375.526 412.253 374.64 410.117 374.636 407.889V8.33178C374.659 6.11652 375.554 3.99966 377.128 2.44005C378.701 0.880443 380.826 0.0037512 383.041 0H667.293C669.505 0.00766125 671.624 0.886538 673.192 2.44614C674.76 4.00574 675.65 6.1204 675.669 8.33178V407.889C675.669 410.113 674.788 412.247 673.218 413.822C671.648 415.398 669.517 416.287 667.293 416.294V416.294ZM383.041 0.29441C380.911 0.298301 378.869 1.14634 377.362 2.6528C375.856 4.15925 375.008 6.20133 375.004 8.33178V407.889C375.008 410.02 375.856 412.062 377.362 413.568C378.869 415.074 380.911 415.923 383.041 415.926H667.293C669.424 415.923 671.466 415.074 672.972 413.568C674.479 412.062 675.327 410.02 675.33 407.889V8.33178C675.327 6.20133 674.479 4.15925 672.972 2.6528C671.466 1.14634 669.424 0.298301 667.293 0.29441H383.041Z" fill="#EBEBEB"/>
<path d="M631.346 60.8396H104.677V280.012H631.346V60.8396Z" fill="#F0F0F0"/>
<path d="M621.041 269.723V71.1587L114.981 71.1587V269.723H621.041Z" fill="#FAFAFA"/>
<path d="M181.606 269.708L233.511 71.1439H271.784L219.88 269.708H181.606Z" fill="white"/>
<path d="M228.712 269.708L280.616 71.1439H297.736L245.832 269.708H228.712Z" fill="white"/>
<path d="M312.471 269.708L364.39 71.1439H402.663L350.744 269.708H312.471Z" fill="white"/>
<path d="M408.979 269.708L460.883 71.1439H478.017L426.098 269.708H408.979Z" fill="white"/>
<path d="M250.557 269.723V71.1587H247.936V269.723H250.557Z" fill="#E0E0E0"/>
<path d="M117.602 269.723L117.602 71.1587H114.981L114.981 269.723H117.602Z" fill="#E0E0E0"/>
<path d="M247.937 269.723V71.1587H237.632V269.723H247.937Z" fill="#F0F0F0"/>
<path d="M378.315 269.723V71.1587H375.695V269.723H378.315Z" fill="#E0E0E0"/>
<path d="M375.695 269.723V71.1587H365.391V269.723H375.695Z" fill="#F0F0F0"/>
<path d="M506.133 269.708V71.1439H503.513V269.708H506.133Z" fill="#E0E0E0"/>
<path d="M503.513 269.708V71.1439H493.209V269.708H503.513Z" fill="#F0F0F0"/>
<path d="M633.966 280.012V60.8396H631.346V280.012H633.966Z" fill="#E0E0E0"/>
<path d="M639.854 45.7953H96.1689C95.5649 45.7915 94.9868 45.5499 94.5598 45.1228C94.1327 44.6957 93.8911 44.1176 93.8872 43.5137V43.5137C93.8872 42.9072 94.1271 42.3253 94.5546 41.8951C94.9821 41.4648 95.5624 41.2212 96.1689 41.2173H639.854C640.461 41.2212 641.041 41.4648 641.468 41.8951C641.896 42.3253 642.136 42.9072 642.136 43.5137V43.5137C642.132 44.1176 641.89 44.6957 641.463 45.1228C641.036 45.5499 640.458 45.7915 639.854 45.7953V45.7953Z" fill="#E0E0E0"/>
<g opacity="0.6">
<path opacity="0.6" d="M209.531 36.8011H98.3032V436.712H209.531V36.8011Z" fill="#F5F5F5"/>
<path opacity="0.6" d="M158.569 439.98H149.25L151.871 40.0691H156.037L158.569 439.98Z" fill="#E6E6E6"/>
<path opacity="0.6" d="M127.7 439.98H123.195L124.461 40.0691H126.478L127.7 439.98Z" fill="#E6E6E6"/>
<path opacity="0.6" d="M189.526 439.98H185.021L186.287 40.0691H188.304L189.526 439.98Z" fill="#E6E6E6"/>
</g>
<g opacity="0.6">
<path opacity="0.6" d="M636.395 36.8011H525.167V436.712H636.395V36.8011Z" fill="#F5F5F5"/>
<path opacity="0.6" d="M568.754 439.98H559.436L562.056 40.0691H566.222L568.754 439.98Z" fill="#E6E6E6"/>
<path opacity="0.6" d="M548.19 439.98H543.7L544.951 40.0691H546.968L548.19 439.98Z" fill="#E6E6E6"/>
<path opacity="0.6" d="M595.781 439.98H591.291L592.557 40.0691H594.559L595.781 439.98Z" fill="#E6E6E6"/>
<path opacity="0.6" d="M618.686 439.98H614.196L615.448 40.0691H617.464L618.686 439.98Z" fill="#E6E6E6"/>
</g>
<path d="M478.724 479.445H499.627V359.65H478.724V479.445Z" fill="#E6E6E6"/>
<path d="M236.396 479.445L486.776 479.445V359.65H236.396L236.396 479.445Z" fill="#F0F0F0"/>
<path d="M481.153 479.445H473.616H247.201V481.948H473.616H481.153H488.822V479.445H481.153Z" fill="#E0E0E0"/>
<path opacity="0.5" d="M243.535 415.485L479.637 415.485V367.143H243.535V415.485Z" fill="#FAFAFA"/>
<path opacity="0.5" d="M243.535 471.629L479.637 471.629V423.287H243.535V471.629Z" fill="#FAFAFA"/>
<path d="M279.321 391.314C279.321 392.365 279.009 393.392 278.425 394.266C277.841 395.14 277.011 395.821 276.04 396.223C275.069 396.626 274.001 396.731 272.97 396.526C271.939 396.321 270.992 395.815 270.249 395.071C269.506 394.328 269 393.381 268.794 392.351C268.589 391.32 268.695 390.251 269.097 389.28C269.499 388.309 270.18 387.479 271.054 386.895C271.928 386.311 272.955 386 274.006 386C274.704 386 275.395 386.137 276.04 386.404C276.685 386.671 277.271 387.063 277.764 387.556C278.258 388.05 278.649 388.635 278.916 389.28C279.183 389.925 279.321 390.616 279.321 391.314V391.314Z" fill="#E0E0E0"/>
<path d="M454.465 391.314C454.465 392.365 454.153 393.392 453.569 394.266C452.985 395.14 452.155 395.821 451.184 396.223C450.213 396.626 449.145 396.731 448.114 396.526C447.083 396.321 446.136 395.815 445.393 395.071C444.65 394.328 444.144 393.381 443.939 392.351C443.733 391.32 443.839 390.251 444.241 389.28C444.643 388.309 445.324 387.479 446.198 386.895C447.072 386.311 448.099 386 449.15 386C449.848 386 450.539 386.137 451.184 386.404C451.829 386.671 452.415 387.063 452.908 387.556C453.402 388.05 453.793 388.635 454.06 389.28C454.327 389.925 454.465 390.616 454.465 391.314V391.314Z" fill="#E0E0E0"/>
<path d="M274.006 452.772C276.941 452.772 279.321 450.393 279.321 447.458C279.321 444.523 276.941 442.144 274.006 442.144C271.072 442.144 268.692 444.523 268.692 447.458C268.692 450.393 271.072 452.772 274.006 452.772Z" fill="#E0E0E0"/>
<path d="M454.465 447.502C454.465 448.553 454.153 449.58 453.569 450.454C452.985 451.328 452.155 452.009 451.184 452.411C450.213 452.814 449.145 452.919 448.114 452.714C447.083 452.509 446.136 452.003 445.393 451.259C444.65 450.516 444.144 449.569 443.939 448.539C443.733 447.508 443.839 446.439 444.241 445.468C444.643 444.497 445.324 443.667 446.198 443.083C447.072 442.499 448.099 442.188 449.15 442.188C450.56 442.188 451.912 442.748 452.908 443.744C453.905 444.741 454.465 446.092 454.465 447.502V447.502Z" fill="#E0E0E0"/>
<path d="M366.893 391.314C366.893 392.365 366.581 393.392 365.997 394.266C365.413 395.14 364.583 395.821 363.612 396.223C362.641 396.626 361.573 396.731 360.542 396.526C359.511 396.321 358.564 395.815 357.821 395.071C357.078 394.328 356.572 393.381 356.367 392.351C356.162 391.32 356.267 390.251 356.669 389.28C357.071 388.309 357.752 387.479 358.626 386.895C359.5 386.311 360.528 386 361.579 386C362.277 386 362.968 386.137 363.612 386.404C364.257 386.671 364.843 387.063 365.336 387.556C365.83 388.05 366.221 388.635 366.488 389.28C366.755 389.925 366.893 390.616 366.893 391.314V391.314Z" fill="#E0E0E0"/>
<path d="M361.579 452.772C364.514 452.772 366.893 450.393 366.893 447.458C366.893 444.523 364.514 442.144 361.579 442.144C358.644 442.144 356.265 444.523 356.265 447.458C356.265 450.393 358.644 452.772 361.579 452.772Z" fill="#E0E0E0"/>
<path d="M471.29 339.306C471.29 344.702 469.147 349.876 465.331 353.692C461.516 357.507 456.342 359.65 450.946 359.65C445.551 359.65 440.376 357.507 436.561 353.692C432.746 349.876 430.603 344.702 430.603 339.306H471.29Z" fill="#F0F0F0"/>
<path d="M310.44 335.626C310.44 341.986 307.913 348.085 303.416 352.582C298.919 357.08 292.82 359.606 286.46 359.606C280.1 359.606 274.001 357.08 269.504 352.582C265.007 348.085 262.48 341.986 262.48 335.626H310.44Z" fill="#F0F0F0"/>
<path d="M413.527 345.533C413.527 349.277 412.039 352.868 409.392 355.515C406.745 358.163 403.154 359.65 399.41 359.65C395.666 359.65 392.075 358.163 389.428 355.515C386.78 352.868 385.293 349.277 385.293 345.533H413.527Z" fill="#F0F0F0"/>
<path d="M368.012 548.425C525.642 548.425 653.427 540.965 653.427 531.762C653.427 522.559 525.642 515.098 368.012 515.098C210.381 515.098 82.5967 522.559 82.5967 531.762C82.5967 540.965 210.381 548.425 368.012 548.425Z" fill="#F5F5F5"/>
<path d="M512.493 88.8526C509.357 85.7171 503.322 73.8377 509.107 68.244C514.892 62.6502 520.044 67.7287 520.442 70.452C520.839 73.1753 519.779 96.1245 512.493 88.8526Z" fill="#263238"/>
<path d="M511.168 516.173L498.023 516.29L494.446 485.907L507.576 485.79L511.168 516.173Z" fill="#FF8B7B"/>
<path d="M498.008 514.774L512.346 514.642C512.61 514.646 512.867 514.733 513.078 514.892C513.29 515.051 513.446 515.272 513.523 515.525L516.997 527.169C517.09 527.44 517.115 527.729 517.072 528.012C517.029 528.295 516.918 528.564 516.749 528.795C516.58 529.026 516.358 529.213 516.101 529.34C515.845 529.467 515.561 529.53 515.275 529.524C510.108 529.524 502.601 529.244 496.138 529.303C488.543 529.303 485.157 529.833 476.236 529.922C470.849 529.922 468.876 524.534 471.158 524.033C481.271 521.693 486.496 521.384 494.961 515.834C495.852 515.192 496.911 514.823 498.008 514.774V514.774Z" fill="#263238"/>
<path opacity="0.2" d="M494.446 485.922L496.301 501.585L509.431 501.467L507.591 485.804L494.446 485.922Z" fill="black"/>
<path d="M492.576 517.115C493.993 517.089 495.404 516.917 496.786 516.6C496.851 516.59 496.912 516.559 496.957 516.51C497.002 516.462 497.03 516.4 497.036 516.335C497.042 516.271 497.028 516.207 496.997 516.152C496.965 516.097 496.917 516.052 496.859 516.025C496.241 515.716 490.721 513.081 489.205 514.009C489.065 514.098 488.95 514.223 488.873 514.37C488.795 514.517 488.758 514.682 488.763 514.848C488.76 515.131 488.822 515.411 488.944 515.667C489.067 515.922 489.247 516.145 489.47 516.32C490.39 516.917 491.481 517.196 492.576 517.115V517.115ZM495.726 516.173C492.885 516.673 490.721 516.57 489.838 515.864C489.685 515.744 489.563 515.589 489.484 515.412C489.404 515.235 489.369 515.042 489.382 514.848C489.373 514.788 489.382 514.726 489.408 514.671C489.435 514.616 489.476 514.57 489.529 514.539C490.353 514.038 493.474 515.216 495.726 516.173V516.173Z" fill="#407BFF"/>
<path d="M496.727 516.688C496.797 516.683 496.863 516.657 496.918 516.614C496.963 516.581 496.996 516.535 497.015 516.483C497.033 516.43 497.035 516.374 497.021 516.32C497.021 516.084 495.991 510.432 492.87 510.785C492.046 510.873 491.81 511.3 491.766 511.624C491.545 513.096 494.916 515.952 496.595 516.658L496.727 516.688ZM493.135 511.388C495.019 511.388 495.962 514.465 496.285 515.805C494.548 514.833 492.252 512.596 492.384 511.712C492.384 511.712 492.384 511.462 492.944 511.403L493.135 511.388Z" fill="#407BFF"/>
<path d="M501.879 155.198L500.525 156.67L499.259 157.921C498.42 158.745 497.552 159.526 496.683 160.291C494.956 161.842 493.189 163.314 491.384 164.707C487.74 167.603 483.904 170.249 479.902 172.627C477.885 173.819 475.809 174.953 473.704 176.027C471.599 177.102 469.377 178.029 467.139 178.971C462.551 180.802 457.771 182.11 452.89 182.872L451.8 183.034C451.093 183.125 450.38 183.169 449.666 183.167C448.027 183.151 446.404 182.832 444.882 182.224C443.372 181.618 441.989 180.734 440.804 179.619C439.861 178.719 439.039 177.7 438.361 176.587C437.421 174.971 436.712 173.232 436.256 171.42C435.899 170.016 435.638 168.59 435.475 167.151C435.207 164.663 435.134 162.158 435.255 159.658C435.358 157.273 435.549 154.977 435.814 152.725C436.373 148.205 437.168 143.892 438.14 139.476C439.111 135.06 440.215 130.983 441.643 126.714L451.315 128.627C450.961 136.9 450.564 145.379 450.829 153.387C450.877 157.106 451.271 160.811 452.006 164.457C452.152 165.13 452.354 165.79 452.61 166.429C452.816 166.93 453.066 167.239 453.052 167.107C452.966 166.882 452.83 166.681 452.654 166.518C452.254 166.13 451.784 165.821 451.27 165.605C450.741 165.383 450.179 165.248 449.607 165.208C449.342 165.208 449.224 165.208 449.062 165.208H449.224L449.533 165.119C453.021 164.224 456.412 162.991 459.661 161.439C463.06 159.799 466.35 157.94 469.509 155.875C472.703 153.755 475.854 151.459 478.886 149.03C480.358 147.823 481.904 146.557 483.302 145.276L485.451 143.333L486.482 142.376L487.38 141.522L501.879 155.198Z" fill="#FF8B7B"/>
<path d="M509.667 150.001C509.166 136.12 497.772 131.292 483.494 140.757C477.199 144.748 471.139 149.098 465.343 153.784L474.573 183.431C474.573 183.431 492.238 177.823 502.454 166.812C509.328 159.334 509.843 154.727 509.667 150.001Z" fill="#263238"/>
<path opacity="0.2" d="M492.282 155.919C492.282 155.919 483.758 168.108 480.741 181.062C484.931 179.275 488.968 177.148 492.812 174.702L492.282 155.919Z" fill="black"/>
<path d="M450.829 133.029L455.775 121.856L441.776 117.764C441.776 117.764 439.376 123.107 440.745 132.278L450.829 133.029Z" fill="#FF8B7B"/>
<path d="M457.262 108.755L445.088 110.212L441.776 117.764L455.775 121.856L457.262 108.755Z" fill="#FF8B7B"/>
<path d="M492.37 250.63C492.37 250.63 483.332 326.382 482.331 366.922C481.3 409.037 489.558 493.989 489.558 493.989L513.273 493.489C513.273 493.489 516.129 402.546 519.573 360.872C523.312 315.445 532.734 249.806 532.734 249.806L492.37 250.63Z" fill="#407BFF"/>
<path opacity="0.6" d="M492.37 250.63C492.37 250.63 483.332 326.382 482.331 366.922C481.3 409.037 489.558 493.989 489.558 493.989L513.273 493.489C513.273 493.489 516.129 402.546 519.573 360.872C523.312 315.445 532.734 249.806 532.734 249.806L492.37 250.63Z" fill="white"/>
<path opacity="0.2" d="M520.618 272.078C510.02 295.44 512.861 347.624 518.881 369.999C519.102 366.745 519.338 363.669 519.573 360.828C522.031 330.886 526.933 292.186 530.039 269.267C527.154 265.086 523.93 264.762 520.618 272.078Z" fill="black"/>
<path d="M516.187 494.504L488.307 495.064L486.246 485.804L515.849 485.731L516.187 494.504Z" fill="#407BFF"/>
<path d="M569.741 516.173L556.61 516.29L553.033 485.907L566.164 485.79L569.741 516.173Z" fill="#FF8B7B"/>
<path d="M556.581 514.774L570.933 514.642C571.197 514.648 571.452 514.736 571.663 514.895C571.875 515.053 572.031 515.273 572.111 515.525L575.585 527.169C575.674 527.44 575.697 527.728 575.652 528.01C575.607 528.291 575.496 528.558 575.328 528.788C575.16 529.019 574.939 529.205 574.684 529.333C574.429 529.461 574.148 529.527 573.862 529.524C568.681 529.524 561.188 529.244 554.726 529.303C547.13 529.303 543.73 529.833 534.824 529.922C529.436 529.922 527.464 524.534 529.745 524.033C539.843 521.693 545.069 521.384 553.548 515.834C554.434 515.192 555.488 514.823 556.581 514.774V514.774Z" fill="#263238"/>
<path opacity="0.2" d="M553.033 485.922L554.873 501.585L568.019 501.467L566.179 485.804L553.033 485.922Z" fill="black"/>
<path d="M551.164 517.115C552.581 517.088 553.992 516.915 555.374 516.6C555.437 516.589 555.496 516.558 555.539 516.509C555.582 516.461 555.606 516.399 555.609 516.335C555.619 516.273 555.608 516.209 555.579 516.153C555.55 516.098 555.504 516.053 555.447 516.025C554.814 515.716 549.294 513.081 547.793 514.009C547.65 514.096 547.534 514.22 547.456 514.368C547.379 514.515 547.342 514.681 547.351 514.848C547.348 515.129 547.409 515.408 547.528 515.663C547.648 515.918 547.824 516.142 548.043 516.32C548.97 516.915 550.065 517.194 551.164 517.115ZM554.314 516.173C551.473 516.673 549.309 516.57 548.425 515.864C548.273 515.742 548.152 515.588 548.07 515.411C547.988 515.235 547.949 515.042 547.954 514.848C547.946 514.788 547.955 514.726 547.981 514.671C548.008 514.616 548.049 514.57 548.102 514.539C548.926 514.038 552.017 515.216 554.314 516.173V516.173Z" fill="#407BFF"/>
<path d="M555.3 516.688C555.345 516.686 555.39 516.675 555.43 516.655C555.471 516.635 555.507 516.607 555.536 516.572C555.565 516.538 555.587 516.497 555.599 516.454C555.612 516.41 555.615 516.365 555.609 516.32C555.609 516.084 554.579 510.432 551.458 510.785C550.634 510.873 550.398 511.3 550.339 511.624C550.133 513.096 553.504 515.952 555.182 516.658L555.3 516.688ZM551.723 511.388C553.592 511.388 554.549 514.465 554.873 515.805C553.136 514.833 550.825 512.596 550.957 511.712C550.957 511.712 550.957 511.462 551.517 511.403L551.723 511.388Z" fill="#407BFF"/>
<path d="M515.511 250.13C515.511 250.13 522.061 331.637 526.845 371.853C531.806 413.689 548.146 493.945 548.146 493.945L571.861 493.444C571.861 493.444 565.354 402.325 562.837 360.577C560.084 315.018 559.378 249.129 559.378 249.129L515.511 250.13Z" fill="#407BFF"/>
<path opacity="0.6" d="M515.511 250.13C515.511 250.13 522.061 331.637 526.845 371.853C531.806 413.689 548.146 493.945 548.146 493.945L571.861 493.444C571.861 493.444 565.354 402.325 562.837 360.577C560.084 315.018 559.378 249.129 559.378 249.129L515.511 250.13Z" fill="white"/>
<path d="M574.775 494.504L546.88 495.064L544.833 485.804L574.436 485.731L574.775 494.504Z" fill="#407BFF"/>
<path d="M490.736 137.121C490.736 137.121 481.035 173.127 492.37 250.63C513.538 250.174 549.088 249.35 559.377 249.158C559.642 238.368 551.679 185.463 560.997 134.457C554.293 133.299 547.513 132.64 540.712 132.484C530.757 132.121 520.789 132.337 510.859 133.132C504.058 133.936 497.33 135.27 490.736 137.121V137.121Z" fill="#263238"/>
<path opacity="0.2" d="M556.934 170.757L545.967 161.675C546.689 168.77 553.107 186.155 556.492 194.958C556.434 187.244 556.507 179.104 556.934 170.757Z" fill="black"/>
<path d="M517.704 157.995L505.736 181.68C505.483 182.177 505.395 182.742 505.484 183.293C505.572 183.843 505.834 184.352 506.23 184.745C506.626 185.138 507.136 185.394 507.688 185.479C508.239 185.563 508.803 185.47 509.299 185.213L517.115 180.914C517.54 180.686 518.021 180.581 518.502 180.612C518.984 180.644 519.447 180.809 519.838 181.091L527.537 186.641C527.979 186.962 528.513 187.133 529.06 187.128C529.607 187.122 530.137 186.941 530.573 186.611C531.009 186.281 531.327 185.819 531.48 185.294C531.633 184.769 531.613 184.209 531.423 183.696L522.429 158.407C522.273 157.926 521.979 157.501 521.583 157.186C521.187 156.872 520.707 156.68 520.203 156.636C519.699 156.592 519.193 156.698 518.749 156.939C518.305 157.181 517.941 157.548 517.704 157.995Z" fill="white"/>
<path d="M537.032 98.8625C535.354 108.519 533.852 126.154 540.712 132.41C540.712 132.41 538.71 141.154 520.442 144.187C508.165 140.242 510.859 133.117 510.859 133.117C521.517 130.32 521.06 122.386 519.044 114.967L537.032 98.8625Z" fill="#FF8B7B"/>
<path opacity="0.2" d="M529.701 105.413L519.043 114.893C519.54 116.621 519.884 118.39 520.074 120.178C524.166 119.501 529.686 114.878 530.025 110.595C530.234 108.862 530.124 107.106 529.701 105.413V105.413Z" fill="black"/>
<path d="M542.876 86.9832C539.328 99.525 537.9 107.047 530.069 112.185C518.293 119.898 503.852 110.713 503.572 97.3317C503.307 85.3198 509.136 66.8161 522.709 64.4609C525.69 63.932 528.757 64.1731 531.619 65.1613C534.48 66.1495 537.043 67.852 539.062 70.1076C541.082 72.3632 542.492 75.0971 543.16 78.0504C543.827 81.0036 543.729 84.0783 542.876 86.9832V86.9832Z" fill="#FF8B7B"/>
<path d="M535.324 94.6672C533.675 90.6633 532.483 77.4737 539.357 74.2352C546.232 70.9967 553.371 78.9016 551.561 82.6406C548.779 88.4405 539.151 103.941 535.324 94.6672Z" fill="#263238"/>
<path d="M539.431 78.8869C537.738 74.4708 517.556 71.9683 514.73 67.2136C511.374 61.5609 525.137 60.8838 534.603 63.7543C542.92 66.2862 548.469 68.7298 547.498 74.9124C546.953 78.4159 539.431 78.8869 539.431 78.8869Z" fill="#263238"/>
<path d="M543.818 74.3383C543.818 74.3383 548.234 75.5454 550.648 72.3069C549.883 75.5159 546.129 78.7544 543.818 74.3383Z" fill="#263238"/>
<path d="M523.607 60.7218C517.542 56.0113 509.284 61.5462 510.064 67.6846C510.844 73.8231 531.291 78.4894 531.291 78.4894C531.291 78.4894 531.659 66.978 523.607 60.7218Z" fill="#263238"/>
<path d="M510.079 67.7141C511.006 72.0124 514.141 75.3834 520.486 77.8859C516.814 75.1706 514.032 71.4251 512.493 67.1252L510.079 67.7141Z" fill="#263238"/>
<path d="M522.812 86.3502C522.591 87.3953 521.87 88.1166 521.193 87.9694C520.515 87.8222 520.147 86.8507 520.368 85.8203C520.589 84.7898 521.325 84.0685 522.002 84.2157C522.679 84.3629 523.047 85.3786 522.812 86.3502Z" fill="#263238"/>
<path d="M511.124 83.8182C510.888 84.8486 510.167 85.5699 509.49 85.4227C508.813 85.2755 508.445 84.3187 508.666 83.2883C508.886 82.2578 509.622 81.5365 510.3 81.669C510.977 81.8015 511.345 82.7878 511.124 83.8182Z" fill="#263238"/>
<path d="M514.73 85.1431C512.809 88.0388 510.495 90.6545 507.856 92.9155C509.328 95.0205 512.611 94.9175 512.611 94.9175L514.73 85.1431Z" fill="#FF5652"/>
<path d="M514.995 98.4357C516.378 98.779 517.823 98.7829 519.207 98.4472C520.591 98.1114 521.873 97.4459 522.944 96.5073C522.974 96.4785 522.997 96.4442 523.013 96.4063C523.029 96.3684 523.037 96.3276 523.037 96.2865C523.037 96.2454 523.029 96.2047 523.013 96.1668C522.997 96.1288 522.974 96.0945 522.944 96.0657C522.885 96.0098 522.806 95.9788 522.724 95.9788C522.642 95.9788 522.563 96.0098 522.503 96.0657C521.498 96.9116 520.309 97.5106 519.031 97.8148C517.753 98.119 516.421 98.1199 515.143 97.8174C515.061 97.7999 514.975 97.8156 514.905 97.8611C514.834 97.9067 514.785 97.9783 514.767 98.0603C514.75 98.1423 514.765 98.2279 514.811 98.2983C514.857 98.3687 514.928 98.4181 515.01 98.4357H514.995Z" fill="#263238"/>
<path d="M527.155 83.3471C527.268 83.3697 527.385 83.3611 527.493 83.3221C527.601 83.2831 527.697 83.2153 527.77 83.1259C527.842 83.0365 527.889 82.929 527.905 82.815C527.922 82.7009 527.906 82.5846 527.861 82.4786C527.464 81.572 526.856 80.7732 526.088 80.1486C525.32 79.5239 524.414 79.0914 523.445 78.8868C523.281 78.8657 523.116 78.9092 522.984 79.0082C522.852 79.1072 522.764 79.2538 522.738 79.4168C522.726 79.497 522.729 79.5789 522.748 79.6578C522.767 79.7368 522.802 79.8112 522.85 79.8768C522.898 79.9424 522.958 79.9979 523.027 80.0403C523.096 80.0826 523.173 80.1108 523.254 80.1233V80.1233C524.017 80.2912 524.73 80.6393 525.332 81.1387C525.934 81.6381 526.407 82.2741 526.713 82.9938C526.754 83.0829 526.815 83.1612 526.892 83.2225C526.969 83.2839 527.059 83.3265 527.155 83.3471V83.3471Z" fill="#263238"/>
<path d="M506.855 78.6808C506.97 78.7127 507.093 78.7087 507.206 78.6692C507.319 78.6298 507.417 78.5568 507.488 78.46C507.954 77.8347 508.561 77.3277 509.259 76.9799C509.957 76.6321 510.727 76.4534 511.507 76.458C511.671 76.4736 511.834 76.4234 511.961 76.3185C512.088 76.2136 512.168 76.0626 512.184 75.8986C512.199 75.7346 512.149 75.5712 512.044 75.4442C511.939 75.3172 511.788 75.2371 511.624 75.2215C510.637 75.1921 509.657 75.4017 508.767 75.8322C507.878 76.2628 507.106 76.9016 506.516 77.6945C506.464 77.7575 506.425 77.8304 506.402 77.9088C506.379 77.9873 506.372 78.0696 506.382 78.1508C506.391 78.2321 506.417 78.3105 506.458 78.3813C506.499 78.4522 506.554 78.514 506.619 78.563C506.686 78.622 506.768 78.6626 506.855 78.6808V78.6808Z" fill="#263238"/>
<path d="M564.206 144.496C566.885 149.177 569.122 153.711 571.448 158.377C573.774 163.044 575.864 167.74 577.851 172.538C579.839 177.337 581.767 182.21 583.445 187.259C585.19 192.294 586.664 197.419 587.861 202.612L588.759 206.631C589.152 208.518 589.32 210.445 589.26 212.372C589.135 215.952 588.341 219.477 586.919 222.765C584.42 228.305 580.865 233.305 576.453 237.485C572.518 241.285 568.229 244.7 563.646 247.686C561.423 249.158 559.127 250.513 556.816 251.808C554.505 253.103 552.208 254.296 549.632 255.429L544.745 246.877C546.526 245.405 548.484 243.933 550.309 242.343C552.135 240.753 553.916 239.134 555.682 237.515C559.093 234.35 562.258 230.93 565.148 227.284C567.718 224.157 569.711 220.598 571.036 216.773C571.491 215.348 571.671 213.85 571.566 212.357C571.523 211.757 571.409 211.164 571.227 210.591L570.226 207.293C567.252 198.147 563.712 189.195 559.628 180.487C557.611 176.071 555.462 171.655 553.312 167.239C551.163 162.823 548.896 158.407 546.703 154.211L564.206 144.496Z" fill="#FF8B7B"/>
<path d="M561.497 134.53C573.774 137.18 582.312 169.212 582.312 169.212L560.364 189.128C553.386 181.365 547.897 172.383 544.171 162.631C538.357 146.601 548.367 131.674 561.497 134.53Z" fill="#263238"/>
<path d="M547.41 245.36L533.293 245.508L542.125 259.742C542.125 259.742 552.179 257.255 553.077 252.205L547.41 245.36Z" fill="#FF8B7B"/>
<path d="M524.505 253.913L532.292 265.336L542.052 259.742L533.293 245.508L524.505 253.913Z" fill="#FF8B7B"/>
<path d="M546.732 98.4651C545.164 101.351 542.518 103.499 539.372 104.442C535.192 105.663 533.057 101.939 534.176 97.9793C535.192 94.4169 538.592 89.4856 542.773 90.0008C546.953 90.516 548.602 94.9174 546.732 98.4651Z" fill="#FF8B7B"/>
<path d="M421.613 342.025L405.918 343.163L406.025 344.632L421.72 343.493L421.613 342.025Z" fill="#407BFF"/>
<path d="M435.716 341.007L428.008 341.567L428.115 343.035L435.823 342.476L435.716 341.007Z" fill="#407BFF"/>
<path d="M503.439 168.211L243.535 186.95C238.126 187.372 233.101 189.91 229.551 194.014C226.002 198.117 224.214 203.455 224.575 208.869L233.407 331.372C233.826 336.79 236.366 341.823 240.477 345.376C244.587 348.93 249.935 350.716 255.356 350.347L270.076 349.287C271.145 349.21 272.202 349.56 273.013 350.261C273.825 350.962 274.325 351.957 274.404 353.026L276.053 375.725C276.079 376.164 276.237 376.586 276.505 376.935C276.774 377.284 277.14 377.545 277.558 377.685C277.976 377.824 278.426 377.835 278.85 377.717C279.274 377.598 279.653 377.356 279.939 377.02L304.581 348.536C305.617 347.343 307.082 346.608 308.658 346.49L515.216 331.608C520.628 331.189 525.656 328.653 529.209 324.549C532.761 320.445 534.552 315.105 534.19 309.689L525.358 187.185C524.94 181.773 522.403 176.745 518.299 173.192C514.195 169.64 508.855 167.849 503.439 168.211V168.211Z" fill="#407BFF"/>
<path d="M281.499 243.182L295.542 242.166L296.691 258.064L312.029 256.96L310.881 241.062L324.983 240.032L328.266 285.459L314.164 286.475L312.839 268.104L297.5 269.222L298.825 287.594L284.796 288.609L281.499 243.182Z" fill="white"/>
<path opacity="0.2" d="M243.535 186.95C238.126 187.372 233.101 189.91 229.551 194.013C226.002 198.117 224.214 203.455 224.575 208.868L233.407 331.372C233.826 336.789 236.366 341.823 240.477 345.376C244.587 348.93 249.935 350.716 255.356 350.347L257.519 350.185C261.115 349.925 264.524 348.486 267.218 346.09C269.911 343.695 271.739 340.477 272.417 336.936L302.019 182.725L243.535 186.95Z" fill="black"/>
<path d="M372.324 268.884L347.034 270.709C347.228 272.347 347.916 273.888 349.007 275.125C349.632 275.783 350.402 276.288 351.255 276.6C352.108 276.911 353.021 277.021 353.924 276.921C355.163 276.833 356.36 276.427 357.398 275.744C358.21 275.128 358.903 274.37 359.444 273.506L371.956 273.756C370.595 276.841 368.384 279.476 365.582 281.352C363.011 282.981 359.213 283.962 354.189 284.296C350.676 284.705 347.116 284.328 343.766 283.192C341.081 282.065 338.777 280.19 337.128 277.79C335.236 275.058 334.15 271.85 333.992 268.531C333.729 266.226 333.953 263.891 334.647 261.678C335.342 259.464 336.493 257.421 338.025 255.68C341.087 252.264 345.503 250.346 351.274 249.924C355.094 249.47 358.967 249.924 362.579 251.249C365.345 252.43 367.675 254.441 369.248 257.004C371.048 260.188 372.058 263.757 372.192 267.412L372.324 268.884ZM359.076 263.761C358.897 261.847 358.071 260.05 356.735 258.668C356.062 258.15 355.29 257.776 354.467 257.569C353.643 257.362 352.786 257.326 351.948 257.464C351.11 257.602 350.31 257.911 349.596 258.371C348.882 258.831 348.271 259.433 347.8 260.14C347.014 261.525 346.617 263.096 346.652 264.688L359.076 263.761Z" fill="white"/>
<path d="M376.225 236.337L388.87 235.424L392.153 280.837L379.508 281.749L376.225 236.337Z" fill="white"/>
<path d="M397.349 234.806L409.994 233.893L413.277 279.306L400.647 280.219L397.349 234.806Z" fill="white"/>
<path d="M418.606 262.48C418.367 260.176 418.615 257.848 419.336 255.647C420.056 253.445 421.232 251.42 422.786 249.703C425.936 246.2 430.397 244.237 436.167 243.815C442.742 243.344 447.855 244.894 451.506 248.467C454.538 251.664 456.29 255.865 456.428 260.269C456.567 264.674 455.082 268.976 452.257 272.358C449.136 275.832 444.612 277.795 438.684 278.246C434.08 278.798 429.428 277.703 425.554 275.155C423.493 273.725 421.793 271.835 420.587 269.636C419.381 267.436 418.703 264.987 418.606 262.48V262.48ZM431.25 261.538C431.227 263.862 432.025 266.119 433.503 267.912C434.099 268.523 434.821 268.996 435.618 269.3C436.416 269.604 437.269 269.731 438.121 269.672C438.972 269.613 439.8 269.37 440.548 268.959C441.296 268.549 441.946 267.981 442.453 267.294C443.642 265.245 444.09 262.848 443.719 260.508C443.733 258.231 442.946 256.022 441.496 254.266C440.929 253.644 440.226 253.162 439.443 252.855C438.659 252.549 437.815 252.427 436.977 252.5C436.102 252.541 435.249 252.782 434.483 253.206C433.717 253.63 433.06 254.224 432.561 254.944C431.375 256.924 430.931 259.261 431.309 261.538H431.25Z" fill="white"/>
<path d="M460.412 230.243L473.881 229.271L474.632 239.575L473.528 260.552L465.196 261.156L461.148 240.547L460.412 230.243ZM463.356 264.512L475.927 263.599L476.737 274.728L464.151 275.626L463.356 264.512Z" fill="white"/>
<path d="M239.943 146.616C239.877 148.771 239.991 150.927 240.282 153.063C226.943 157.518 212.718 158.645 198.844 156.346C199.51 153.828 199.914 151.248 200.051 148.647C199.587 151.266 198.676 153.786 197.357 156.096C194.737 155.595 193.265 155.168 193.265 155.168C193.265 155.168 195.944 140.683 191.116 130.144C186.287 119.604 188.701 113.715 192.352 112.052C199.123 91.2373 224.575 94.52 233.187 102.97C244.109 113.686 244.168 143.878 246.111 150.782C244.507 151.473 242.932 152.106 241.356 152.666C240.568 150.737 240.091 148.695 239.943 146.616V146.616Z" fill="#263238"/>
<path d="M250.469 179.015L251.793 183.211C252.279 184.683 252.765 186.155 253.265 187.553C254.252 190.497 255.282 193.441 256.386 196.268C257.49 199.094 258.55 202.068 259.698 204.953L261.406 209.369L261.833 210.458L261.936 210.709C261.754 210.549 261.544 210.425 261.318 210.341C260.994 210.223 260.861 210.341 261.067 210.341C261.422 210.339 261.774 210.284 262.112 210.179C263.264 209.814 264.37 209.32 265.41 208.707C267.92 207.244 270.321 205.601 272.593 203.79C274.978 201.935 277.319 199.948 279.615 197.902C281.911 195.856 284.223 193.721 286.445 191.631L290.965 195.458C289.08 198.167 287.093 200.64 285.076 203.157C283.06 205.674 280.793 208.029 278.467 210.37C276.073 212.813 273.467 215.04 270.68 217.024C269.085 218.141 267.372 219.079 265.572 219.82C264.429 220.279 263.232 220.586 262.009 220.733C260.35 220.94 258.666 220.711 257.122 220.071C255.439 219.354 254.005 218.155 253 216.626C252.78 216.288 252.574 215.949 252.412 215.64L252.014 214.845L251.484 213.77C250.792 212.298 250.012 210.826 249.409 209.443C248.069 206.498 246.73 203.554 245.508 200.61C244.286 197.666 243.094 194.634 241.96 191.601C241.43 190.129 240.9 188.525 240.4 186.979C239.899 185.434 239.414 183.917 238.928 182.107L250.469 179.015Z" fill="#FFC3BD"/>
<path d="M246.98 165.944C252.058 167.239 255.606 188.113 255.606 188.113L241.621 197.622C241.621 197.622 228.226 176.557 232.127 170.978C236.19 165.178 239.575 164.059 246.98 165.944Z" fill="#407BFF"/>
<path d="M246.98 165.944C252.058 167.239 255.606 188.113 255.606 188.113L241.621 197.622C241.621 197.622 228.226 176.557 232.127 170.978C236.19 165.178 239.575 164.059 246.98 165.944Z" fill="#407BFF"/>
<path opacity="0.4" d="M246.98 165.944C252.058 167.239 255.606 188.113 255.606 188.113L241.621 197.622C241.621 197.622 228.226 176.557 232.127 170.978C236.19 165.178 239.575 164.059 246.98 165.944Z" fill="white"/>
<path opacity="0.3" d="M246.523 170.61L250.424 191.646L242.563 196.974L246.523 170.61Z" fill="black"/>
<path d="M286.21 192.131L290.876 180.885L296.632 192.131C296.632 192.131 292.893 197.725 287.962 196.356L286.21 192.131Z" fill="#FFC3BD"/>
<path d="M296.013 179.722L303.403 182.695L296.632 192.131L290.861 180.885L296.013 179.722Z" fill="#FFC3BD"/>
<path d="M219.526 517.35H231.847L232.671 488.837H220.35L219.526 517.35Z" fill="#FFC3BD"/>
<path d="M136.915 480.623L148.235 485.451L163.059 460.78L151.724 455.951L136.915 480.623Z" fill="#FFC3BD"/>
<path d="M150.414 483.773L138.637 476.53C138.436 476.401 138.194 476.35 137.957 476.388C137.721 476.426 137.507 476.55 137.357 476.737L130.276 485.23C130.1 485.453 129.973 485.71 129.905 485.985C129.836 486.26 129.828 486.547 129.879 486.826C129.931 487.105 130.042 487.37 130.204 487.602C130.366 487.835 130.577 488.03 130.821 488.174C134.972 490.633 137.092 491.604 142.273 494.784C145.467 496.756 149.913 499.936 154.314 502.645C158.716 505.353 161.675 501.172 160.041 499.627C152.901 492.811 153.107 489.573 151.768 485.539C151.545 484.806 151.064 484.178 150.414 483.773V483.773Z" fill="#263238"/>
<path d="M232.259 515.922H218.437C218.199 515.92 217.968 516.003 217.787 516.157C217.605 516.312 217.486 516.526 217.451 516.761L215.876 527.713C215.837 527.994 215.86 528.28 215.943 528.551C216.026 528.823 216.167 529.073 216.356 529.284C216.545 529.495 216.777 529.663 217.038 529.776C217.298 529.888 217.579 529.943 217.863 529.936C222.691 529.863 225.017 529.568 231.111 529.568C234.85 529.568 242.593 529.966 247.76 529.966C252.927 529.966 253.192 524.858 251.043 524.387C241.401 522.311 237.603 519.455 234.35 516.732C233.774 516.219 233.031 515.931 232.259 515.922V515.922Z" fill="#263238"/>
<path opacity="0.2" d="M232.657 488.851L232.244 503.542H219.923L220.35 488.851H232.657Z" fill="black"/>
<path opacity="0.2" d="M151.724 455.966L163.044 460.78L155.404 473.498L144.084 468.67L151.724 455.966Z" fill="black"/>
<path d="M246.98 165.944C246.98 165.944 252.868 168.005 241.092 240.238H191.042C191.881 219.894 191.911 207.352 182.21 165.59C189.208 164.144 196.303 163.209 203.437 162.793C210.998 162.248 218.589 162.248 226.151 162.793C235.925 163.677 246.98 165.944 246.98 165.944Z" fill="#407BFF"/>
<path opacity="0.4" d="M246.98 165.944C246.98 165.944 252.868 168.005 241.092 240.238H191.042C191.881 219.894 191.911 207.352 182.21 165.59C189.208 164.144 196.303 163.209 203.437 162.793C210.998 162.248 218.589 162.248 226.151 162.793C235.925 163.677 246.98 165.944 246.98 165.944Z" fill="white"/>
<path d="M203.466 162.779C211.028 162.248 218.618 162.248 226.18 162.779C227.402 162.897 228.653 163.029 229.889 163.176C230.404 163.95 230.734 164.831 230.854 165.753C230.974 166.674 230.881 167.611 230.581 168.49C228.977 172.45 223.221 172.906 219.04 172.906C203.569 172.906 200.949 163.868 200.846 163.485L200.699 162.941L203.466 162.779Z" fill="white"/>
<path d="M205.719 137.224C207.191 144.584 208.589 157.921 203.466 162.793C203.466 162.793 205.468 170.154 219.041 170.154C233.967 170.154 226.18 162.793 226.18 162.793C218.025 160.85 218.246 154.8 219.659 149.133L205.719 137.224Z" fill="#FFC3BD"/>
<path d="M207.205 132.028C205.454 137.813 207.882 151.503 211.489 156.802C204.379 152.725 201.979 140.301 201.979 140.301L207.205 132.028Z" fill="#263238"/>
<path opacity="0.2" d="M211.4 142.082L219.659 149.118C219.296 150.437 219.06 151.788 218.952 153.152C215.846 152.695 211.592 149.28 211.238 146.027C211.056 144.713 211.11 143.376 211.4 142.082V142.082Z" fill="black"/>
<path d="M198.976 124.182C201.832 136.061 202.774 141.154 209.928 146.262C220.689 153.932 234.658 147.837 235.409 135.34C236.086 124.093 231.317 106.561 218.731 103.853C215.958 103.24 213.074 103.347 210.354 104.162C207.634 104.978 205.167 106.475 203.188 108.511C201.209 110.548 199.783 113.057 199.046 115.799C198.309 118.542 198.285 121.427 198.976 124.182V124.182Z" fill="#FFC3BD"/>
<path d="M241.106 240.238C241.106 240.238 250.807 335.067 249.938 372.604C249.099 411.643 234.791 500.672 234.791 500.672H218.157C218.157 500.672 220.792 413.895 219.32 375.548C217.715 333.742 204.438 240.208 204.438 240.208L241.106 240.238Z" fill="#407BFF"/>
<path opacity="0.4" d="M241.106 240.238C241.106 240.238 250.807 335.067 249.938 372.604C249.099 411.643 234.791 500.672 234.791 500.672H218.157C218.157 500.672 220.792 413.895 219.32 375.548C217.715 333.742 204.438 240.208 204.438 240.208L241.106 240.238Z" fill="black"/>
<path d="M216.774 501.29H236.293L237.735 495.064L215.861 494.298L216.774 501.29Z" fill="#407BFF"/>
<path opacity="0.2" d="M219.541 263.835C231.817 288.536 221.999 333.595 217.656 350.361C215.434 325.189 211.68 294.424 208.75 271.798C210.605 259.08 213.873 252.441 219.541 263.835Z" fill="black"/>
<path d="M227.902 240.238C227.902 240.238 216.567 338.865 208.015 370.47C197.872 408.051 159.261 472.041 159.261 472.041L143.819 465.475C143.819 465.475 167.71 392.815 175.483 373.016C192.043 330.769 177.867 267.809 191.101 240.238H227.902Z" fill="#407BFF"/>
<path opacity="0.4" d="M227.902 240.238C227.902 240.238 216.567 338.865 208.015 370.47C197.872 408.051 159.261 472.041 159.261 472.041L143.819 465.475C143.819 465.475 167.71 392.815 175.483 373.016C192.043 330.769 177.867 267.809 191.101 240.238H227.902Z" fill="black"/>
<path d="M141.684 465.52L160.85 473.675L165.458 468.523L143.347 457.909L141.684 465.52Z" fill="#407BFF"/>
<path d="M217.863 124.344C218.039 125.315 218.687 126.022 219.335 125.904C219.982 125.786 220.35 124.903 220.174 123.932C219.997 122.96 219.349 122.253 218.702 122.356C218.054 122.459 217.612 123.357 217.863 124.344Z" fill="#263238"/>
<path d="M228.844 122.401C229.006 123.372 229.669 124.079 230.316 123.961C230.964 123.843 231.347 122.96 231.17 121.988C230.994 121.017 230.346 120.31 229.698 120.413C229.05 120.516 228.668 121.414 228.844 122.401Z" fill="#263238"/>
<path d="M229.418 120.531L231.641 119.427C231.641 119.427 230.758 121.473 229.418 120.531Z" fill="#263238"/>
<path d="M226.209 124.594C227.473 126.671 229.018 128.564 230.802 130.217C230.365 130.659 229.837 131.002 229.255 131.22C228.673 131.439 228.051 131.528 227.431 131.483L226.209 124.594Z" fill="#ED847E"/>
<path d="M223 136.091C223.558 136.089 224.115 136.04 224.664 135.943C224.706 135.942 224.747 135.931 224.784 135.912C224.822 135.893 224.855 135.866 224.881 135.833C224.908 135.801 224.927 135.763 224.937 135.722C224.948 135.681 224.949 135.639 224.942 135.597C224.934 135.556 224.918 135.516 224.894 135.482C224.87 135.447 224.839 135.418 224.803 135.396C224.767 135.375 224.727 135.361 224.685 135.357C224.643 135.352 224.601 135.356 224.561 135.369C223.348 135.611 222.096 135.562 220.907 135.227C219.717 134.892 218.623 134.28 217.716 133.441C217.661 133.387 217.587 133.357 217.51 133.357C217.433 133.357 217.359 133.387 217.303 133.441C217.275 133.467 217.252 133.499 217.237 133.534C217.221 133.57 217.213 133.608 217.213 133.647C217.213 133.686 217.221 133.724 217.237 133.759C217.252 133.795 217.275 133.827 217.303 133.853C218.84 135.31 220.883 136.113 223 136.091Z" fill="#263238"/>
<path d="M203.142 117.219C203.464 120.349 203.956 123.46 204.614 126.537C204.614 126.537 211.975 117.219 213.196 112.229C212.904 114.193 212.334 116.107 211.504 117.911C211.504 117.911 221.41 115.747 222.382 109.211C222.365 112.137 222.04 115.053 221.41 117.911C221.41 117.911 230.861 114.201 229.992 107.93C229.124 101.659 214.61 99.2305 207.912 101.35C201.214 103.47 194.663 110.344 196.636 119.795C198.608 129.246 202.392 132.793 202.392 132.793C202.392 132.793 199.668 123.269 203.142 117.219Z" fill="#263238"/>
<path d="M198.461 133.132C199.37 135.312 201.106 137.043 203.29 137.945C206.234 139.123 207.985 136.606 207.47 133.691C207.014 131.056 204.938 127.288 201.891 127.347C201.224 127.376 200.575 127.571 200.003 127.914C199.431 128.258 198.953 128.738 198.612 129.312C198.272 129.886 198.08 130.536 198.053 131.203C198.027 131.87 198.167 132.533 198.461 133.132V133.132Z" fill="#FFC3BD"/>
<path d="M204.923 112.685C203.451 118.573 206.513 132.116 210.37 137.224C203.01 133.5 200.065 121.193 200.065 121.193L204.923 112.685Z" fill="#263238"/>
<path d="M213.829 120.987C213.905 120.965 213.975 120.927 214.036 120.876C214.097 120.826 214.146 120.763 214.183 120.693C214.493 120.029 214.956 119.448 215.534 118.998C216.113 118.547 216.79 118.24 217.509 118.102C217.662 118.08 217.8 118.001 217.895 117.881C217.991 117.76 218.037 117.608 218.025 117.454C218.017 117.378 217.995 117.303 217.958 117.235C217.921 117.167 217.871 117.107 217.81 117.059C217.75 117.011 217.68 116.976 217.606 116.955C217.531 116.934 217.453 116.929 217.377 116.939C216.464 117.098 215.602 117.473 214.864 118.034C214.126 118.595 213.534 119.325 213.137 120.163C213.087 120.265 213.068 120.38 213.082 120.493C213.096 120.606 213.142 120.713 213.215 120.8C213.289 120.887 213.386 120.951 213.495 120.985C213.604 121.018 213.72 121.019 213.829 120.987V120.987Z" fill="#263238"/>
<path d="M232.863 116.424C232.937 116.427 233.011 116.414 233.079 116.386C233.148 116.358 233.21 116.316 233.26 116.262C233.368 116.152 233.429 116.004 233.429 115.85C233.429 115.696 233.368 115.548 233.26 115.438C232.633 114.758 231.854 114.236 230.987 113.914C230.12 113.592 229.189 113.478 228.27 113.583C228.194 113.597 228.121 113.626 228.055 113.669C227.99 113.711 227.934 113.766 227.89 113.831C227.846 113.895 227.816 113.967 227.8 114.044C227.784 114.12 227.784 114.198 227.799 114.275C227.831 114.424 227.919 114.554 228.046 114.639C228.172 114.725 228.326 114.757 228.476 114.731C229.201 114.65 229.934 114.741 230.617 114.997C231.3 115.253 231.913 115.666 232.407 116.203C232.461 116.272 232.531 116.327 232.61 116.365C232.689 116.403 232.775 116.424 232.863 116.424V116.424Z" fill="#263238"/>
<path d="M188.319 183.064C186.273 189.526 184.315 196.312 182.651 202.995C180.977 209.592 179.752 216.296 178.986 223.059L178.868 224.296C178.868 224.693 178.868 224.781 178.868 225.135C178.884 225.829 178.938 226.522 179.03 227.21C179.218 228.823 179.488 230.424 179.84 232.009C180.532 235.292 181.312 238.677 182.313 242.034C183.314 245.39 184.168 248.805 185.168 252.191L188.113 262.348L182.651 264.6C179.295 258.182 176.38 251.646 173.657 244.904C172.347 241.518 171.066 238.103 170.006 234.497C169.476 232.701 168.976 230.861 168.534 228.859C168.325 227.799 168.177 226.727 168.093 225.65C168.093 225.105 168.093 224.296 168.093 223.81V222.338C168.218 218.587 168.562 214.846 169.123 211.135C169.609 207.455 170.33 203.864 171.11 200.286C172.642 193.122 174.608 186.058 176.999 179.133L188.319 183.064Z" fill="#FFC3BD"/>
<path d="M182.239 165.59C177.234 167.062 171.213 184.359 171.213 184.359L190.644 198.255C190.644 198.255 197.74 183.858 195.635 177.381C193.441 170.64 187.965 163.853 182.239 165.59Z" fill="#407BFF"/>
<path opacity="0.4" d="M182.239 165.59C177.234 167.062 171.213 184.359 171.213 184.359L190.644 198.255C190.644 198.255 197.74 183.858 195.635 177.381C193.441 170.64 187.965 163.853 182.239 165.59Z" fill="white"/>
<path d="M155.389 488.454C155.628 488.37 155.846 488.234 156.027 488.056C156.208 487.878 156.347 487.662 156.434 487.424C156.519 487.27 156.564 487.098 156.564 486.923C156.564 486.748 156.519 486.576 156.434 486.423C155.551 485.127 151.091 485.23 150.546 485.245C150.49 485.246 150.435 485.263 150.388 485.294C150.341 485.326 150.304 485.37 150.281 485.422C150.252 485.468 150.237 485.522 150.237 485.576C150.237 485.631 150.252 485.684 150.281 485.731C151.444 486.894 153.623 488.793 155.154 488.498L155.389 488.454ZM151.253 485.775C153.034 485.775 155.419 486.025 155.89 486.717C155.93 486.784 155.951 486.86 155.951 486.938C155.951 487.016 155.93 487.092 155.89 487.159C155.825 487.336 155.717 487.495 155.575 487.621C155.434 487.747 155.264 487.836 155.08 487.88C154.27 488.086 152.857 487.247 151.253 485.775Z" fill="#407BFF"/>
<path d="M152.563 485.466C153.917 485.039 155.36 484.288 155.669 483.449C155.746 483.231 155.747 482.993 155.672 482.774C155.597 482.555 155.451 482.368 155.257 482.242C155.085 482.099 154.883 481.997 154.667 481.943C154.45 481.89 154.224 481.886 154.005 481.933C152.254 482.242 150.369 485.245 150.296 485.378C150.27 485.422 150.256 485.473 150.256 485.525C150.256 485.576 150.27 485.627 150.296 485.672C150.322 485.715 150.359 485.751 150.403 485.777C150.446 485.802 150.495 485.817 150.546 485.819C151.232 485.8 151.911 485.681 152.563 485.466ZM153.917 482.522H154.108C154.247 482.493 154.39 482.495 154.527 482.528C154.665 482.561 154.793 482.625 154.903 482.713C155.198 482.949 155.168 483.125 155.124 483.258C154.83 484.067 152.592 485.039 151.105 485.23C151.782 484.099 152.754 483.172 153.917 482.551V482.522Z" fill="#407BFF"/>
<path d="M236.882 518.072C237.919 518.157 238.956 517.892 239.826 517.321C240.028 517.138 240.182 516.908 240.275 516.651C240.367 516.394 240.395 516.119 240.356 515.849C240.344 515.689 240.292 515.535 240.205 515.401C240.117 515.267 239.997 515.158 239.855 515.083C238.383 514.259 233.452 516.761 232.893 517.041C232.839 517.063 232.792 517.101 232.76 517.15C232.727 517.198 232.71 517.255 232.71 517.313C232.71 517.372 232.727 517.429 232.76 517.477C232.792 517.526 232.839 517.564 232.893 517.586C234.202 517.882 235.539 518.045 236.882 518.072V518.072ZM239.075 515.525C239.262 515.513 239.45 515.548 239.62 515.628C239.678 515.66 239.726 515.707 239.76 515.764C239.794 515.821 239.811 515.886 239.811 515.952C239.839 516.121 239.823 516.295 239.767 516.457C239.71 516.619 239.614 516.764 239.487 516.879C238.737 517.556 236.705 517.674 233.982 517.218C235.571 516.369 237.294 515.797 239.075 515.525V515.525Z" fill="#407BFF"/>
<path d="M233.069 517.645H233.187C234.659 516.982 237.603 514.333 237.338 512.934C237.338 512.596 237.044 512.198 236.234 512.11C235.944 512.077 235.651 512.105 235.372 512.191C235.093 512.277 234.836 512.42 234.615 512.61C233.143 513.906 232.789 517.218 232.775 517.35C232.773 517.402 232.784 517.453 232.807 517.5C232.83 517.546 232.865 517.586 232.907 517.615C232.955 517.646 233.013 517.656 233.069 517.645V517.645ZM236.013 512.654H236.19C236.72 512.654 236.764 512.934 236.764 512.993C236.911 513.832 234.939 515.937 233.437 516.835C233.555 515.436 234.105 514.109 235.012 513.037C235.282 512.792 235.634 512.655 235.998 512.654H236.013Z" fill="#407BFF"/>
<path d="M190.35 237.308L189.084 241.725C188.908 242.063 189.32 242.416 189.894 242.416H241.416C241.872 242.416 242.24 242.196 242.269 241.916L242.726 237.5C242.726 237.191 242.358 236.926 241.872 236.926H191.175C191.016 236.913 190.857 236.942 190.712 237.009C190.568 237.076 190.443 237.179 190.35 237.308V237.308Z" fill="#263238"/>
<path d="M197.151 242.961H195.782C195.517 242.961 195.311 242.829 195.325 242.652L195.958 236.764C195.958 236.602 196.223 236.455 196.488 236.455H197.843C198.122 236.455 198.314 236.602 198.299 236.764L197.666 242.652C197.666 242.887 197.43 242.961 197.151 242.961Z" fill="#407BFF"/>
<path opacity="0.4" d="M197.151 242.961H195.782C195.517 242.961 195.311 242.829 195.325 242.652L195.958 236.764C195.958 236.602 196.223 236.455 196.488 236.455H197.843C198.122 236.455 198.314 236.602 198.299 236.764L197.666 242.652C197.666 242.887 197.43 242.961 197.151 242.961Z" fill="black"/>
<path d="M237.529 242.961H236.175C235.91 242.961 235.704 242.829 235.719 242.652L236.366 236.764C236.366 236.602 236.616 236.455 236.881 236.455H238.236C238.515 236.455 238.721 236.602 238.692 236.764L238.059 242.652C238.044 242.887 237.809 242.961 237.529 242.961Z" fill="#407BFF"/>
<path opacity="0.4" d="M237.529 242.961H236.175C235.91 242.961 235.704 242.829 235.719 242.652L236.366 236.764C236.366 236.602 236.616 236.455 236.881 236.455H238.236C238.515 236.455 238.721 236.602 238.692 236.764L238.059 242.652C238.044 242.887 237.809 242.961 237.529 242.961Z" fill="black"/>
<path d="M217.348 242.961H215.993C215.714 242.961 215.508 242.829 215.537 242.652L216.17 236.764C216.17 236.602 216.42 236.455 216.7 236.455H218.054C218.319 236.455 218.525 236.602 218.511 236.764L217.878 242.652C217.863 242.887 217.613 242.961 217.348 242.961Z" fill="#407BFF"/>
<path opacity="0.4" d="M217.348 242.961H215.993C215.714 242.961 215.508 242.829 215.537 242.652L216.17 236.764C216.17 236.602 216.42 236.455 216.7 236.455H218.054C218.319 236.455 218.525 236.602 218.511 236.764L217.878 242.652C217.863 242.887 217.613 242.961 217.348 242.961Z" fill="black"/>
<path d="M218.363 122.459L220.586 121.37C220.586 121.37 219.703 123.416 218.363 122.459Z" fill="#263238"/>
<path d="M187.701 260.684L198.255 268.781L186.022 271.475C186.022 271.475 180.826 265.586 182.622 260.729L187.701 260.684Z" fill="#FFC3BD"/>
<path d="M200.846 278.805L190.483 280.498L184.83 269.87L198.255 268.781L200.846 278.805Z" fill="#FFC3BD"/>
</svg>
