<svg width="180" height="134" viewBox="0 0 180 134" fill="none" xmlns="http://www.w3.org/2000/svg">
<path d="M180 117.757H0V117.848H180V117.757Z" fill="#4360C9"/>
<path d="M44.9352 123.199H33.012V123.29H44.9352V123.199Z" fill="#4360C9"/>
<path d="M29.2392 123.199H22.3308V123.29H29.2392V123.199Z" fill="#4360C9"/>
<path d="M75.798 124.522H68.8896V124.613H75.798V124.522Z" fill="#4360C9"/>
<path d="M111.82 126.53H96.2712V126.62H111.82V126.53Z" fill="#4360C9"/>
<path d="M93.0671 126.53H90.7883V126.62H93.0671V126.53Z" fill="#4360C9"/>
<path d="M163.206 124.522H129.481V124.613H163.206V124.522Z" fill="#4360C9"/>
<path d="M85.32 101.716H15.8076C15.2631 101.715 14.7411 101.498 14.3564 101.113C13.9717 100.728 13.7556 100.206 13.7556 99.6619V2.03575C13.7604 1.49481 13.9785 0.977585 14.3627 0.596417C14.7469 0.21525 15.2662 0.000926658 15.8076 0H85.32C85.8652 0 86.388 0.216375 86.7735 0.601525C87.159 0.986675 87.3756 1.50905 87.3756 2.05374V99.6619C87.3756 100.207 87.159 100.729 86.7735 101.114C86.388 101.499 85.8652 101.716 85.32 101.716ZM15.8076 0.071935C15.2869 0.0728877 14.7879 0.280209 14.4201 0.648393C14.0522 1.01658 13.8456 1.51554 13.8456 2.03575V99.6619C13.8456 100.182 14.0522 100.681 14.4201 101.049C14.7879 101.417 15.2869 101.625 15.8076 101.626H85.32C85.841 101.625 86.3404 101.418 86.7089 101.049C87.0773 100.681 87.2847 100.182 87.2856 99.6619V2.03575C87.2847 1.51521 87.0773 1.01625 86.7089 0.648173C86.3404 0.280092 85.841 0.0728857 85.32 0.071935H15.8076Z" fill="#4360C9"/>
<path d="M163.191 101.716H93.6755C93.1306 101.715 92.6083 101.498 92.223 101.113C91.8377 100.728 91.6208 100.206 91.6199 99.6619V2.03575C91.6256 1.49448 91.8445 0.97726 92.2293 0.596192C92.6141 0.215124 93.1337 0.000916552 93.6755 0H163.191C163.732 0.00187192 164.251 0.216613 164.634 0.597679C165.017 0.978746 165.235 1.49543 165.24 2.03575V99.6619C165.24 100.205 165.024 100.727 164.64 101.112C164.256 101.497 163.735 101.714 163.191 101.716ZM93.6755 0.071935C93.1545 0.0728857 92.655 0.280092 92.2866 0.648173C91.9182 1.01625 91.7108 1.51521 91.7099 2.03575V99.6619C91.7108 100.182 91.9182 100.681 92.2866 101.049C92.655 101.418 93.1545 101.625 93.6755 101.626H163.191C163.712 101.625 164.212 101.418 164.58 101.049C164.949 100.681 165.156 100.182 165.157 99.6619V2.03575C165.156 1.51521 164.949 1.01625 164.58 0.648173C164.212 0.280092 163.712 0.0728857 163.191 0.071935H93.6755Z" fill="#4360C9"/>
<path d="M96.2641 87.0339H88.3477V118.408H96.2641V87.0339Z" fill="#8898EA"/>
<path d="M94.7592 118.408H96.264V114.135H93.1824L94.7592 118.408Z" fill="#FAFAFA"/>
<path d="M61.5744 87.0339H53.658V118.408H61.5744V87.0339Z" fill="#8898EA"/>
<path d="M96.2639 87.0339H60.2639V115.786H96.2639V87.0339Z" fill="#FAFAFA"/>
<path d="M94.9572 88.4474V96.0545H61.56V88.4474H94.9464H94.9572ZM95.0868 88.3071H61.4304V96.1912H95.0976V88.3071H95.0868Z" fill="#8898EA"/>
<path d="M61.7651 118.408H60.2639V114.135H63.3419L61.7651 118.408Z" fill="#FAFAFA"/>
<path d="M77.4683 92.249C77.4683 92.4062 77.5149 92.5599 77.6023 92.6906C77.6898 92.8213 77.814 92.9232 77.9594 92.9834C78.1048 93.0435 78.2647 93.0593 78.4191 93.0286C78.5734 92.9979 78.7152 92.9222 78.8264 92.811C78.9377 92.6999 79.0135 92.5583 79.0442 92.4041C79.0749 92.2499 79.0591 92.09 78.9989 91.9448C78.9387 91.7996 78.8367 91.6754 78.7059 91.5881C78.575 91.5007 78.4212 91.4541 78.2639 91.4541C78.0529 91.4541 77.8505 91.5379 77.7013 91.6869C77.5521 91.836 77.4683 92.0382 77.4683 92.249Z" fill="#4360C9"/>
<path d="M94.9572 97.6047V105.212H61.56V97.6047H94.9464H94.9572ZM95.0868 97.468H61.4304V105.352H95.0976V97.4716L95.0868 97.468Z" fill="#8898EA"/>
<path d="M77.4683 101.428C77.4683 101.585 77.5149 101.739 77.6023 101.87C77.6898 102 77.814 102.102 77.9594 102.162C78.1048 102.223 78.2647 102.238 78.4191 102.208C78.5734 102.177 78.7152 102.101 78.8264 101.99C78.9377 101.879 79.0135 101.737 79.0442 101.583C79.0749 101.429 79.0591 101.269 78.9989 101.124C78.9387 100.979 78.8367 100.854 78.7059 100.767C78.575 100.68 78.4212 100.633 78.2639 100.633C78.0529 100.633 77.8505 100.717 77.7013 100.866C77.5521 101.015 77.4683 101.217 77.4683 101.428Z" fill="#4360C9"/>
<path d="M94.9572 106.766V114.376H61.56V106.766H94.9464H94.9572ZM95.0868 106.625H61.4304V114.513H95.0976V106.625H95.0868Z" fill="#8898EA"/>
<path d="M77.4683 110.571C77.469 110.728 77.5162 110.881 77.6041 111.011C77.692 111.142 77.8165 111.243 77.9619 111.302C78.1073 111.362 78.2672 111.377 78.4213 111.346C78.5754 111.315 78.7168 111.239 78.8277 111.128C78.9386 111.017 79.014 110.875 79.0444 110.721C79.0748 110.567 79.0589 110.407 78.9986 110.262C78.9382 110.117 78.8363 109.993 78.7055 109.906C78.5747 109.819 78.4211 109.772 78.2639 109.772C78.1591 109.772 78.0553 109.793 77.9586 109.833C77.8618 109.873 77.7739 109.932 77.7 110.006C77.6261 110.08 77.5676 110.169 77.5278 110.265C77.488 110.362 77.4678 110.466 77.4683 110.571Z" fill="#4360C9"/>
<path d="M56.7396 68.813H48.8232V118.412H56.7396V68.813Z" fill="#8898EA"/>
<path d="M55.2348 118.408H56.7396V114.135H53.6616L55.2348 118.408Z" fill="#FAFAFA"/>
<path d="M27.1547 68.813H19.2383V118.412H27.1547V68.813Z" fill="#8898EA"/>
<path d="M56.7396 68.813H25.8408V115.79H56.7396V68.813Z" fill="#FAFAFA"/>
<path d="M55.4076 70.1363V80.7719H27.1728V70.1363H55.4076ZM55.5732 69.9745H27V80.9265H55.566V69.9781L55.5732 69.9745Z" fill="#8898EA"/>
<path d="M55.4075 82.0704V110.28H41.9579V82.0704H55.4075ZM55.5731 81.9049H41.7959V110.445H55.5731V81.9049Z" fill="#8898EA"/>
<path d="M40.6224 82.0704V110.28H27.1728V82.0704H40.6224ZM40.7844 81.9049H27V110.445H40.7772V81.9049H40.7844Z" fill="#8898EA"/>
<path d="M27.3456 118.408H25.8408V114.135H28.9224L27.3456 118.408Z" fill="#FAFAFA"/>
<path d="M40.4927 75.4594C40.492 75.6175 40.5382 75.7722 40.6256 75.904C40.713 76.0358 40.8376 76.1387 40.9835 76.1997C41.1295 76.2607 41.2903 76.277 41.4456 76.2466C41.6008 76.2162 41.7436 76.1404 41.8557 76.0289C41.9678 75.9174 42.0443 75.7751 42.0755 75.6201C42.1066 75.4651 42.091 75.3044 42.0306 75.1583C41.9702 75.0122 41.8678 74.8873 41.7363 74.7994C41.6048 74.7115 41.4501 74.6646 41.2919 74.6646C41.0805 74.6645 40.8778 74.7482 40.728 74.8972C40.5783 75.0461 40.4936 75.2483 40.4927 75.4594Z" fill="#4360C9"/>
<path d="M43.344 95.5041C43.344 95.6621 43.391 95.8166 43.4789 95.948C43.5669 96.0794 43.692 96.1818 43.8382 96.2421C43.9844 96.3024 44.1453 96.318 44.3004 96.2869C44.4556 96.2558 44.598 96.1794 44.7096 96.0674C44.8212 95.9554 44.8971 95.8127 44.9275 95.6576C44.9579 95.5025 44.9416 95.3418 44.8805 95.196C44.8195 95.0501 44.7165 94.9257 44.5846 94.8384C44.4527 94.7511 44.2978 94.7049 44.1396 94.7056C44.0348 94.7056 43.9311 94.7263 43.8343 94.7664C43.7375 94.8066 43.6497 94.8655 43.5758 94.9397C43.5018 95.0138 43.4433 95.1019 43.4035 95.1988C43.3638 95.2956 43.3435 95.3994 43.344 95.5041Z" fill="#4360C9"/>
<path d="M37.6453 95.504C37.646 95.6611 37.6932 95.8144 37.7811 95.9447C37.869 96.0749 37.9935 96.1762 38.1389 96.2358C38.2843 96.2955 38.4442 96.3107 38.5983 96.2796C38.7524 96.2485 38.8938 96.1725 39.0047 96.0612C39.1156 95.9499 39.191 95.8083 39.2214 95.6542C39.2518 95.5001 39.2359 95.3405 39.1756 95.1954C39.1152 95.0504 39.0133 94.9265 38.8825 94.8393C38.7518 94.7521 38.5981 94.7056 38.4409 94.7056C38.3361 94.7056 38.2323 94.7262 38.1356 94.7664C38.0388 94.8066 37.9509 94.8655 37.877 94.9396C37.8031 95.0138 37.7446 95.1019 37.7048 95.1988C37.665 95.2956 37.6448 95.3994 37.6453 95.504Z" fill="#4360C9"/>
<path d="M36.7451 54.9834H33.4079C33.7155 56.6008 33.9092 58.2377 33.9875 59.8822C33.9875 61.6805 31.4459 68.8128 35.0675 68.8128C38.6891 68.8128 36.1475 61.6985 36.1475 59.8822C36.2319 58.2373 36.4316 56.6004 36.7451 54.9834Z" fill="#8898EA"/>
<path d="M24.0481 62.2775V64.4355C24.0519 65.5924 24.5136 66.7008 25.3323 67.5189C26.1511 68.3369 27.2606 68.7981 28.4185 68.8019H30.5785C31.7364 68.7981 32.8459 68.3369 33.6646 67.5189C34.4834 66.7008 34.9451 65.5924 34.9489 64.4355V62.2775H24.0481Z" fill="#4360C9"/>
<path d="M70.4412 82.4589C70.4412 84.9766 73.26 87.0339 76.7052 87.0339H79.8156C83.2608 87.0339 86.0796 84.9766 86.0796 82.4589H70.4412Z" fill="#8898EA"/>
<path d="M152.86 78.7685C150.973 80.3079 148.367 83.1242 145.984 87.0878C144.392 89.7278 143.435 92.4829 143.014 96.1443C143.014 92.0081 143.039 87.5661 143.053 83.3723C143.532 82.2933 144.626 79.8044 145.411 77.8406C148.028 71.2837 149.011 69.6688 151.362 64.0147C154.505 56.4616 157.723 47.5201 156.802 48.2358C154.922 49.6925 147.722 63.1623 146.945 65.0901C144.825 70.235 143.515 75.6764 143.06 81.2215C143.06 77.2651 143.089 73.6684 143.104 70.8773C143.154 61.774 143.309 58.8354 143.384 57.929C143.676 57.4687 144.018 56.9328 144.22 56.645C145.912 54.1992 146.563 52.1203 148.154 48.4732C150.415 43.3119 152.359 34.1438 151.79 34.6042C149.422 36.5321 147.557 40.6683 145.102 45.9447C142.646 51.2211 143.348 54.2532 142.862 58.7563C142.762 59.6411 142.682 62.9789 142.625 67.6007C141.991 62.6731 140.796 59.4289 138.618 56.4796C135.94 52.8505 133.348 50.4011 131.447 49.1206C129.546 47.8402 134.73 56.7529 137.207 60.6302C139.414 64.0974 141.448 67.1511 142.607 70.1615C142.546 76.4306 142.517 84.365 142.517 91.7419C141.948 88.3826 141.019 84.7607 139.781 81.9588C138.29 78.5923 136.001 73.4274 134.176 71.6758C133.74 71.2549 136.084 81.3006 137.588 83.9694C139.093 86.6382 140.198 89.1595 141.145 90.6737C141.365 91.0334 142.099 92.3894 142.517 93.1734C142.517 102.19 142.567 110.146 142.646 112.855H143.035C143.01 112.157 143.003 107.568 143.014 101.496C143.953 98.2017 146.099 94.4395 147.87 91.0082C149.8 87.2928 154.746 77.2399 152.86 78.7685Z" fill="#8898EA"/>
<path d="M148.478 118.408H137.196L136.343 107.359H149.332L148.478 118.408Z" fill="#F0F0F0"/>
<path d="M150.17 108.647H135.5L135.083 104.917H150.592L150.17 108.647Z" fill="#4360C9"/>
<path d="M44.7337 7.37329H24.5557V29.5112H44.7337V7.37329Z" fill="#8898EA"/>
<path d="M46.9187 7.37329H26.0747V29.5112H46.9187V7.37329Z" fill="#4360C9"/>
<path d="M45.1729 27.7669V9.1178L27.8209 9.1178V27.7669H45.1729Z" fill="white"/>
<path d="M40.9644 23.2421V13.6353H32.0256V23.2421H40.9644Z" fill="#4360C9"/>
<path d="M147.618 9.95227H128.873V30.5184H147.618V9.95227Z" fill="#8898EA"/>
<path d="M149.648 9.95227H130.288V30.5184H149.648V9.95227Z" fill="#4360C9"/>
<path d="M148.028 28.8961V11.5742L131.911 11.5742V28.8961H148.028Z" fill="white"/>
<path d="M139.968 25.2598C142.745 25.2598 144.997 23.0102 144.997 20.2352C144.997 17.4602 142.745 15.2106 139.968 15.2106C137.19 15.2106 134.939 17.4602 134.939 20.2352C134.939 23.0102 137.19 25.2598 139.968 25.2598Z" fill="#4360C9"/>
<path d="M65.6963 20.5734H50.7275V36.9961H65.6963V20.5734Z" fill="#8898EA"/>
<path d="M67.3165 20.5734H51.8545V36.9961H67.3165V20.5734Z" fill="#4360C9"/>
<path d="M66.0205 35.7012V21.8682H53.1505V35.7012H66.0205Z" fill="white"/>
<path d="M59.5872 25.2853L56.0664 31.3781H63.108L59.5872 25.2853Z" fill="#4360C9"/>
<path d="M90.0001 134C128.55 134 159.801 132.177 159.801 129.928C159.801 127.68 128.55 125.857 90.0001 125.857C51.4504 125.857 20.1997 127.68 20.1997 129.928C20.1997 132.177 51.4504 134 90.0001 134Z" fill="#4360C9"/>
<path d="M125.73 38.9994L122.159 37.5607C122.159 37.5607 117.446 46.1461 116.096 46.5813C114.26 47.1711 110.459 48.8113 108.205 49.099C107.899 49.4587 107.399 50.5773 107.446 50.9837C110.473 51.9944 117.126 50.6528 118.552 49.5953C121.795 47.1963 125.73 38.9994 125.73 38.9994Z" fill="#CF6F64"/>
<path d="M126.828 37.0464C127.494 39.503 123.887 44.4449 123.887 44.4449L119.16 41.7977C119.16 41.7977 120.046 39.7655 121.126 37.6974C122.857 34.3561 126.069 34.2446 126.828 37.0464Z" fill="#335EF7"/>
<path opacity="0.2" d="M126.828 37.0464C127.494 39.503 123.887 44.4449 123.887 44.4449L119.16 41.7977C119.16 41.7977 120.046 39.7655 121.126 37.6974C122.857 34.3561 126.069 34.2446 126.828 37.0464Z" fill="#CF6F64"/>
<path opacity="0.2" d="M121.036 42.855L122.897 43.8981L123.224 38.1901C122.141 39.0209 121.378 41.5242 121.036 42.855Z" fill="#CF6F64"/>
<path d="M123.718 35.1977C123.718 35.1977 120.039 43.3767 122.184 58.6053H136.681C136.912 56.3825 136.149 45.5347 138.91 35.0611C137.319 34.7505 135.71 34.5451 134.093 34.446C132.041 34.3272 129.985 34.3272 127.933 34.446C126.511 34.5903 125.102 34.8416 123.718 35.1977Z" fill="#335EF7"/>
<path opacity="0.2" d="M123.718 35.1977C123.718 35.1977 120.039 43.3767 122.184 58.6053H136.681C136.912 56.3825 136.149 45.5347 138.91 35.0611C137.319 34.7505 135.71 34.5451 134.093 34.446C132.041 34.3272 129.985 34.3272 127.933 34.446C126.511 34.5903 125.102 34.8416 123.718 35.1977Z" fill="#CF6F64"/>
<g style="mix-blend-mode:multiply">
<path d="M120.355 130.252C120.334 130.641 125.831 130.954 132.631 130.954C139.432 130.954 144.968 130.641 144.99 130.252C145.012 129.864 139.518 129.554 132.714 129.554C125.91 129.554 120.38 129.867 120.355 130.252Z" fill="#E8ECF1"/>
</g>
<path d="M130.032 120.046L127.461 121.04L129.676 126.757L132.247 125.762L130.032 120.046Z" fill="#CF6F64"/>
<path d="M141.498 127.486H138.787L137.794 121.217H140.505L141.498 127.486Z" fill="#CF6F64"/>
<path d="M138.6 127.173H141.646C141.699 127.174 141.75 127.192 141.79 127.227C141.83 127.261 141.857 127.308 141.865 127.36L142.258 129.767C142.266 129.827 142.261 129.888 142.244 129.947C142.226 130.005 142.196 130.059 142.156 130.105C142.115 130.15 142.066 130.187 142.01 130.212C141.954 130.237 141.894 130.249 141.833 130.249C140.771 130.231 140.26 130.166 138.921 130.166C138.096 130.166 136.401 130.252 135.256 130.252C134.111 130.252 134.035 129.13 134.507 129.026C136.624 128.569 137.445 127.947 138.15 127.342C138.275 127.233 138.435 127.173 138.6 127.173Z" fill="#263238"/>
<path d="M129.6 126.245L132.48 125.404C132.531 125.389 132.586 125.393 132.635 125.414C132.684 125.435 132.725 125.472 132.75 125.519L133.83 127.677C133.855 127.732 133.868 127.791 133.868 127.851C133.867 127.912 133.854 127.971 133.828 128.025C133.802 128.08 133.765 128.128 133.719 128.167C133.672 128.205 133.618 128.233 133.56 128.249C132.512 128.536 131.81 128.713 130.5 129.094C129.596 129.356 128.675 129.784 127.782 130.069C127.163 130.266 125.708 130.274 124.956 130.274C123.844 130.274 123.595 129.101 124.074 129.047C125.28 128.914 125.442 128.975 126.108 128.641C127.198 128.165 128.185 127.483 129.017 126.634C129.174 126.455 129.375 126.321 129.6 126.245Z" fill="#263238"/>
<path d="M108.659 49.0845L105.678 47.8364L104.45 51.1382C105.672 51.3242 106.915 51.3242 108.137 51.1382L108.659 49.0845Z" fill="#CF6F64"/>
<path d="M103.461 47.7504L103.381 49.9444L104.451 51.1313L105.678 47.8295L103.461 47.7504Z" fill="#CF6F64"/>
<path d="M130.385 120.531L127.806 121.526L128.948 124.482L131.527 123.487L130.385 120.531Z" fill="#CF6F64"/>
<path d="M140.505 121.217H137.794L138.308 124.451H141.019L140.505 121.217Z" fill="#CF6F64"/>
<path opacity="0.2" d="M121.723 54.487C121.777 55.138 121.839 55.8034 121.918 56.4868L132.696 52.9908C134.379 52.4923 135.842 51.4355 136.843 49.9947C136.887 49.0343 136.941 48.0237 137.023 46.9698C137.059 46.4591 137.103 45.934 137.149 45.4016C137.196 44.8693 137.261 44.2795 137.329 43.7112L121.723 54.487Z" fill="#CF6F64"/>
<path d="M125.244 42.6897L124.884 42.6465C125.096 40.8481 126.439 39.431 127.854 39.467V39.8267C126.616 39.8015 125.435 41.0783 125.244 42.6897Z" fill="white"/>
<path d="M127.163 46.0094H127.102V45.6497C128.34 45.6965 129.503 44.4052 129.694 42.7975L130.054 42.8406C129.863 44.5994 128.563 46.0094 127.163 46.0094Z" fill="white"/>
<path d="M133.891 27.515C133.384 29.4968 132.786 33.1259 134.093 34.4459C134.093 34.4459 133.179 36.4565 129.496 36.4565C126.13 36.4565 127.933 34.4459 127.933 34.4459C130.173 33.9208 130.212 32.2879 129.917 30.7413L133.891 27.515Z" fill="#CF6F64"/>
<path d="M132.271 28.8314L129.92 30.7413C129.993 31.0967 130.035 31.4577 130.046 31.8203C130.734 32.5037 132.113 30.7737 132.253 29.8889C132.325 29.5405 132.331 29.182 132.271 28.8314Z" fill="#CF6F64"/>
<path d="M125.878 27.49C126.041 27.7732 126.262 28.0197 126.525 28.2141C126.788 28.4084 127.089 28.5464 127.408 28.6194C128.272 28.81 128.704 28.0151 128.466 27.2166C128.254 26.4973 127.545 25.5298 126.666 25.6952C126.478 25.7339 126.302 25.8171 126.152 25.9379C126.003 26.0586 125.885 26.2133 125.808 26.389C125.73 26.5648 125.697 26.7565 125.709 26.948C125.721 27.1396 125.779 27.3254 125.878 27.49Z" fill="#CF6F64"/>
<path d="M127.307 21.1489C125.96 21.7639 125.485 27.1087 127.177 27.9C128.869 28.6913 129.856 19.98 127.307 21.1489Z" fill="#263238"/>
<path d="M134.302 24.5333C133.978 27.2164 133.942 28.7954 132.502 30.1694C132.056 30.6253 131.492 30.9492 130.873 31.1052C130.254 31.2613 129.604 31.2434 128.995 31.0536C128.386 30.8639 127.841 30.5095 127.42 30.0298C127 29.55 126.72 28.9635 126.612 28.335C126.177 25.9252 126.778 21.9436 129.471 20.8754C130.036 20.6261 130.659 20.5325 131.273 20.6043C131.887 20.6761 132.471 20.9108 132.964 21.2839C133.456 21.6571 133.84 22.1552 134.076 22.7265C134.311 23.2978 134.389 23.9216 134.302 24.5333Z" fill="#CF6F64"/>
<path d="M129.877 22.5371C131.872 22.03 133.337 21.6847 132.811 23.3428C132.117 25.5584 131.281 27.702 132.401 27.7991C133.085 27.8603 136.109 26.5798 135.724 25.2814C135.389 24.152 136.804 23.8427 137.056 23.2708C137.988 21.1991 135.321 21.4725 135.796 20.2136C136.271 18.9548 133.636 16.9262 132.196 17.9369C129.852 19.5698 125.831 19.5446 127.944 16.8579C129.46 14.9408 126.756 15.3328 126.756 15.3328C126.756 15.3328 128.391 16.3004 125.64 17.7966C122.731 19.3936 125.399 23.6845 129.877 22.5371Z" fill="#263238"/>
<path d="M135.36 27.49C134.966 28.0592 134.375 28.4617 133.7 28.6194C132.811 28.81 132.469 28.0151 132.804 27.2166C133.103 26.4973 133.924 25.5298 134.773 25.6952C135.623 25.8607 135.817 26.785 135.36 27.49Z" fill="#CF6F64"/>
<path d="M122.184 58.6053C122.184 58.6053 119.751 80.3656 119.56 88.6237C119.365 97.2127 127.807 124.012 127.807 124.012L132.127 122.214C132.127 122.214 127.087 97.727 127.807 89.2927C128.571 80.0958 131.724 58.6197 131.724 58.6197L122.184 58.6053Z" fill="#335EF7"/>
<path opacity="0.2" d="M128.232 64.5794C126.292 68.6006 127.599 76.553 128.65 81.2647C129.049 77.9377 129.525 74.3266 129.975 70.9852C129.931 65.8491 129.532 61.8819 128.232 64.5794Z" fill="#CF6F64"/>
<path d="M131.936 120.789C131.958 120.789 132.448 122.163 132.448 122.163L127.465 124.256L126.68 122.796L131.936 120.789Z" fill="#335EF7"/>
<path d="M127.329 58.6053C127.329 58.6053 129.19 79.301 130.421 87.0519C131.775 95.5438 137.081 123.825 137.081 123.825H142.045C142.045 123.825 139.072 96.2308 138.51 87.8216C137.898 78.7003 136.681 58.6053 136.681 58.6053H127.329Z" fill="#335EF7"/>
<path d="M142.121 122.534C142.143 122.534 142.287 123.918 142.287 123.918H136.829L136.44 122.328L142.121 122.534Z" fill="#335EF7"/>
<path opacity="0.2" d="M140.22 120.893C140.209 120.894 140.198 120.89 140.189 120.882C140.181 120.875 140.175 120.865 140.173 120.854C140.145 120.602 137.463 95.6768 136.959 88.1236C136.411 79.9303 135.31 61.7559 135.299 61.5725C135.298 61.5666 135.299 61.5606 135.301 61.5549C135.303 61.5492 135.306 61.544 135.31 61.5396C135.314 61.5352 135.319 61.5317 135.325 61.5294C135.33 61.527 135.336 61.5257 135.342 61.5258C135.354 61.5257 135.365 61.5302 135.374 61.5382C135.383 61.5462 135.388 61.5571 135.389 61.5689C135.389 61.7523 136.501 79.9123 137.049 88.12C137.553 95.6732 140.235 120.581 140.26 120.85C140.261 120.856 140.261 120.862 140.259 120.868C140.258 120.874 140.255 120.88 140.251 120.884C140.247 120.889 140.243 120.893 140.237 120.896C140.232 120.899 140.226 120.9 140.22 120.901V120.893Z" fill="#CF6F64"/>
<path d="M130.183 25.2814C130.183 25.5008 130.047 25.677 129.903 25.677C129.759 25.677 129.654 25.5008 129.669 25.2814C129.683 25.062 129.805 24.8857 129.949 24.8857C130.093 24.8857 130.198 25.0656 130.183 25.2814Z" fill="#263238"/>
<path d="M127.714 25.2814C127.714 25.5008 127.573 25.677 127.433 25.677C127.293 25.677 127.185 25.5008 127.195 25.2814C127.206 25.062 127.336 24.8857 127.48 24.8857C127.624 24.8857 127.728 25.0656 127.714 25.2814Z" fill="#263238"/>
<path d="M128.491 25.3928C128.191 26.0628 127.804 26.6904 127.339 27.2595C127.699 27.6192 128.373 27.4538 128.373 27.4538L128.491 25.3928Z" fill="#DF5753"/>
<path d="M128.556 28.3712C128.548 28.3713 128.54 28.3696 128.532 28.3663C128.524 28.363 128.517 28.3581 128.512 28.3521C128.506 28.346 128.501 28.3388 128.499 28.331C128.496 28.3232 128.494 28.3148 128.495 28.3065C128.496 28.289 128.504 28.2725 128.516 28.2605C128.529 28.2484 128.546 28.2417 128.563 28.2418C128.839 28.2437 129.111 28.1839 129.36 28.0669C129.609 27.9499 129.829 27.7786 130.003 27.5656C130.016 27.5547 130.032 27.5487 130.048 27.5487C130.065 27.5487 130.081 27.5547 130.093 27.5656C130.105 27.5776 130.112 27.5938 130.112 27.6105C130.112 27.6273 130.105 27.6434 130.093 27.6555C129.907 27.8819 129.672 28.0637 129.406 28.1875C129.14 28.3114 128.85 28.3742 128.556 28.3712Z" fill="#263238"/>
<path d="M130.622 24.6196C130.605 24.6285 130.586 24.6331 130.567 24.6331C130.547 24.6331 130.528 24.6285 130.511 24.6196C130.376 24.5326 130.223 24.4785 130.063 24.4617C129.904 24.4448 129.743 24.4656 129.593 24.5225C129.578 24.5298 129.562 24.5341 129.546 24.5352C129.53 24.5362 129.513 24.534 129.498 24.5286C129.482 24.5233 129.468 24.5149 129.456 24.5039C129.444 24.493 129.434 24.4798 129.427 24.465C129.414 24.433 129.414 24.397 129.426 24.3648C129.439 24.3325 129.464 24.3065 129.496 24.2923C129.684 24.2155 129.888 24.1852 130.09 24.204C130.293 24.2228 130.488 24.2901 130.658 24.4002C130.672 24.4096 130.684 24.4216 130.693 24.4356C130.702 24.4496 130.709 24.4652 130.712 24.4816C130.715 24.498 130.714 24.5148 130.711 24.5311C130.707 24.5474 130.7 24.5628 130.691 24.5765C130.673 24.5971 130.649 24.6121 130.622 24.6196Z" fill="#263238"/>
<path d="M126.76 23.9004C126.74 23.8958 126.723 23.8858 126.709 23.8717C126.697 23.8599 126.688 23.8459 126.681 23.8305C126.675 23.8151 126.671 23.7985 126.671 23.7817C126.671 23.765 126.675 23.7484 126.681 23.733C126.688 23.7175 126.697 23.7035 126.709 23.6918C126.847 23.5372 127.019 23.4165 127.211 23.3392C127.404 23.2618 127.611 23.2299 127.818 23.2458C127.835 23.2484 127.85 23.2543 127.865 23.2632C127.879 23.2722 127.891 23.2839 127.9 23.2977C127.91 23.3115 127.916 23.3272 127.92 23.3436C127.923 23.36 127.922 23.377 127.919 23.3933C127.911 23.4266 127.891 23.4559 127.864 23.4758C127.836 23.4957 127.802 23.5047 127.768 23.5012C127.604 23.4909 127.44 23.5179 127.289 23.5802C127.137 23.6426 127.002 23.7385 126.893 23.8609C126.876 23.8791 126.855 23.8924 126.832 23.8994C126.808 23.9064 126.783 23.9067 126.76 23.9004Z" fill="#263238"/>
<path d="M140.303 38.6001L136.559 37.6038C136.559 37.6038 132.887 46.6352 131.587 47.2214C129.823 48.0271 125.356 50.8182 123.455 52.1382C123.351 52.5878 123.433 53.7783 123.671 54.1056C126.911 53.5157 133.114 51.1311 134.41 49.919C137.365 47.1531 140.303 38.6001 140.303 38.6001Z" fill="#CF6F64"/>
<path d="M137.689 127.648C137.506 127.662 137.324 127.613 137.174 127.508C137.128 127.466 137.093 127.413 137.074 127.353C137.054 127.294 137.05 127.231 137.063 127.17C137.065 127.131 137.078 127.095 137.099 127.063C137.121 127.031 137.15 127.006 137.185 126.99C137.488 126.835 138.334 127.371 138.431 127.432C138.441 127.439 138.45 127.449 138.454 127.46C138.459 127.472 138.459 127.485 138.456 127.497C138.453 127.51 138.447 127.521 138.438 127.531C138.429 127.54 138.418 127.547 138.406 127.551C138.171 127.609 137.931 127.641 137.689 127.648ZM137.329 127.087C137.302 127.081 137.274 127.081 137.246 127.087C137.233 127.094 137.221 127.105 137.213 127.118C137.206 127.132 137.202 127.147 137.203 127.162C137.194 127.204 137.195 127.248 137.208 127.289C137.22 127.33 137.244 127.367 137.275 127.396C137.416 127.522 137.768 127.537 138.233 127.447C137.956 127.265 137.645 127.142 137.318 127.087H137.329Z" fill="#335EF7"/>
<path d="M138.388 127.551C138.378 127.554 138.368 127.554 138.359 127.551C138.089 127.4 137.581 126.806 137.657 126.504C137.668 126.456 137.695 126.414 137.734 126.383C137.772 126.352 137.82 126.336 137.869 126.335C137.918 126.329 137.967 126.333 138.013 126.347C138.06 126.361 138.103 126.386 138.139 126.418C138.438 126.673 138.456 127.457 138.456 127.497C138.458 127.509 138.456 127.521 138.45 127.531C138.444 127.542 138.435 127.55 138.424 127.555C138.412 127.557 138.399 127.556 138.388 127.551ZM137.905 126.454H137.88C137.797 126.454 137.787 126.501 137.783 126.519C137.74 126.695 138.06 127.145 138.327 127.357C138.325 127.053 138.231 126.757 138.057 126.508C138.015 126.471 137.961 126.452 137.905 126.454Z" fill="#335EF7"/>
<path d="M128.131 127.199C127.911 127.275 127.671 127.275 127.451 127.199C127.401 127.172 127.358 127.132 127.328 127.085C127.297 127.037 127.278 126.982 127.274 126.925C127.27 126.89 127.274 126.854 127.288 126.82C127.301 126.787 127.322 126.757 127.35 126.735C127.638 126.476 128.815 126.735 128.948 126.785C128.961 126.788 128.972 126.796 128.98 126.806C128.988 126.817 128.992 126.829 128.992 126.843C128.992 126.856 128.989 126.869 128.982 126.881C128.975 126.892 128.964 126.902 128.952 126.907C128.687 127.027 128.412 127.124 128.131 127.199ZM127.544 126.771C127.503 126.779 127.465 126.797 127.433 126.825C127.421 126.833 127.413 126.845 127.407 126.858C127.402 126.872 127.401 126.886 127.404 126.9C127.406 126.938 127.418 126.974 127.438 127.006C127.458 127.038 127.486 127.065 127.519 127.084C127.71 127.184 128.153 127.105 128.725 126.864C128.34 126.767 127.94 126.735 127.544 126.771Z" fill="#335EF7"/>
<path d="M128.941 126.907H128.913C128.553 126.842 127.833 126.429 127.811 126.119C127.811 126.047 127.843 125.947 128.016 125.889C128.075 125.868 128.137 125.86 128.198 125.863C128.26 125.867 128.321 125.883 128.376 125.911C128.765 126.101 128.97 126.792 128.981 126.824C128.984 126.835 128.983 126.847 128.98 126.857C128.977 126.868 128.971 126.878 128.963 126.886C128.958 126.894 128.95 126.902 128.941 126.907ZM128.088 125.997H128.052C127.941 126.037 127.941 126.083 127.941 126.098C127.941 126.285 128.463 126.627 128.826 126.742C128.742 126.453 128.565 126.2 128.322 126.022C128.25 125.986 128.167 125.977 128.088 125.997Z" fill="#335EF7"/>
<path d="M123.761 51.9261L120.006 53.6526L119.571 54.7316L120.957 55.6632C120.957 55.6632 123.549 55.3826 124.287 53.7173L123.761 51.9261Z" fill="#CF6F64"/>
<path d="M123.919 54.1669C123.835 53.4461 123.597 52.7518 123.221 52.1312L123.815 51.6852C124.262 52.4003 124.547 53.2044 124.65 54.041L123.919 54.1669Z" fill="#263238"/>
<path d="M124.56 52.437C124.639 52.5617 124.678 52.7079 124.672 52.8555C124.665 53.0032 124.613 53.1452 124.523 53.2622C124.432 53.3793 124.308 53.4657 124.167 53.5097C124.025 53.5537 123.874 53.5532 123.733 53.5081C123.592 53.4631 123.469 53.3758 123.379 53.2582C123.29 53.1405 123.239 52.9981 123.233 52.8504C123.227 52.7027 123.267 52.5568 123.348 52.4326C123.428 52.3085 123.545 52.212 123.682 52.1564C123.835 52.0781 124.014 52.0636 124.179 52.1162C124.343 52.1687 124.48 52.284 124.56 52.437Z" fill="#263238"/>
<path d="M117.468 55.0479L117.968 55.5514L121.338 54.1127L120.006 53.6523L117.468 55.0479Z" fill="#CF6F64"/>
<path opacity="0.2" d="M131.936 120.789C131.958 120.789 132.448 122.163 132.448 122.163L127.465 124.256L126.68 122.796L131.936 120.789Z" fill="#CF6F64"/>
<path opacity="0.2" d="M142.121 122.534C142.143 122.534 142.287 123.918 142.287 123.918H136.829L136.44 122.328L142.121 122.534Z" fill="#CF6F64"/>
<path d="M141.278 37.5643C142.268 40.7546 138.398 45.1175 138.398 45.1175L133.052 42.9378C133.686 41.0939 134.417 39.2846 135.241 37.5176C136.883 33.982 140.278 34.3452 141.278 37.5643Z" fill="#335EF7"/>
<path opacity="0.2" d="M141.278 37.5643C142.268 40.7546 138.398 45.1175 138.398 45.1175L133.052 42.9378C133.686 41.0939 134.417 39.2846 135.241 37.5176C136.883 33.982 140.278 34.3452 141.278 37.5643Z" fill="#CF6F64"/>
<path d="M88.1568 5.60022H85.8564V5.97068H88.1568V5.60022Z" fill="#335EF7"/>
<path d="M117.935 20.2629L117.657 26.4358L118.027 26.4525L118.306 20.2795L117.935 20.2629Z" fill="#335EF7"/>
<path d="M117.219 7.26196H74.7394L70.7866 95.6409H113.267L117.219 7.26196Z" fill="#335EF7"/>
<path opacity="0.56" d="M115.952 8.47766H73.4723L69.5195 96.8566H112L115.952 8.47766Z" fill="#FAFAFA"/>
<path opacity="0.07" d="M114.685 9.68982H72.2052L68.2488 98.0688H110.729L114.685 9.68982Z" fill="#335EF7"/>
<path d="M109.85 48.2361H73.591L73.2886 54.9979H109.548L109.85 48.2361Z" fill="white"/>
<path d="M93.5315 43.3013H73.8107L73.6775 46.3261H93.3983L93.5315 43.3013Z" fill="#335EF7"/>
<path d="M109.033 66.4857H72.7741L72.4717 73.2476H108.731L109.033 66.4857Z" fill="white"/>
<path opacity="0.47" d="M102.384 82.3796H78.001L77.6375 90.4831H102.02L102.384 82.3796Z" fill="#335EF7"/>
<path d="M100.753 91.742H76.3703C76.3597 91.7448 76.3485 91.7448 76.3379 91.742C76.3343 91.7315 76.3343 91.7202 76.3379 91.7097L76.6979 83.6026C76.6979 83.5971 76.699 83.5917 76.7012 83.5866C76.7034 83.5816 76.7066 83.577 76.7107 83.5733C76.7148 83.5696 76.7196 83.5667 76.7248 83.565C76.73 83.5632 76.7356 83.5626 76.7411 83.5631H101.124C101.128 83.5608 101.133 83.5597 101.138 83.5597C101.143 83.5597 101.148 83.5608 101.153 83.5631C101.155 83.5674 101.157 83.5724 101.157 83.5775C101.157 83.5825 101.155 83.5875 101.153 83.5918L100.8 91.7169C100.796 91.7253 100.789 91.7322 100.78 91.7367C100.772 91.7412 100.763 91.7431 100.753 91.742ZM76.4135 91.6557H100.71L101.07 83.635H76.7735L76.4135 91.6557Z" fill="white"/>
<path d="M89.2727 61.551H72.9935L72.8604 64.5795H89.136L89.2727 61.551Z" fill="#335EF7"/>
<path d="M101.919 26.3932C101.826 28.3611 101.126 30.252 99.9142 31.8063C99.0172 32.9803 97.863 33.9334 96.54 34.5924C95.217 35.2514 93.7605 35.5989 92.2822 35.608C91.0876 35.6171 89.9038 35.3818 88.8037 34.9165C87.7036 34.4512 86.7105 33.7658 85.8855 32.9025C85.0606 32.0392 84.4213 31.0163 84.007 29.8968C83.5927 28.7774 83.4122 27.585 83.4766 26.3932C83.6032 23.9201 84.6707 21.5887 86.4607 19.8759C88.2507 18.163 90.6281 17.1981 93.1066 17.1784C94.3021 17.1672 95.4872 17.4011 96.5886 17.8656C97.6901 18.3301 98.6845 19.0154 99.5104 19.879C100.336 20.7426 100.976 21.7662 101.391 22.8867C101.805 24.0071 101.985 25.2005 101.919 26.3932Z" fill="white"/>
<path d="M102.787 19.1059C102.764 19.6292 102.577 20.1321 102.254 20.5446C102.015 20.8564 101.708 21.1096 101.356 21.2847C101.004 21.4599 100.617 21.5524 100.224 21.5553C99.843 21.5576 99.4674 21.4667 99.1298 21.2905C98.7922 21.1143 98.5028 20.8582 98.2871 20.5446C98.0015 20.1208 97.8601 19.6163 97.8839 19.1059C97.9187 18.4493 98.2029 17.8307 98.6786 17.3762C99.1542 16.9217 99.7854 16.6656 100.444 16.6601C100.761 16.6572 101.076 16.7193 101.368 16.8426C101.661 16.9658 101.925 17.1476 102.145 17.3767C102.364 17.6059 102.534 17.8775 102.645 18.1749C102.755 18.4723 102.804 18.7891 102.787 19.1059Z" fill="#335EF7"/>
<path d="M77.4972 51.617C77.4799 51.9069 77.3533 52.1794 77.1428 52.3796C76.9324 52.5798 76.6538 52.6929 76.3632 52.696C76.2229 52.6977 76.0837 52.6706 75.9543 52.6164C75.8249 52.5622 75.708 52.4821 75.6108 52.3809C75.5136 52.2798 75.4383 52.1598 75.3893 52.0284C75.3404 51.897 75.319 51.757 75.3264 51.617C75.342 51.3266 75.4681 51.0531 75.6789 50.8525C75.8897 50.6519 76.1693 50.5394 76.4604 50.538C76.6005 50.5369 76.7395 50.5643 76.8686 50.6187C76.9978 50.6731 77.1145 50.7532 77.2116 50.8542C77.3086 50.9553 77.384 51.075 77.4331 51.2062C77.4823 51.3374 77.504 51.4771 77.4972 51.617Z" fill="#263238"/>
<path d="M82.35 51.6171C82.3336 51.9072 82.2072 52.1802 81.9966 52.3806C81.786 52.581 81.5069 52.6938 81.216 52.6961C81.076 52.6973 80.9372 52.6698 80.8083 52.6154C80.6793 52.5609 80.5628 52.4807 80.466 52.3797C80.3692 52.2786 80.2942 52.1588 80.2455 52.0276C80.1968 51.8965 80.1754 51.7567 80.1828 51.6171C80.1984 51.3272 80.324 51.0543 80.534 50.8538C80.7441 50.6533 81.0227 50.5404 81.3132 50.538C81.4535 50.5364 81.5927 50.5635 81.7221 50.6177C81.8515 50.6719 81.9684 50.752 82.0656 50.8531C82.1628 50.9543 82.2381 51.0742 82.2871 51.2056C82.336 51.337 82.3574 51.4771 82.35 51.6171Z" fill="#263238"/>
<path d="M87.2062 51.6171C87.1898 51.9072 87.0634 52.1802 86.8528 52.3806C86.6421 52.581 86.3631 52.6938 86.0722 52.6961C85.9321 52.6972 85.7931 52.6698 85.664 52.6154C85.5348 52.561 85.4181 52.4809 85.321 52.3798C85.224 52.2788 85.1486 52.1591 85.0995 52.0279C85.0503 51.8967 85.0285 51.7569 85.0354 51.6171C85.0519 51.3269 85.1782 51.0539 85.3889 50.8535C85.5995 50.6531 85.8786 50.5403 86.1694 50.538C86.3097 50.5364 86.4489 50.5635 86.5783 50.6177C86.7077 50.6719 86.8246 50.752 86.9218 50.8531C87.019 50.9543 87.0943 51.0742 87.1433 51.2056C87.1922 51.337 87.2136 51.4771 87.2062 51.6171Z" fill="#263238"/>
<path d="M76.6798 69.8667C76.6626 70.1565 76.5359 70.429 76.3255 70.6292C76.115 70.8295 75.8364 70.9425 75.5459 70.9457C75.4057 70.9468 75.2668 70.9194 75.1376 70.865C75.0084 70.8106 74.8917 70.7304 74.7947 70.6294C74.6976 70.5284 74.6222 70.4086 74.5731 70.2775C74.524 70.1463 74.5022 70.0065 74.509 69.8667C74.5255 69.5765 74.6519 69.3035 74.8625 69.1031C75.0731 68.9027 75.3522 68.7899 75.643 68.7876C75.7832 68.7865 75.9221 68.8139 76.0513 68.8683C76.1805 68.9227 76.2972 69.0029 76.3942 69.1039C76.4913 69.2049 76.5667 69.3247 76.6158 69.4558C76.6649 69.587 76.6867 69.7268 76.6798 69.8667Z" fill="#263238"/>
<path d="M81.5326 69.8667C81.5162 70.1562 81.3904 70.4286 81.1805 70.629C80.9706 70.8293 80.6925 70.9425 80.4022 70.9457C80.2619 70.9473 80.1228 70.9202 79.9934 70.866C79.8639 70.8118 79.747 70.7317 79.6499 70.6306C79.5527 70.5294 79.4773 70.4095 79.4284 70.2781C79.3795 70.1467 79.358 70.0067 79.3654 69.8667C79.3819 69.5765 79.5083 69.3035 79.7189 69.1031C79.9295 68.9027 80.2086 68.7899 80.4994 68.7876C80.6394 68.7865 80.7782 68.8139 80.9072 68.8683C81.0362 68.9228 81.1526 69.003 81.2494 69.1041C81.3462 69.2051 81.4213 69.3249 81.47 69.4561C81.5187 69.5872 81.54 69.727 81.5326 69.8667Z" fill="#263238"/>
<path d="M86.3999 69.8667C86.3834 70.1568 86.2571 70.4298 86.0464 70.6302C85.8358 70.8306 85.5567 70.9434 85.2659 70.9457C85.1259 70.9463 84.9872 70.9185 84.8583 70.864C84.7293 70.8094 84.6129 70.7292 84.5159 70.6283C84.4189 70.5274 84.3435 70.4079 84.2942 70.2769C84.2449 70.146 84.2227 70.0064 84.2291 69.8667C84.2464 69.5769 84.373 69.3044 84.5835 69.1041C84.7939 68.9039 85.0725 68.7908 85.3631 68.7877C85.5034 68.786 85.6426 68.8131 85.772 68.8673C85.9014 68.9215 86.0183 69.0016 86.1155 69.1028C86.2126 69.2039 86.288 69.3239 86.3369 69.4553C86.3859 69.5867 86.4073 69.7267 86.3999 69.8667Z" fill="#263238"/>
<path d="M91.2456 69.8667C91.2283 70.1565 91.1017 70.429 90.8912 70.6292C90.6808 70.8295 90.4022 70.9425 90.1116 70.9457C89.9716 70.9463 89.8329 70.9185 89.704 70.8639C89.575 70.8094 89.4586 70.7292 89.3616 70.6283C89.2646 70.5274 89.1892 70.4078 89.1399 70.2769C89.0906 70.146 89.0684 70.0064 89.0748 69.8667C89.0921 69.5768 89.2187 69.3043 89.4292 69.1041C89.6396 68.9038 89.9182 68.7908 90.2088 68.7876C90.349 68.7865 90.4879 68.8139 90.617 68.8683C90.7462 68.9227 90.8629 69.0029 90.96 69.1039C91.057 69.2049 91.1324 69.3247 91.1816 69.4558C91.2307 69.587 91.2525 69.7268 91.2456 69.8667Z" fill="#263238"/>
<path d="M96.12 69.8667C96.1027 70.1565 95.9761 70.429 95.7656 70.6292C95.5552 70.8295 95.2766 70.9425 94.986 70.9457C94.8457 70.9473 94.7065 70.9202 94.5771 70.866C94.4477 70.8118 94.3308 70.7317 94.2336 70.6306C94.1364 70.5294 94.0611 70.4095 94.0121 70.2781C93.9632 70.1467 93.9418 70.0066 93.9492 69.8667C93.9656 69.5765 94.092 69.3035 94.3026 69.1031C94.5133 68.9027 94.7923 68.7899 95.0832 68.7876C95.2233 68.7865 95.3623 68.8139 95.4914 68.8683C95.6206 68.9227 95.7373 69.0029 95.8344 69.1039C95.9314 69.2049 96.0068 69.3247 96.0559 69.4558C96.1051 69.587 96.1268 69.7268 96.12 69.8667Z" fill="#263238"/>
<path d="M95.3831 25.913C96.8899 24.4408 96.9699 22.0811 95.5617 20.6424C94.1535 19.2037 91.7905 19.2309 90.2837 20.7031C88.7769 22.1752 88.697 24.5349 90.1051 25.9736C91.5133 27.4123 93.8763 27.3851 95.3831 25.913Z" fill="#335EF7"/>
<path d="M99.9142 31.8061C99.0173 32.9801 97.863 33.9332 96.54 34.5922C95.217 35.2513 93.7605 35.5987 92.2822 35.6078C90.8488 35.62 89.4343 35.2796 88.1636 34.6166C86.8929 33.9536 85.805 32.9884 84.9958 31.8061C86.7454 30.0653 89.5139 28.9287 92.5811 28.9287C95.6483 28.9287 98.3195 30.0653 99.9142 31.8061Z" fill="#335EF7"/>
<path opacity="0.1" d="M95.3831 25.913C96.8899 24.4408 96.9699 22.0811 95.5617 20.6424C94.1535 19.2037 91.7905 19.2309 90.2837 20.7031C88.7769 22.1752 88.697 24.5349 90.1051 25.9736C91.5133 27.4123 93.8763 27.3851 95.3831 25.913Z" fill="white"/>
<path opacity="0.1" d="M99.9142 31.8061C99.0173 32.9801 97.863 33.9332 96.54 34.5922C95.217 35.2513 93.7605 35.5987 92.2822 35.6078C90.8488 35.62 89.4343 35.2796 88.1636 34.6166C86.8929 33.9536 85.805 32.9884 84.9958 31.8061C86.7454 30.0653 89.5139 28.9287 92.5811 28.9287C95.6483 28.9287 98.3195 30.0653 99.9142 31.8061Z" fill="white"/>
<path d="M46.9475 56.627C46.6055 57.3752 46.2455 58.1988 45.9323 58.9973C45.6191 59.7958 45.2987 60.6194 45.0215 61.4395C44.4555 63.0556 44.0244 64.7158 43.7327 66.403L43.6535 66.9317C43.6459 67.0224 43.6544 67.1137 43.6787 67.2014C43.7636 67.4995 43.8974 67.7815 44.0747 68.0359C44.537 68.6944 45.0733 69.2977 45.6731 69.8343C46.3054 70.4219 46.9688 70.9754 47.6603 71.4923C48.3515 72.0247 49.0787 72.5426 49.7951 73.0317L49.1219 74.2942C47.4112 73.5495 45.7875 72.6196 44.2799 71.5211C43.4755 70.9351 42.7496 70.2485 42.1199 69.4782C41.7466 69.0196 41.4555 68.5 41.2595 67.9424C41.1455 67.594 41.0872 67.2299 41.0867 66.8633C41.0867 66.777 41.0867 66.6511 41.0867 66.59V66.4138L41.1227 66.0541C41.3291 64.1802 41.7234 62.3318 42.2999 60.5367C42.5807 59.6519 42.8795 58.7707 43.2215 57.9111C43.5635 57.0515 43.9163 56.2098 44.3519 55.3358L46.9475 56.627Z" fill="#DF5753"/>
<path d="M49.2875 72.8086L51.8327 71.521L51.1739 74.3121C51.1739 74.3121 49.4279 74.8012 48.6179 73.9524L49.2875 72.8086Z" fill="#DF5753"/>
<path d="M54.1618 71.9778L53.485 74.2869L51.1738 74.3121L51.8326 71.521L54.1618 71.9778Z" fill="#DF5753"/>
<path d="M57.7548 43.1609C57.8909 43.6593 58.0804 44.1417 58.32 44.5996C58.25 44.6789 58.1598 44.7378 58.0591 44.7701C57.9583 44.8024 57.8507 44.8068 57.7476 44.783L57.7548 43.1609Z" fill="#DF5753"/>
<path d="M57.6792 43.1825C57.8283 43.1825 57.9492 42.9973 57.9492 42.7689C57.9492 42.5404 57.8283 42.3552 57.6792 42.3552C57.5301 42.3552 57.4092 42.5404 57.4092 42.7689C57.4092 42.9973 57.5301 43.1825 57.6792 43.1825Z" fill="#263238"/>
<path d="M57.5999 42.3696L58.1471 42.215C58.1471 42.215 57.8807 42.6394 57.5999 42.3696Z" fill="#263238"/>
<path d="M50.724 45.8008C51.0516 47.4733 51.3792 50.5413 50.2056 51.6599C50.2056 51.6599 50.6664 53.3575 53.7804 53.3575C57.204 53.3575 55.4148 51.6599 55.4148 51.6599C53.5464 51.2139 53.5932 49.8291 53.9208 48.5271L50.724 45.8008Z" fill="#DF5753"/>
<path d="M49.8133 41.9883C49.9861 44.7829 50.0005 45.9699 51.4117 47.4049C53.5393 49.563 56.9377 48.7429 57.6037 45.9663C58.2049 43.4485 57.8233 39.3051 55.0837 38.1937C54.4823 37.9462 53.8277 37.8561 53.1817 37.9318C52.5358 38.0075 51.9199 38.2467 51.3922 38.6266C50.8646 39.0065 50.4426 39.5146 50.1663 40.1028C49.89 40.6911 49.7685 41.34 49.8133 41.9883Z" fill="#DF5753"/>
<path d="M50.0903 38.8447C48.6863 39.3555 46.8143 38.9742 47.5487 43.3011C48.3263 47.8833 47.1311 49.3903 47.1311 49.3903C47.1311 49.3903 52.4555 50.5233 57.8915 49.322C57.8915 49.322 56.2319 46.423 56.6963 44.2866C57.2903 41.589 56.8223 40.5927 56.8223 40.5927C56.8223 40.5927 52.0631 38.1254 50.0903 38.8447Z" fill="#263238"/>
<path d="M56.0303 43.445C56.0317 43.9764 56.184 44.4964 56.4695 44.9448C56.8511 45.5275 57.3011 45.3045 57.4127 44.6859C57.5135 44.1427 57.4379 43.1824 56.9519 42.8084C56.4659 42.4343 56.0375 42.8012 56.0303 43.445Z" fill="#DF5753"/>
<path d="M48.8699 39.3158C48.4667 38.1828 50.3891 36.4384 54.4571 37.1577C58.5251 37.8771 58.7015 41.2616 58.7015 41.2616L57.8807 40.2833L57.9167 41.3119L53.7371 42.114L48.8699 39.3158Z" fill="#263238"/>
<path d="M49.2157 51.8504C49.1917 51.6862 49.2328 51.5191 49.3303 51.3847C49.4278 51.2504 49.574 51.1593 49.7377 51.1311C51.0049 50.9225 53.8849 50.4981 55.3321 50.6995C56.4121 50.8505 56.6929 51.4764 56.7397 51.9907C56.747 52.0808 56.7349 52.1713 56.7043 52.2564C56.6737 52.3414 56.6252 52.4189 56.5621 52.4836C56.499 52.5483 56.4228 52.5988 56.3385 52.6317C56.2543 52.6645 56.164 52.679 56.0737 52.6741L49.8169 52.3935C49.6694 52.3861 49.529 52.328 49.4194 52.229C49.3099 52.13 49.2379 51.9963 49.2157 51.8504Z" fill="#335EF7"/>
<path opacity="0.6" d="M49.2157 51.8504C49.1917 51.6862 49.2328 51.5191 49.3303 51.3847C49.4278 51.2504 49.574 51.1593 49.7377 51.1311C51.0049 50.9225 53.8849 50.4981 55.3321 50.6995C56.4121 50.8505 56.6929 51.4764 56.7397 51.9907C56.747 52.0808 56.7349 52.1713 56.7043 52.2564C56.6737 52.3414 56.6252 52.4189 56.5621 52.4836C56.499 52.5483 56.4228 52.5988 56.3385 52.6317C56.2543 52.6645 56.164 52.679 56.0737 52.6741L49.8169 52.3935C49.6694 52.3861 49.529 52.328 49.4194 52.229C49.3099 52.13 49.2379 51.9963 49.2157 51.8504Z" fill="#DF5753"/>
<path d="M52.8335 114.685L55.1555 116.297L59.0399 111.035L56.7179 109.427L52.8335 114.685Z" fill="#DF5753"/>
<path d="M47.4192 114.581L49.8708 115.977L53.3088 110.412L50.8572 109.017L47.4192 114.581Z" fill="#DF5753"/>
<path d="M59.0365 111.035L57.0349 113.747L54.7129 112.139L56.7145 109.427L59.0365 111.035Z" fill="#DF5753"/>
<path d="M50.8535 109.017L53.3087 110.416L51.5375 113.283L49.0823 111.883L50.8535 109.017Z" fill="#DF5753"/>
<path d="M54.7919 69.417C54.7919 69.417 63.8567 80.8294 62.1539 91.7455C60.7823 100.561 52.8263 112.499 52.8263 112.499L49.0859 110.643C51.7224 105.365 53.9723 99.9025 55.8179 94.2992C56.3871 92.5596 56.5532 90.7135 56.3037 88.9004C56.0543 87.0872 55.3958 85.3544 54.3779 83.8327C49.7843 77.132 42.4259 81.1208 47.3759 69.417H54.7919Z" fill="#335EF7"/>
<path opacity="0.6" d="M54.7919 69.417C54.7919 69.417 63.8567 80.8294 62.1539 91.7455C60.7823 100.561 52.8263 112.499 52.8263 112.499L49.0859 110.643C51.7224 105.365 53.9723 99.9025 55.8179 94.2992C56.3871 92.5596 56.5532 90.7135 56.3037 88.9004C56.0543 87.0872 55.3958 85.3544 54.3779 83.8327C49.7843 77.132 42.4259 81.1208 47.3759 69.417H54.7919Z" fill="#8898EA"/>
<path opacity="0.4" d="M59.238 76.7471L57.9204 75.4379C57.9204 75.5422 60.4728 91.2851 61.1892 95.7091C61.612 94.4167 61.9357 93.0941 62.1576 91.7527C63 86.3971 61.2396 80.9265 59.238 76.7471Z" fill="#8898EA"/>
<path d="M58.8384 69.417C58.8384 69.417 69.7536 83.7608 70.0632 92.3606C70.3188 99.554 58.1832 113.491 58.1832 113.491L54.6552 111.211C54.6552 111.211 61.758 101.313 63.5472 93.2274C62.856 85.2139 48.24 69.417 48.24 69.417H58.8384Z" fill="#335EF7"/>
<path opacity="0.6" d="M58.8384 69.417C58.8384 69.417 69.7536 83.7608 70.0632 92.3606C70.3188 99.554 58.1832 113.491 58.1832 113.491L54.6552 111.211C54.6552 111.211 61.758 101.313 63.5472 93.2274C62.856 85.2139 48.24 69.417 48.24 69.417H58.8384Z" fill="#8898EA"/>
<path d="M45.3348 52.3002C44.1684 52.5772 43.0488 56.8141 43.0488 56.8141L47.61 59.857C47.61 59.857 49.1292 56.5048 48.5964 55.0373C48.0456 53.5087 46.8 51.9513 45.3348 52.3002Z" fill="#335EF7"/>
<path opacity="0.2" d="M46.2274 55.0299L45.9106 58.7238L47.6062 59.8603C48.0744 58.8072 48.4211 57.7043 48.6394 56.5729L46.2274 55.0299Z" fill="#DF5753"/>
<path d="M60.1883 52.3828C60.1883 52.3828 61.5347 52.8539 58.8383 69.4133H47.3687C47.5631 64.7376 47.5667 61.8602 45.3347 52.3C46.9407 51.9694 48.5686 51.7554 50.2055 51.6598C51.9397 51.5356 53.6805 51.5356 55.4147 51.6598C57.6539 51.8648 60.1883 52.3828 60.1883 52.3828Z" fill="#335EF7"/>
<path d="M61.3548 55.03C61.614 55.7494 61.8876 56.5227 62.1756 57.2672C62.4636 58.0117 62.7372 58.7778 63.0288 59.5331L63.9108 61.7919L64.134 62.3566L64.2492 62.6371L64.3032 62.7774C64.3032 62.8026 64.3032 62.8026 64.3032 62.799C64.2374 62.7063 64.1512 62.63 64.0512 62.576C63.9088 62.4922 63.7482 62.4441 63.5832 62.4357C63.4461 62.4314 63.3097 62.4572 63.1836 62.5112C63.018 62.5868 63.018 62.6191 63.0216 62.6155C63.0515 62.5916 63.0781 62.5638 63.1008 62.5328C63.3001 62.2714 63.4725 61.9907 63.6156 61.6948C63.7848 61.3639 63.9468 61.0114 64.1088 60.6553C64.4256 59.936 64.7172 59.1915 65.0088 58.4397C65.3004 57.688 65.5776 56.9291 65.8476 56.163L66.6684 53.8683L68.0544 54.228C67.7808 55.8681 67.428 57.465 67.0032 59.0907C66.798 59.9 66.5568 60.7021 66.2832 61.5113C66.1464 61.9178 65.9952 62.3206 65.8224 62.7342C65.6423 63.1832 65.4205 63.6142 65.16 64.0219C65.0642 64.1591 64.9583 64.2889 64.8432 64.4103C64.6593 64.6087 64.4362 64.7667 64.188 64.8743C63.9677 64.9688 63.7291 65.013 63.4896 65.0038C63.2212 64.9938 62.9599 64.9158 62.73 64.7772C62.4588 64.6081 62.2337 64.3745 62.0748 64.0974C62.0208 64.0039 61.974 63.9104 61.9416 63.842L61.8732 63.7054L61.7364 63.4248L61.4628 62.8673C61.1028 62.1192 60.7428 61.3639 60.4296 60.605C60.1164 59.8461 59.7852 59.0764 59.4756 58.3031C59.166 57.5298 58.8888 56.7565 58.626 55.922L61.3548 55.03Z" fill="#DF5753"/>
<path d="M60.1885 52.3829C61.5673 52.7102 63.1189 56.7817 63.1189 56.7817L59.0185 60.267C59.0185 60.267 56.3653 55.8286 56.9017 54.3647C57.4597 52.8397 58.3885 51.9549 60.1885 52.3829Z" fill="#335EF7"/>
<path d="M67.3202 52.5806L68.7602 51.3793L69.761 52.9367L69.023 54.2351C69.023 54.2351 67.8494 55.3141 66.8126 54.7638C66.648 54.3942 66.6085 53.9812 66.7001 53.5872C66.7917 53.1932 67.0094 52.8398 67.3202 52.5806Z" fill="#DF5753"/>
<path d="M71.3593 51.3829L71.2513 51.7749L68.9725 52.1562L68.7493 51.3793L71.3593 51.3829Z" fill="#DF5753"/>
<path d="M58.464 113.675L54.3528 111.021L55.0908 109.74L59.7096 112.578L58.464 113.675Z" fill="#335EF7"/>
<path d="M51.4801 115.79C51.1194 115.746 50.7728 115.623 50.4649 115.43C50.4522 115.426 50.4412 115.417 50.4334 115.406C50.4256 115.395 50.4214 115.382 50.4214 115.369C50.4214 115.355 50.4256 115.342 50.4334 115.331C50.4412 115.32 50.4522 115.312 50.4649 115.308C50.5765 115.272 51.5449 114.973 51.8257 115.203C51.8573 115.23 51.8812 115.264 51.8952 115.302C51.9091 115.341 51.9124 115.382 51.9049 115.423C51.8999 115.488 51.8784 115.55 51.8425 115.604C51.8066 115.658 51.7574 115.702 51.6997 115.732C51.6323 115.769 51.5569 115.789 51.4801 115.79ZM50.6701 115.394C51.1201 115.624 51.4801 115.707 51.6529 115.621C51.6905 115.6 51.7222 115.57 51.7449 115.533C51.7676 115.497 51.7805 115.455 51.7825 115.412C51.7825 115.354 51.7825 115.329 51.7501 115.315C51.5989 115.193 51.0589 115.286 50.6629 115.394H50.6701Z" fill="#263238"/>
<path d="M50.49 115.455C50.471 115.455 50.4529 115.447 50.4396 115.434C50.4342 115.424 50.4314 115.412 50.4314 115.401C50.4314 115.39 50.4342 115.379 50.4396 115.369C50.4396 115.336 50.6736 114.556 51.0408 114.38C51.0877 114.358 51.1386 114.347 51.1902 114.347C51.2417 114.347 51.2927 114.358 51.3396 114.38C51.3901 114.396 51.4339 114.428 51.4639 114.472C51.4939 114.515 51.5084 114.568 51.5052 114.621C51.48 114.944 50.8212 115.39 50.5188 115.466L50.49 115.455ZM51.1884 114.473C51.1533 114.474 51.119 114.483 51.0876 114.498C50.8644 114.606 50.6808 115.027 50.5908 115.282C50.9076 115.149 51.3432 114.797 51.3576 114.599C51.3576 114.567 51.3576 114.527 51.2748 114.491C51.2478 114.477 51.2186 114.467 51.1884 114.462V114.473Z" fill="#263238"/>
<path d="M56.6173 117.343C56.2105 117.343 55.6453 116.822 55.3357 116.502C55.3277 116.491 55.3235 116.478 55.3235 116.464C55.3235 116.451 55.3277 116.437 55.3357 116.426C55.3428 116.415 55.3529 116.405 55.3649 116.399C55.3769 116.393 55.3905 116.39 55.404 116.39C55.548 116.39 56.7972 116.577 56.9736 116.93C56.9923 116.961 57.0022 116.997 57.0022 117.034C57.0022 117.071 56.9923 117.107 56.9736 117.138C56.9472 117.193 56.9072 117.241 56.8575 117.276C56.8077 117.311 56.7499 117.333 56.6893 117.34L56.6173 117.343ZM55.5732 116.552C56.0268 116.991 56.4264 117.236 56.6532 117.207C56.693 117.202 56.7308 117.187 56.7634 117.164C56.7961 117.14 56.8225 117.11 56.8405 117.074C56.8485 117.061 56.8528 117.047 56.8528 117.032C56.8528 117.018 56.8485 117.003 56.8405 116.991C56.7469 116.797 56.0808 116.631 55.5732 116.552Z" fill="#263238"/>
<path d="M55.6128 116.534C55.532 116.536 55.4511 116.53 55.3716 116.516C55.3605 116.514 55.35 116.51 55.3411 116.503C55.3323 116.496 55.3254 116.487 55.3212 116.477C55.3158 116.466 55.313 116.454 55.313 116.442C55.313 116.431 55.3158 116.419 55.3212 116.408C55.3428 116.383 55.8288 115.797 56.2896 115.757C56.42 115.747 56.5492 115.788 56.6496 115.872C56.79 115.995 56.7828 116.103 56.7468 116.171C56.6568 116.415 56.034 116.534 55.6128 116.534ZM55.5192 116.401C55.9224 116.423 56.5668 116.29 56.6496 116.113C56.6496 116.113 56.6784 116.056 56.5848 115.977C56.5475 115.944 56.504 115.92 56.4569 115.905C56.4099 115.89 56.3603 115.885 56.3112 115.89C56.0008 115.977 55.7244 116.156 55.5192 116.405V116.401Z" fill="#263238"/>
<path d="M50.5872 115.067L47.5344 114.204C47.4817 114.188 47.4251 114.192 47.3753 114.215C47.3254 114.238 47.2859 114.279 47.2644 114.329L46.2348 116.642C46.2106 116.701 46.1992 116.765 46.2014 116.829C46.2037 116.893 46.2194 116.956 46.2476 117.013C46.2758 117.07 46.3159 117.121 46.3652 117.162C46.4145 117.203 46.4719 117.233 46.5336 117.25C47.6136 117.531 48.132 117.61 49.4748 117.995C50.3028 118.225 51.4836 118.653 52.6248 118.976C53.766 119.3 54.1476 118.189 53.7048 117.951C51.7032 116.894 51.5448 116.153 50.9976 115.362C50.8996 115.218 50.7543 115.114 50.5872 115.067Z" fill="#335EF7"/>
<path d="M55.4183 116.081L52.8119 114.283C52.7677 114.25 52.7132 114.236 52.6588 114.241C52.6044 114.246 52.5538 114.271 52.5167 114.311L50.7887 116.167C50.7466 116.215 50.7152 116.272 50.6965 116.333C50.6779 116.394 50.6725 116.458 50.6807 116.521C50.6889 116.585 50.7104 116.645 50.744 116.7C50.7775 116.754 50.8222 116.801 50.8751 116.836C51.7931 117.451 52.2683 117.7 53.4167 118.494C54.1367 118.984 55.5299 120.07 56.5019 120.746C57.4739 121.422 58.1975 120.494 57.8519 120.127C56.3039 118.476 55.9655 117.441 55.7099 116.502C55.6655 116.332 55.5622 116.182 55.4183 116.081Z" fill="#335EF7"/>
<path d="M53.3052 112.736L48.6072 110.402L49.0932 109.129L54.1116 111.589L53.3052 112.736Z" fill="#335EF7"/>
<path d="M47.1959 68.7407L46.7999 69.7765C46.7603 69.8557 46.8539 69.9384 46.9871 69.9384H58.8959C59.0003 69.9384 59.0867 69.888 59.0939 69.8233L59.1947 68.7946C59.1947 68.7263 59.1119 68.6651 59.0003 68.6651H47.3831C47.3482 68.6619 47.3129 68.667 47.2803 68.6801C47.2478 68.6933 47.2188 68.714 47.1959 68.7407Z" fill="#335EF7"/>
<path opacity="0.4" d="M47.1959 68.7407L46.7999 69.7765C46.7603 69.8557 46.8539 69.9384 46.9871 69.9384H58.8959C59.0003 69.9384 59.0867 69.888 59.0939 69.8233L59.1947 68.7946C59.1947 68.7263 59.1119 68.6651 59.0003 68.6651H47.3831C47.3482 68.6619 47.3129 68.667 47.2803 68.6801C47.2478 68.6933 47.2188 68.714 47.1959 68.7407Z" fill="white"/>
<path d="M49.0716 70.0392H48.7584C48.6972 70.0392 48.6504 70.0069 48.654 69.9673L48.8016 68.6329C48.8016 68.5969 48.8592 68.5646 48.9204 68.5646H49.2336C49.2948 68.5646 49.3416 68.5969 49.338 68.6329L49.1904 69.9673C49.1868 70.0069 49.1328 70.0392 49.0716 70.0392Z" fill="#335EF7"/>
<path d="M56.4157 70.0392H56.1061C56.0449 70.0392 55.9981 70.0069 56.0017 69.9673L56.1457 68.6329C56.1457 68.5969 56.2069 68.5646 56.2681 68.5646H56.5777C56.6389 68.5646 56.6893 68.5969 56.6821 68.6329L56.5381 69.9673C56.5201 70.0069 56.4805 70.0392 56.4157 70.0392Z" fill="#335EF7"/>
<g style="mix-blend-mode:multiply">
<path d="M48.798 130.95C54.1244 130.95 58.4424 130.638 58.4424 130.252C58.4424 129.867 54.1244 129.554 48.798 129.554C43.4715 129.554 39.1536 129.867 39.1536 130.252C39.1536 130.638 43.4715 130.95 48.798 130.95Z" fill="#CF6F64"/>
</g>
<path d="M54.6733 129.267C52.9669 128.77 51.0733 128.134 49.9285 127.468C49.8961 127.447 49.8601 127.436 49.8277 127.418V119.699H53.2801C53.5422 119.684 53.7884 119.569 53.9685 119.378C54.1485 119.187 54.2488 118.935 54.2488 118.672C54.2488 118.41 54.1485 118.158 53.9685 117.967C53.7884 117.776 53.5422 117.661 53.2801 117.646H49.8457V82.4623H47.7721V117.646H44.3413C44.2012 117.637 44.0609 117.658 43.929 117.706C43.7971 117.753 43.6764 117.828 43.5742 117.924C43.4721 118.02 43.3908 118.136 43.3351 118.265C43.2795 118.393 43.2508 118.532 43.2508 118.672C43.2508 118.813 43.2795 118.951 43.3351 119.08C43.3908 119.209 43.4721 119.325 43.5742 119.421C43.6764 119.517 43.7971 119.591 43.929 119.639C44.0609 119.687 44.2012 119.708 44.3413 119.699H47.7721V127.407C47.7397 127.407 47.7073 127.436 47.6749 127.457C46.5121 128.134 44.6329 128.77 42.9265 129.256C42.8112 129.291 42.7122 129.366 42.6475 129.467C42.5827 129.568 42.5564 129.69 42.5734 129.809C42.5904 129.928 42.6495 130.037 42.74 130.116C42.8305 130.196 42.9465 130.24 43.0669 130.241H54.5329C54.648 130.233 54.7569 130.186 54.8414 130.108C54.926 130.03 54.9811 129.925 54.9975 129.811C55.0139 129.697 54.9907 129.58 54.9317 129.481C54.8727 129.382 54.7815 129.307 54.6733 129.267Z" fill="#8898EA"/>
<path d="M55.2025 78.88H42.4009C41.371 78.88 40.5361 79.7141 40.5361 80.7431V84.5449C40.5361 85.5738 41.371 86.408 42.4009 86.408H55.2025C56.2324 86.408 57.0673 85.5738 57.0673 84.5449V80.7431C57.0673 79.7141 56.2324 78.88 55.2025 78.88Z" fill="#335EF7"/>
<path d="M42.282 86.4115V87.0661C42.282 87.6056 42.8688 88.0444 43.5888 88.0444H54.0288C54.7488 88.0444 55.3356 87.6056 55.3356 87.0661V86.4115H42.282Z" fill="#335EF7"/>
<path opacity="0.3" d="M42.282 86.4115V87.0661C42.282 87.6056 42.8688 88.0444 43.5888 88.0444H54.0288C54.7488 88.0444 55.3356 87.6056 55.3356 87.0661V86.4115H42.282Z" fill="white"/>
</svg>
