<svg width="242" height="184" viewBox="0 0 242 184" fill="none" xmlns="http://www.w3.org/2000/svg">
<path d="M242 162.191H0V162.312H242V162.191Z" fill="#E0E0E0"/>
<path d="M183.596 166.644H166.946V166.765H183.596V166.644Z" fill="#E0E0E0"/>
<path d="M203.183 166.301H193.812V166.422H203.183V166.301Z" fill="#E0E0E0"/>
<path d="M119.712 166.586H107.283V166.707H119.712V166.586Z" fill="#E0E0E0"/>
<path d="M128.691 168.3H120.201V168.421H128.691V168.3Z" fill="#E0E0E0"/>
<path d="M70.0202 165.364H44.373V165.485H70.0202V165.364Z" fill="#E0E0E0"/>
<path d="M114.708 140.653H21.2525C20.5203 140.651 19.8186 140.36 19.3014 139.843C18.7842 139.326 18.4937 138.626 18.4937 137.895V6.81418C18.5 6.08787 18.7933 5.3934 19.3099 4.88161C19.8264 4.36982 20.5245 4.08205 21.2525 4.08081H114.708C115.441 4.08081 116.144 4.37133 116.662 4.88847C117.18 5.4056 117.472 6.10699 117.472 6.83832V137.895C117.472 138.626 117.18 139.328 116.662 139.845C116.144 140.362 115.441 140.653 114.708 140.653ZM21.2525 4.1774C20.5524 4.17868 19.8815 4.45704 19.387 4.9514C18.8924 5.44575 18.6147 6.1157 18.6147 6.81418V137.895C18.6147 138.594 18.8924 139.263 19.387 139.758C19.8815 140.252 20.5524 140.531 21.2525 140.532H114.708C115.409 140.531 116.08 140.252 116.575 139.758C117.071 139.264 117.349 138.594 117.351 137.895V6.81418C117.349 6.11525 117.071 5.44532 116.575 4.9511C116.08 4.45689 115.409 4.17867 114.708 4.1774H21.2525Z" fill="#E0E0E0"/>
<path d="M219.402 140.653H125.941C125.209 140.651 124.507 140.36 123.989 139.844C123.471 139.327 123.179 138.626 123.178 137.895V6.81418C123.185 6.08743 123.48 5.39296 123.997 4.88131C124.514 4.36965 125.213 4.08204 125.941 4.08081H219.402C220.129 4.08332 220.826 4.37165 221.341 4.8833C221.857 5.39495 222.149 6.0887 222.156 6.81418V137.895C222.156 138.625 221.866 139.325 221.35 139.842C220.834 140.358 220.133 140.65 219.402 140.653ZM125.941 4.1774C125.241 4.17867 124.569 4.45689 124.074 4.9511C123.579 5.44532 123.3 6.11525 123.299 6.81418V137.895C123.3 138.594 123.579 139.264 124.074 139.758C124.569 140.252 125.241 140.531 125.941 140.532H219.402C220.102 140.531 220.774 140.252 221.269 139.758C221.764 139.264 222.043 138.594 222.044 137.895V6.81418C222.043 6.11525 221.764 5.44532 221.269 4.9511C220.774 4.45689 220.102 4.17867 219.402 4.1774H125.941Z" fill="#E0E0E0"/>
<path d="M210.071 15.8013H137.132V78.3693H210.071V15.8013Z" fill="#E0E0E0"/>
<path d="M211.692 15.8013H138.753V78.3693H211.692V15.8013Z" fill="#F0F0F0"/>
<path d="M208.783 75.4332V18.7375L141.662 18.7375V75.4332H208.783Z" fill="#FAFAFA"/>
<path d="M187.332 75.4332V18.7375H182.947V75.4332H187.332Z" fill="#E0E0E0"/>
<path d="M164.265 75.4332V18.7375H159.88V75.4332H164.265Z" fill="#E0E0E0"/>
<path d="M188.876 77.2924V16.5498H184.491V77.2924H188.876Z" fill="#F0F0F0"/>
<path d="M165.804 77.2973V16.5547H161.419V77.2973H165.804Z" fill="#F0F0F0"/>
<path d="M208.783 75.4286V18.7329H207.559V75.4286H208.783Z" fill="#E0E0E0"/>
<path d="M85.8326 65.2145C85.8326 65.2145 76.9561 49.9589 89.2739 37.7939C89.2739 37.7939 92.4876 39.885 92.4392 42.6957C92.3908 45.5063 88.9932 46.2162 89.724 48.5632C90.4548 50.9102 93.6541 53.2042 91.5535 55.1455C89.453 57.0869 91.8923 58.8061 91.752 61.1821C91.6116 63.5581 85.8326 65.2145 85.8326 65.2145Z" fill="#E0E0E0"/>
<path d="M87.2266 67.7113C87.2266 67.7113 90.8276 50.4322 75.3009 42.7729C75.3009 42.7729 72.9099 45.7671 73.8489 48.4184C74.7878 51.0696 78.2291 50.6736 78.2775 53.1317C78.3259 55.5898 76.0172 58.7772 78.6211 59.9555C81.225 61.1338 79.4584 63.5388 80.3442 65.7506C81.2299 67.9624 87.2266 67.7113 87.2266 67.7113Z" fill="#E6E6E6"/>
<path d="M79.3228 63.3215C79.3228 63.3215 79.4776 78.2392 85.455 78.2392C91.4324 78.2392 91.5825 63.3215 91.5825 63.3215H79.3228Z" fill="#F0F0F0"/>
<path d="M43.4102 72.6274C43.4102 72.6274 43.7441 78.2391 56.5072 78.2391C69.2703 78.2391 69.6091 72.6274 69.6091 72.6274H43.4102Z" fill="#E6E6E6"/>
<path d="M177.967 106.461H171.23C170.39 106.461 169.71 107.14 169.71 107.978V119.095C169.71 119.932 170.39 120.611 171.23 120.611H177.967C178.806 120.611 179.487 119.932 179.487 119.095V107.978C179.487 107.14 178.806 106.461 177.967 106.461Z" fill="#F0F0F0"/>
<path d="M195.837 111.088H191.302C190.737 111.088 190.28 111.544 190.28 112.107V119.592C190.28 120.155 190.737 120.611 191.302 120.611H195.837C196.401 120.611 196.858 120.155 196.858 119.592V112.107C196.858 111.544 196.401 111.088 195.837 111.088Z" fill="#E6E6E6"/>
<path d="M196.514 110.166H190.624C190.434 110.166 190.28 110.319 190.28 110.508V110.895C190.28 111.084 190.434 111.238 190.624 111.238H196.514C196.704 111.238 196.858 111.084 196.858 110.895V110.508C196.858 110.319 196.704 110.166 196.514 110.166Z" fill="#F0F0F0"/>
<path d="M154.115 112.739C154.115 112.739 154.357 120.611 163.597 120.611C172.836 120.611 173.083 112.739 173.083 112.739H154.115Z" fill="#E6E6E6"/>
<path d="M131.135 102.342H145.118V99.5894H131.135V102.342Z" fill="#E0E0E0"/>
<path d="M214.635 99.5942H145.118V102.347H214.635V99.5942Z" fill="#F0F0F0"/>
<path d="M131.135 123.364H145.118V120.611H131.135V123.364Z" fill="#E0E0E0"/>
<path d="M214.635 120.611H145.118V123.364H214.635V120.611Z" fill="#F0F0F0"/>
<path d="M136.173 102.342H133.594V162.186H136.173V102.342Z" fill="#E0E0E0"/>
<path d="M147.698 102.342H145.118V162.186H147.698V102.342Z" fill="#F0F0F0"/>
<path d="M205.69 102.342H203.11V162.186H205.69V102.342Z" fill="#E0E0E0"/>
<path d="M214.634 102.342H212.055V162.186H214.634V102.342Z" fill="#F0F0F0"/>
<path d="M43.4099 81.7402H30.187V158.569H43.4099V81.7402Z" fill="#E6E6E6"/>
<path d="M97.9325 158.564H32.728V162.191H97.9325V158.564Z" fill="#E6E6E6"/>
<path d="M43.41 158.564H100.469L100.469 81.7353H43.41L43.41 158.564Z" fill="#F0F0F0"/>
<path d="M48.6081 129.536H95.2705V110.769H48.6081V129.536Z" fill="#E6E6E6"/>
<path d="M48.6081 151.721H95.2705V132.955H48.6081V151.721Z" fill="#E6E6E6"/>
<path d="M77.1786 112.826H66.7C66.359 112.825 66.0323 112.689 65.7911 112.449C65.5499 112.208 65.4139 111.882 65.4126 111.542C65.4126 111.201 65.5481 110.873 65.7894 110.632C66.0307 110.39 66.3581 110.254 66.7 110.252H77.1786C77.5205 110.254 77.848 110.39 78.0893 110.632C78.3306 110.873 78.4661 111.201 78.4661 111.542C78.4648 111.882 78.3288 112.208 78.0876 112.449C77.8464 112.689 77.5197 112.825 77.1786 112.826Z" fill="#F0F0F0"/>
<path d="M48.6081 107.345H95.2705V88.5784H48.6081V107.345Z" fill="#E6E6E6"/>
<path d="M77.1786 90.6407H66.7C66.3581 90.6394 66.0307 90.503 65.7894 90.2613C65.5481 90.0196 65.4126 89.6924 65.4126 89.3512C65.4139 89.0109 65.5499 88.6849 65.7911 88.4443C66.0323 88.2037 66.359 88.0679 66.7 88.0667H77.1786C77.5197 88.0679 77.8464 88.2037 78.0876 88.4443C78.3288 88.6849 78.4648 89.0109 78.4661 89.3512C78.4661 89.6924 78.3306 90.0196 78.0893 90.2613C77.848 90.503 77.5205 90.6394 77.1786 90.6407Z" fill="#F0F0F0"/>
<path d="M77.1786 135.012H66.7C66.359 135.011 66.0323 134.875 65.7911 134.634C65.5499 134.394 65.4139 134.068 65.4126 133.727C65.4126 133.386 65.5481 133.059 65.7894 132.817C66.0307 132.576 66.3581 132.439 66.7 132.438H77.1786C77.5205 132.439 77.848 132.576 78.0893 132.817C78.3306 133.059 78.4661 133.386 78.4661 133.727C78.4648 134.068 78.3288 134.394 78.0876 134.634C77.8464 134.875 77.5197 135.011 77.1786 135.012Z" fill="#F0F0F0"/>
<path d="M102.231 78.239H43.4102V81.7402H102.231V78.239Z" fill="#E6E6E6"/>
<path d="M28.3384 81.7356H43.4102V78.2344H28.3384V81.7356Z" fill="#E0E0E0"/>
<path d="M58.1477 18.7375H36.7549V42.1788H58.1477V18.7375Z" fill="#E6E6E6"/>
<path d="M60.4661 18.7375H38.3667V42.1788H60.4661V18.7375Z" fill="#F0F0F0"/>
<path d="M58.6123 40.3294V20.5825H40.2155V40.3294H58.6123Z" fill="#FAFAFA"/>
<path d="M54.1548 35.5434V25.3682H44.6781V35.5434H54.1548Z" fill="#F0F0F0"/>
<path d="M80.7022 11.8171H64.4785V29.2073H80.7022V11.8171Z" fill="#E6E6E6"/>
<path d="M82.4253 11.8171H66.0322V29.2073H82.4253V11.8171Z" fill="#F0F0F0"/>
<path d="M81.0508 27.8359V13.1887H67.4068V27.8359H81.0508Z" fill="#FAFAFA"/>
<path d="M74.2263 16.8059L70.4946 23.2578H77.9579L74.2263 16.8059Z" fill="#F0F0F0"/>
<path d="M121 184C172.828 184 214.843 181.552 214.843 178.533C214.843 175.514 172.828 173.066 121 173.066C69.1721 173.066 27.1572 175.514 27.1572 178.533C27.1572 181.552 69.1721 184 121 184Z" fill="#F5F5F5"/>
<path d="M203.183 47.9404H155.703C153.198 47.9404 151.168 49.9664 151.168 52.4655V65.3499C151.168 67.849 153.198 69.875 155.703 69.875H203.183C205.688 69.875 207.719 67.849 207.719 65.3499V52.4655C207.719 49.9664 205.688 47.9404 203.183 47.9404Z" fill="#407BFF"/>
<path d="M193.765 51.6394H156.676C156.237 51.6394 155.882 51.994 155.882 52.4314V53.3007C155.882 53.7381 156.237 54.0927 156.676 54.0927H193.765C194.203 54.0927 194.558 53.7381 194.558 53.3007V52.4314C194.558 51.994 194.203 51.6394 193.765 51.6394Z" fill="#407BFF"/>
<path d="M182.018 57.5505H156.676C156.237 57.5505 155.882 57.9051 155.882 58.3425V59.2118C155.882 59.6492 156.237 60.0038 156.676 60.0038H182.018C182.456 60.0038 182.812 59.6492 182.812 59.2118V58.3425C182.812 57.9051 182.456 57.5505 182.018 57.5505Z" fill="#407BFF"/>
<path d="M175.222 63.4617H156.676C156.237 63.4617 155.882 63.8163 155.882 64.2537V65.1229C155.882 65.5603 156.237 65.9149 156.676 65.9149H175.222C175.661 65.9149 176.016 65.5603 176.016 65.1229V64.2537C176.016 63.8163 175.661 63.4617 175.222 63.4617Z" fill="#407BFF"/>
<path d="M198.208 63.4617H179.661C179.223 63.4617 178.867 63.8163 178.867 64.2537V65.1229C178.867 65.5603 179.223 65.9149 179.661 65.9149H198.208C198.646 65.9149 199.002 65.5603 199.002 65.1229V64.2537C199.002 63.8163 198.646 63.4617 198.208 63.4617Z" fill="#407BFF"/>
<g opacity="0.5">
<path d="M193.765 51.6394H156.676C156.237 51.6394 155.882 51.994 155.882 52.4314V53.3007C155.882 53.7381 156.237 54.0927 156.676 54.0927H193.765C194.203 54.0927 194.558 53.7381 194.558 53.3007V52.4314C194.558 51.994 194.203 51.6394 193.765 51.6394Z" fill="white"/>
<path d="M182.018 57.5505H156.676C156.237 57.5505 155.882 57.9051 155.882 58.3425V59.2118C155.882 59.6492 156.237 60.0038 156.676 60.0038H182.018C182.456 60.0038 182.812 59.6492 182.812 59.2118V58.3425C182.812 57.9051 182.456 57.5505 182.018 57.5505Z" fill="white"/>
<path d="M175.222 63.4617H156.676C156.237 63.4617 155.882 63.8163 155.882 64.2537V65.1229C155.882 65.5603 156.237 65.9149 156.676 65.9149H175.222C175.661 65.9149 176.016 65.5603 176.016 65.1229V64.2537C176.016 63.8163 175.661 63.4617 175.222 63.4617Z" fill="white"/>
<path d="M198.208 63.4617H179.661C179.223 63.4617 178.867 63.8163 178.867 64.2537V65.1229C178.867 65.5603 179.223 65.9149 179.661 65.9149H198.208C198.646 65.9149 199.002 65.5603 199.002 65.1229V64.2537C199.002 63.8163 198.646 63.4617 198.208 63.4617Z" fill="white"/>
</g>
<path d="M165.151 42.8262H111.258C107.585 42.8262 104.607 45.797 104.607 49.4616V68.3537C104.607 72.0183 107.585 74.9891 111.258 74.9891H165.151C168.824 74.9891 171.801 72.0183 171.801 68.3537V49.4616C171.801 45.797 168.824 42.8262 165.151 42.8262Z" fill="#407BFF"/>
<path d="M167.058 48.2493H112.685C112.041 48.2493 111.519 48.7703 111.519 49.4131V50.6832C111.519 51.326 112.041 51.8471 112.685 51.8471H167.058C167.702 51.8471 168.224 51.326 168.224 50.6832V49.4131C168.224 48.7703 167.702 48.2493 167.058 48.2493Z" fill="#407BFF"/>
<path d="M149.832 56.918H112.685C112.041 56.918 111.519 57.439 111.519 58.0818V59.3519C111.519 59.9947 112.041 60.5158 112.685 60.5158H149.832C150.476 60.5158 150.998 59.9947 150.998 59.3519V58.0818C150.998 57.439 150.476 56.918 149.832 56.918Z" fill="#407BFF"/>
<path d="M139.871 65.5864H112.685C112.041 65.5864 111.519 66.1075 111.519 66.7503V68.0204C111.519 68.6632 112.041 69.1842 112.685 69.1842H139.871C140.515 69.1842 141.038 68.6632 141.038 68.0204V66.7503C141.038 66.1075 140.515 65.5864 139.871 65.5864Z" fill="#407BFF"/>
<path d="M169.037 65.5864H146.386C145.742 65.5864 145.22 66.1075 145.22 66.7503V68.0204C145.22 68.6632 145.742 69.1842 146.386 69.1842H169.037C169.682 69.1842 170.204 68.6632 170.204 68.0204V66.7503C170.204 66.1075 169.682 65.5864 169.037 65.5864Z" fill="#407BFF"/>
<g opacity="0.5">
<path d="M167.059 48.2493H112.686C112.042 48.2493 111.52 48.7703 111.52 49.4131V50.6832C111.52 51.326 112.042 51.8471 112.686 51.8471H167.059C167.703 51.8471 168.225 51.326 168.225 50.6832V49.4131C168.225 48.7703 167.703 48.2493 167.059 48.2493Z" fill="white"/>
<path d="M149.833 56.9177H112.686C112.042 56.9177 111.52 57.4388 111.52 58.0816V59.3517C111.52 59.9945 112.042 60.5155 112.686 60.5155H149.833C150.477 60.5155 150.999 59.9945 150.999 59.3517V58.0816C150.999 57.4388 150.477 56.9177 149.833 56.9177Z" fill="white"/>
<path d="M139.872 65.5864H112.686C112.042 65.5864 111.52 66.1075 111.52 66.7503V68.0204C111.52 68.6632 112.042 69.1842 112.686 69.1842H139.872C140.516 69.1842 141.039 68.6632 141.039 68.0204V66.7503C141.039 66.1075 140.516 65.5864 139.872 65.5864Z" fill="white"/>
<path d="M169.038 65.5864H146.387C145.743 65.5864 145.221 66.1075 145.221 66.7503V68.0204C145.221 68.6632 145.743 69.1842 146.387 69.1842H169.038C169.683 69.1842 170.205 68.6632 170.205 68.0204V66.7503C170.205 66.1075 169.683 65.5864 169.038 65.5864Z" fill="white"/>
</g>
<path d="M131.643 80.8181H105.686C103.97 80.8181 102.579 82.2062 102.579 83.9185V122.717C102.579 124.429 103.97 125.817 105.686 125.817H131.643C133.359 125.817 134.751 124.429 134.751 122.717V83.9185C134.751 82.2062 133.359 80.8181 131.643 80.8181Z" fill="#407BFF"/>
<path opacity="0.4" d="M131.643 80.8181H105.686C103.97 80.8181 102.579 82.2062 102.579 83.9185V122.717C102.579 124.429 103.97 125.817 105.686 125.817H131.643C133.359 125.817 134.751 124.429 134.751 122.717V83.9185C134.751 82.2062 133.359 80.8181 131.643 80.8181Z" fill="black"/>
<path d="M130.452 85.512H106.872C106.556 85.512 106.301 85.7671 106.301 86.0818V86.9366C106.301 87.2513 106.556 87.5065 106.872 87.5065H130.452C130.768 87.5065 131.023 87.2513 131.023 86.9366V86.0818C131.023 85.7671 130.768 85.512 130.452 85.512Z" fill="#FAFAFA"/>
<path d="M122.946 90.3123H106.872C106.556 90.3123 106.301 90.5674 106.301 90.8821V91.7369C106.301 92.0516 106.556 92.3067 106.872 92.3067H122.946C123.261 92.3067 123.517 92.0516 123.517 91.7369V90.8821C123.517 90.5674 123.261 90.3123 122.946 90.3123Z" fill="#FAFAFA"/>
<path d="M130.452 95.1174H106.872C106.556 95.1174 106.301 95.3726 106.301 95.6873V96.5421C106.301 96.8568 106.556 97.1119 106.872 97.1119H130.452C130.768 97.1119 131.023 96.8568 131.023 96.5421V95.6873C131.023 95.3726 130.768 95.1174 130.452 95.1174Z" fill="#FAFAFA"/>
<path d="M115.637 99.9177H106.872C106.556 99.9177 106.301 100.173 106.301 100.488V101.342C106.301 101.657 106.556 101.912 106.872 101.912H115.637C115.953 101.912 116.208 101.657 116.208 101.342V100.488C116.208 100.173 115.953 99.9177 115.637 99.9177Z" fill="#FAFAFA"/>
<path d="M127.902 99.9177H119.137C118.821 99.9177 118.565 100.173 118.565 100.488V101.342C118.565 101.657 118.821 101.912 119.137 101.912H127.902C128.217 101.912 128.473 101.657 128.473 101.342V100.488C128.473 100.173 128.217 99.9177 127.902 99.9177Z" fill="#FAFAFA"/>
<path d="M130.452 104.723H106.872C106.556 104.723 106.301 104.978 106.301 105.293V106.148C106.301 106.462 106.556 106.717 106.872 106.717H130.452C130.768 106.717 131.023 106.462 131.023 106.148V105.293C131.023 104.978 130.768 104.723 130.452 104.723Z" fill="#FAFAFA"/>
<path d="M130.452 109.523H106.872C106.556 109.523 106.301 109.778 106.301 110.093V110.948C106.301 111.262 106.556 111.517 106.872 111.517H130.452C130.768 111.517 131.023 111.262 131.023 110.948V110.093C131.023 109.778 130.768 109.523 130.452 109.523Z" fill="#FAFAFA"/>
<path d="M126.271 114.328H106.872C106.556 114.328 106.301 114.583 106.301 114.898V115.753C106.301 116.068 106.556 116.323 106.872 116.323H126.271C126.586 116.323 126.842 116.068 126.842 115.753V114.898C126.842 114.583 126.586 114.328 126.271 114.328Z" fill="#FAFAFA"/>
<path d="M115.923 119.129H106.872C106.556 119.129 106.301 119.384 106.301 119.699V120.553C106.301 120.868 106.556 121.123 106.872 121.123H115.923C116.238 121.123 116.494 120.868 116.494 120.553V119.699C116.494 119.384 116.238 119.129 115.923 119.129Z" fill="#FAFAFA"/>
<path d="M138.666 80.5427H102.661L118.58 93.1809L142.988 102.357V84.8456C142.985 83.7035 142.529 82.6091 141.719 81.8024C140.908 80.9958 139.811 80.5427 138.666 80.5427Z" fill="#407BFF"/>
<path opacity="0.4" d="M138.666 80.5427H102.661L118.58 93.1809L142.988 102.357V84.8456C142.985 83.7035 142.529 82.6091 141.719 81.8024C140.908 80.9958 139.811 80.5427 138.666 80.5427Z" fill="black"/>
<path d="M137.093 87.0527H110.749C110.353 87.0527 110.032 87.3727 110.032 87.7675V89.1003C110.032 89.4951 110.353 89.8151 110.749 89.8151H137.093C137.488 89.8151 137.809 89.4951 137.809 89.1003V87.7675C137.809 87.3727 137.488 87.0527 137.093 87.0527Z" fill="#FAFAFA"/>
<path d="M200.933 114.753V89.4865C200.933 87.5502 199.359 85.9805 197.419 85.9805H153.447C151.507 85.9805 149.934 87.5502 149.934 89.4865V114.753C149.934 116.69 151.507 118.259 153.447 118.259H197.419C199.359 118.259 200.933 116.69 200.933 114.753Z" fill="#407BFF"/>
<path d="M208.962 106.746V81.4794C208.962 79.5431 207.389 77.9734 205.448 77.9734H161.477C159.536 77.9734 157.963 79.5431 157.963 81.4794V106.746C157.963 108.683 159.536 110.252 161.477 110.252H205.448C207.389 110.252 208.962 108.683 208.962 106.746Z" fill="#407BFF"/>
<path opacity="0.5" d="M208.962 106.746V81.4794C208.962 79.5431 207.389 77.9734 205.448 77.9734H161.477C159.536 77.9734 157.963 79.5431 157.963 81.4794V106.746C157.963 108.683 159.536 110.252 161.477 110.252H205.448C207.389 110.252 208.962 108.683 208.962 106.746Z" fill="white"/>
<path d="M204.499 98.0874V82.5323C204.499 81.6708 203.799 80.9724 202.936 80.9724H188.566C187.702 80.9724 187.002 81.6708 187.002 82.5323V98.0874C187.002 98.9488 187.702 99.6472 188.566 99.6472H202.936C203.799 99.6472 204.499 98.9488 204.499 98.0874Z" fill="#407BFF"/>
<path opacity="0.7" d="M204.499 98.0874V82.5323C204.499 81.6708 203.799 80.9724 202.936 80.9724H188.566C187.702 80.9724 187.002 81.6708 187.002 82.5323V98.0874C187.002 98.9488 187.702 99.6472 188.566 99.6472H202.936C203.799 99.6472 204.499 98.9488 204.499 98.0874Z" fill="white"/>
<path d="M184.264 105.611V93.6928C184.264 93.0313 183.726 92.4951 183.063 92.4951H172.052C171.389 92.4951 170.852 93.0313 170.852 93.6928V105.611C170.852 106.273 171.389 106.809 172.052 106.809H183.063C183.726 106.809 184.264 106.273 184.264 105.611Z" fill="#407BFF"/>
<path opacity="0.3" d="M184.264 105.611V93.6928C184.264 93.0313 183.726 92.4951 183.063 92.4951H172.052C171.389 92.4951 170.852 93.0313 170.852 93.6928V105.611C170.852 106.273 171.389 106.809 172.052 106.809H183.063C183.726 106.809 184.264 106.273 184.264 105.611Z" fill="white"/>
<path d="M177.556 30.0432V23.6058C177.556 21.6374 175.956 20.0417 173.984 20.0417L55.8248 20.0417C53.8521 20.0417 52.2529 21.6374 52.2529 23.6058V30.0432C52.2529 32.0115 53.8521 33.6072 55.8248 33.6072L173.984 33.6072C175.956 33.6072 177.556 32.0115 177.556 30.0432Z" fill="#407BFF"/>
<path opacity="0.5" d="M177.556 30.0432V23.6058C177.556 21.6374 175.956 20.0417 173.984 20.0417L55.8248 20.0417C53.8521 20.0417 52.2529 21.6374 52.2529 23.6058V30.0432C52.2529 32.0115 53.8521 33.6072 55.8248 33.6072L173.984 33.6072C175.956 33.6072 177.556 32.0115 177.556 30.0432Z" fill="white"/>
<path d="M155.199 35.8767V31.2068L121.198 31.2068V35.8767H155.199Z" fill="#407BFF"/>
<path opacity="0.5" d="M155.199 35.8767V31.2068L121.198 31.2068V35.8767H155.199Z" fill="white"/>
<path d="M189.747 10.0014V3.564C189.747 1.59566 188.148 0 186.175 0L68.0162 0C66.0435 0 64.4443 1.59566 64.4443 3.564V10.0014C64.4443 11.9698 66.0435 13.5654 68.0162 13.5654L186.175 13.5654C188.148 13.5654 189.747 11.9698 189.747 10.0014Z" fill="#407BFF"/>
<path d="M63.0942 71.3329C62.6683 72.2988 62.1988 73.3419 61.7874 74.3609C61.376 75.3799 60.9501 76.4278 60.5774 77.4709C59.8127 79.5044 59.1996 81.5915 58.7431 83.7152L58.6027 84.4879L58.5543 84.7776C58.5543 84.8597 58.5543 84.966 58.5253 85.0625C58.5069 85.5327 58.5166 86.0036 58.5543 86.4727C58.6463 87.4917 58.8108 88.5831 59.0383 89.6745C59.4449 91.8622 59.9627 94.1174 60.4903 96.3389L58.0074 97.3047C56.85 95.1995 55.8643 93.0048 55.0598 90.7418C54.636 89.5639 54.2932 88.3587 54.0337 87.1343C53.8884 86.4569 53.7977 85.7689 53.7627 85.077C53.7627 84.8839 53.7627 84.7003 53.7627 84.4927C53.7627 84.285 53.7627 84.0532 53.7966 83.918L53.8934 82.9522C54.038 81.7082 54.2594 80.4744 54.5565 79.2578C54.8275 78.0504 55.176 76.8769 55.5245 75.7179C55.8729 74.5589 56.3085 73.4192 56.7683 72.2988C56.9958 71.7386 57.2523 71.1832 57.475 70.6278C57.6976 70.0725 57.959 69.5413 58.2687 68.9473L63.0942 71.3329Z" fill="#E4897B"/>
<path d="M60.3593 95.6868L62.2469 97.5267L58.1281 99.4584C58.1281 99.4584 57.131 97.7151 57.8231 96.1407L60.3593 95.6868Z" fill="#E4897B"/>
<path d="M63.7714 100.265L60.2915 101.685L58.1328 99.4395L62.2468 97.5271L63.7714 100.265Z" fill="#E4897B"/>
<path opacity="0.4" d="M134.266 98.2849C127.418 97.5177 120.952 94.7418 115.685 90.3082C110.417 85.8746 106.586 79.9823 104.674 73.3762C102.763 66.7701 102.857 59.7469 104.945 53.1943C107.034 46.6417 111.022 40.854 116.407 36.5629C121.791 32.2717 128.33 29.6698 135.196 29.086C142.062 28.5022 148.948 29.9628 154.982 33.2831C161.017 36.6034 165.929 41.6344 169.099 47.74C172.268 53.8456 173.552 60.7516 172.788 67.5852C172.28 72.1254 170.881 76.5213 168.67 80.5217C166.459 84.5221 163.48 88.0486 159.903 90.8996C156.325 93.7506 152.22 95.8703 147.821 97.1375C143.422 98.4047 138.816 98.7946 134.266 98.2849Z" fill="#FAFAFA"/>
<path opacity="0.4" d="M159.618 36.3351L106.62 78.5864C106.398 78.1034 106.18 77.6205 105.977 77.1376C104.648 73.9842 103.798 70.6508 103.455 67.2472L149.232 30.7524C152.99 32.0033 156.504 33.8919 159.618 36.3351Z" fill="#FAFAFA"/>
<path opacity="0.4" d="M171.849 54.846L122.021 94.5668C117.287 92.1046 113.185 88.5883 110.032 84.2901L164.439 40.9136C167.946 44.93 170.481 49.6968 171.849 54.846Z" fill="#FAFAFA"/>
<path d="M98.9246 50.4416L98.4648 50.2871C99.2612 47.9425 100.262 45.6721 101.456 43.502L101.877 43.7338C100.699 45.8796 99.711 48.1241 98.9246 50.4416ZM104.8 39.1701L104.408 38.8852C108.386 33.5188 113.592 29.179 119.591 26.2277L119.809 26.6623C113.878 29.5832 108.732 33.8766 104.8 39.1846V39.1701ZM157.842 27.3239C156.26 26.4775 154.624 25.7369 152.944 25.1073L153.118 24.6533C154.815 25.2978 156.467 26.0528 158.065 26.9134L157.842 27.3239Z" fill="#407BFF"/>
<path opacity="0.3" d="M98.9246 50.4416L98.4648 50.2871C99.2612 47.9425 100.262 45.6721 101.456 43.502L101.877 43.7338C100.699 45.8796 99.711 48.1241 98.9246 50.4416ZM104.8 39.1701L104.408 38.8852C108.386 33.5188 113.592 29.179 119.591 26.2277L119.809 26.6623C113.878 29.5832 108.732 33.8766 104.8 39.1846V39.1701ZM157.842 27.3239C156.26 26.4775 154.624 25.7369 152.944 25.1073L153.118 24.6533C154.815 25.2978 156.467 26.0528 158.065 26.9134L157.842 27.3239Z" fill="black"/>
<path d="M174.177 45.9697C169.695 36.6952 161.808 29.4972 152.151 25.8679C142.495 22.2386 131.809 22.4562 122.308 26.4758C112.808 30.4954 105.222 38.0086 101.124 47.4578C97.0252 56.9071 96.7281 67.5677 100.294 77.2296C97.0609 78.3596 93.8665 79.5718 90.6915 80.8225C86.1129 82.6351 81.5762 84.5282 77.0814 86.5018C72.5899 88.4866 68.1177 90.5101 63.6891 92.6253C61.4676 93.6636 59.2751 94.7598 57.0632 95.8223C55.9125 96.3156 54.87 97.0293 53.9946 97.923C53.5209 98.4179 53.1037 98.9637 52.7507 99.5505C52.32 100.244 51.9939 100.998 51.7827 101.786C51.4185 103.208 51.576 104.712 52.2267 106.027C52.8774 107.342 53.9784 108.382 55.3305 108.958C56.0813 109.272 56.8735 109.477 57.6827 109.566C58.3662 109.644 59.0562 109.644 59.7397 109.566C60.9818 109.416 62.1822 109.024 63.2729 108.412C65.4654 107.306 67.6725 106.239 69.8505 105.104C74.2065 102.887 78.5625 100.574 82.8652 98.2272C87.168 95.8802 91.4756 93.4221 95.6767 90.9012C98.5807 89.1482 101.514 87.3565 104.389 85.4828C109.909 94.1787 118.571 100.422 128.58 102.919C138.588 105.416 149.176 103.976 158.149 98.8961C167.122 93.8164 173.792 85.487 176.778 75.6337C179.764 65.7805 178.836 55.1589 174.186 45.9697H174.177ZM152.174 92.1037C146.549 94.8739 140.228 95.9178 134.008 95.1033C127.789 94.2888 121.951 91.6526 117.234 87.5279C112.516 83.4033 109.13 77.9754 107.504 71.9307C105.877 65.886 106.084 59.4959 108.098 53.5683C110.111 47.6408 113.841 42.4421 118.815 38.6295C123.79 34.8168 129.785 32.5616 136.044 32.1489C142.303 31.7362 148.544 33.1845 153.978 36.3107C159.412 39.437 163.795 44.1008 166.573 49.7124C168.418 53.4391 169.509 57.4919 169.783 61.6393C170.058 65.7867 169.511 69.9475 168.174 73.8841C166.837 77.8206 164.736 81.4558 161.99 84.5819C159.245 87.7081 155.909 90.264 152.174 92.1037Z" fill="#407BFF"/>
<path opacity="0.3" d="M174.177 45.9697C169.695 36.6952 161.808 29.4972 152.151 25.8679C142.495 22.2386 131.809 22.4562 122.308 26.4758C112.808 30.4954 105.222 38.0086 101.124 47.4578C97.0252 56.9071 96.7281 67.5677 100.294 77.2296C97.0609 78.3596 93.8665 79.5718 90.6915 80.8225C86.1129 82.6351 81.5762 84.5282 77.0814 86.5018C72.5899 88.4866 68.1177 90.5101 63.6891 92.6253C61.4676 93.6636 59.2751 94.7598 57.0632 95.8223C55.9125 96.3156 54.87 97.0293 53.9946 97.923C53.5209 98.4179 53.1037 98.9637 52.7507 99.5505C52.32 100.244 51.9939 100.998 51.7827 101.786C51.4185 103.208 51.576 104.712 52.2267 106.027C52.8774 107.342 53.9784 108.382 55.3305 108.958C56.0813 109.272 56.8735 109.477 57.6827 109.566C58.3662 109.644 59.0562 109.644 59.7397 109.566C60.9818 109.416 62.1822 109.024 63.2729 108.412C65.4654 107.306 67.6725 106.239 69.8505 105.104C74.2065 102.887 78.5625 100.574 82.8652 98.2272C87.168 95.8802 91.4756 93.4221 95.6767 90.9012C98.5807 89.1482 101.514 87.3565 104.389 85.4828C109.909 94.1787 118.571 100.422 128.58 102.919C138.588 105.416 149.176 103.976 158.149 98.8961C167.122 93.8164 173.792 85.487 176.778 75.6337C179.764 65.7805 178.836 55.1589 174.186 45.9697H174.177ZM152.174 92.1037C146.549 94.8739 140.228 95.9178 134.008 95.1033C127.789 94.2888 121.951 91.6526 117.234 87.5279C112.516 83.4033 109.13 77.9754 107.504 71.9307C105.877 65.886 106.084 59.4959 108.098 53.5683C110.111 47.6408 113.841 42.4421 118.815 38.6295C123.79 34.8168 129.785 32.5616 136.044 32.1489C142.303 31.7362 148.544 33.1845 153.978 36.3107C159.412 39.437 163.795 44.1008 166.573 49.7124C168.418 53.4391 169.509 57.4919 169.783 61.6393C170.058 65.7867 169.511 69.9475 168.174 73.8841C166.837 77.8206 164.736 81.4558 161.99 84.5819C159.245 87.7081 155.909 90.264 152.174 92.1037Z" fill="black"/>
<path d="M76.4717 54.0878C76.4717 54.3727 76.6217 54.6045 76.8105 54.6045C76.9992 54.6045 77.1493 54.3727 77.1493 54.0878C77.1493 53.8029 76.9992 53.571 76.8105 53.571C76.6217 53.571 76.4717 53.8222 76.4717 54.0878Z" fill="#263238"/>
<path d="M76.6074 54.6042C76.95 55.4789 77.4109 56.3027 77.9771 57.0527C77.7814 57.1924 77.5573 57.2878 77.3207 57.332C77.0841 57.3762 76.8406 57.3682 76.6074 57.3086V54.6042Z" fill="#DE5753"/>
<path d="M75.4695 52.4988C75.4425 52.4988 75.4159 52.4927 75.3916 52.481C75.3673 52.4693 75.3459 52.4523 75.3292 52.4312C75.3039 52.3943 75.2939 52.3492 75.3011 52.3051C75.3083 52.2611 75.3322 52.2215 75.3679 52.1945C75.581 52.0332 75.8301 51.9257 76.0939 51.8812C76.3577 51.8366 76.6283 51.8563 76.8828 51.9386C76.9057 51.9448 76.927 51.9557 76.9453 51.9707C76.9637 51.9856 76.9787 52.0042 76.9894 52.0253C77.0001 52.0464 77.0063 52.0695 77.0075 52.0931C77.0087 52.1167 77.0049 52.1403 76.9964 52.1623C76.9879 52.1844 76.9748 52.2044 76.9581 52.2212C76.9413 52.2379 76.9213 52.2509 76.8992 52.2594C76.8771 52.2679 76.8534 52.2717 76.8297 52.2705C76.8061 52.2693 76.783 52.2632 76.7618 52.2525C76.5597 52.1906 76.3456 52.1781 76.1375 52.2159C75.9295 52.2537 75.7336 52.3408 75.5663 52.4698C75.5376 52.4888 75.504 52.4989 75.4695 52.4988Z" fill="#263238"/>
<path d="M66.695 56.2366C67.179 58.8299 67.7114 63.5867 65.8916 65.3204C65.8916 65.3204 66.6031 67.9524 71.4382 67.9524C76.7622 67.9524 73.9744 65.3204 73.9744 65.3204C71.0704 64.625 71.1527 62.4808 71.656 60.4622L66.695 56.2366Z" fill="#E4897B"/>
<path d="M63.7182 66.687C64.2942 65.7936 63.3262 63.6252 63.3262 63.6252C63.3262 63.6252 71.8833 61.4762 75.3826 64.7746C76.1086 65.4555 75.3052 66.46 75.3052 66.46L63.7182 66.687Z" fill="#407BFF"/>
<path opacity="0.1" d="M63.7182 66.687C64.2942 65.7936 63.3262 63.6252 63.3262 63.6252C63.3262 63.6252 71.8833 61.4762 75.3826 64.7746C76.1086 65.4555 75.3052 66.46 75.3052 66.46L63.7182 66.687Z" fill="black"/>
<path d="M49.5619 165.219C49.1117 165.219 48.3906 164.47 48.1776 164.19C48.1685 164.177 48.1636 164.161 48.1636 164.144C48.1636 164.128 48.1685 164.112 48.1776 164.098C48.1854 164.085 48.1967 164.074 48.2104 164.066C48.224 164.058 48.2394 164.055 48.2551 164.055C48.3083 164.055 49.4941 164.161 49.8184 164.581C49.8536 164.626 49.8788 164.677 49.8922 164.732C49.9056 164.787 49.9068 164.845 49.8958 164.9C49.8916 164.972 49.8651 165.041 49.8201 165.097C49.775 165.153 49.7135 165.194 49.6441 165.214L49.5619 165.219ZM48.439 164.253C48.7923 164.659 49.3586 165.117 49.6006 165.059C49.6006 165.059 49.6974 165.035 49.7264 164.881C49.7328 164.849 49.7317 164.815 49.7234 164.783C49.715 164.752 49.6995 164.722 49.678 164.697C49.3195 164.426 48.8881 164.268 48.439 164.243V164.253Z" fill="#407BFF"/>
<path d="M48.4918 164.243C48.4049 164.252 48.3174 164.252 48.2305 164.243C48.2152 164.242 48.2006 164.236 48.1885 164.227C48.1764 164.217 48.1674 164.205 48.1627 164.19C48.1559 164.177 48.1523 164.162 48.1523 164.147C48.1523 164.132 48.1559 164.117 48.1627 164.103C48.1966 164.074 48.9081 163.335 49.4453 163.335C49.5096 163.334 49.5735 163.346 49.6327 163.371C49.6919 163.396 49.7452 163.433 49.7889 163.48C49.8371 163.52 49.8701 163.576 49.8824 163.637C49.8947 163.699 49.8857 163.763 49.8567 163.818C49.7163 164.089 48.9758 164.243 48.4918 164.243ZM48.4289 164.074C48.9129 164.074 49.6147 163.924 49.7309 163.712C49.7309 163.712 49.7647 163.649 49.6873 163.572C49.6591 163.541 49.6246 163.517 49.5861 163.502C49.5477 163.486 49.5062 163.478 49.4647 163.48C49.0679 163.571 48.7073 163.778 48.4289 164.074Z" fill="#407BFF"/>
<path d="M81.5007 176.181C81.1338 176.179 80.7679 176.145 80.4068 176.08C80.3889 176.076 80.3727 176.067 80.3612 176.053C80.3497 176.039 80.3436 176.021 80.3439 176.003C80.3412 175.986 80.3434 175.969 80.3503 175.953C80.3572 175.938 80.3684 175.925 80.3826 175.916C80.4359 175.887 81.6749 175.177 82.2702 175.341C82.3254 175.353 82.3775 175.377 82.4233 175.41C82.469 175.443 82.5075 175.486 82.5364 175.534C82.5743 175.588 82.5947 175.652 82.5947 175.718C82.5947 175.783 82.5743 175.848 82.5364 175.901C82.3961 176.119 81.9556 176.181 81.5007 176.181ZM80.6827 175.954C81.3409 176.051 82.2412 176.046 82.4057 175.814C82.4299 175.785 82.4493 175.732 82.4057 175.631C82.3688 175.571 82.3097 175.527 82.2412 175.51C81.8637 175.413 81.1135 175.732 80.6827 175.954Z" fill="#407BFF"/>
<path d="M80.426 176.085C80.4102 176.089 80.3934 176.089 80.3776 176.085C80.3641 176.076 80.3537 176.064 80.3476 176.049C80.3416 176.034 80.3402 176.018 80.3437 176.003C80.3765 175.5 80.5699 175.021 80.8954 174.636C80.9613 174.579 81.0386 174.537 81.1221 174.513C81.2057 174.489 81.2934 174.483 81.3794 174.496C81.6118 174.496 81.6795 174.636 81.694 174.728C81.757 175.128 80.91 175.896 80.4792 176.089L80.426 176.085ZM81.2923 174.636C81.1858 174.635 81.0827 174.673 81.0019 174.742C80.7282 175.047 80.5588 175.431 80.5179 175.838C80.9535 175.573 81.5343 174.974 81.4859 174.732C81.4859 174.732 81.4859 174.65 81.3214 174.636H81.2923Z" fill="#407BFF"/>
<path d="M76.5151 175.998H80.0725L80.4259 167.783H76.8685L76.5151 175.998Z" fill="#E4897B"/>
<path d="M44.8379 161.896L47.8097 163.838L54.3727 158.308L51.3961 156.362L44.8379 161.896Z" fill="#E4897B"/>
<path d="M48.2982 163.654L45.2103 161.128C45.1558 161.084 45.0873 161.059 45.0167 161.059C44.9461 161.059 44.8777 161.084 44.8231 161.128L42.2773 163.123C42.2158 163.172 42.1661 163.234 42.1319 163.304C42.0978 163.375 42.0801 163.452 42.0801 163.531C42.0801 163.609 42.0978 163.687 42.1319 163.757C42.1661 163.828 42.2158 163.89 42.2773 163.939C43.3711 164.803 43.9471 165.17 45.3071 166.281C46.1444 166.962 48.2111 169.048 49.3775 169.99C50.544 170.932 51.6136 169.918 51.2264 169.43C49.4889 167.232 48.8064 165.354 48.608 164.19C48.5737 163.98 48.4635 163.789 48.2982 163.654Z" fill="#263238"/>
<path d="M80.0487 175.587H76.1767C76.1061 175.587 76.0376 175.611 75.9823 175.655C75.927 175.699 75.888 175.76 75.8717 175.828L75.1699 178.982C75.1523 179.058 75.1523 179.138 75.17 179.214C75.1877 179.291 75.2226 179.362 75.272 179.423C75.3215 179.484 75.3842 179.533 75.4554 179.566C75.5266 179.599 75.6044 179.616 75.683 179.615C77.0817 179.59 79.1049 179.508 80.8666 179.508C82.9236 179.508 84.7048 179.619 87.1151 179.619C88.5671 179.619 88.9833 178.146 88.3686 178.016C85.5905 177.408 83.3157 177.345 80.915 175.862C80.6574 175.692 80.3575 175.597 80.0487 175.587Z" fill="#263238"/>
<path d="M58.8835 66.3782C55.8004 67.827 54.0435 77.5338 54.0435 77.5338L61.5793 80.5328C62.6824 77.8453 63.5741 75.0762 64.2462 72.2506C65.2819 67.7787 62.0391 64.8811 58.8835 66.3782Z" fill="#263238"/>
<path d="M62.8809 71.8496C61.0175 73.733 60.1656 77.4226 59.793 79.8227L61.5983 80.5423C62.67 77.9311 63.5437 75.2433 64.2119 72.5016C64.0522 71.4777 63.6553 71.0673 62.8809 71.8496Z" fill="#203048"/>
<path d="M79.4435 66.3107C79.4435 66.3107 83.2283 70.5797 79.6564 96.9765H60.6401C60.5094 94.079 62.3437 79.8568 59.5269 66.132C61.6284 65.7254 63.7546 65.4576 65.8915 65.3303C68.5834 65.1708 71.2824 65.1708 73.9743 65.3303C75.82 65.5156 77.6485 65.8434 79.4435 66.3107Z" fill="#263238"/>
<path d="M81.1814 76.5581L77.9773 71.0479C77.3588 73.6188 77.1063 76.2639 77.2271 78.9051C77.3142 80.7982 79.0518 87.8103 80.6151 88.8341C81.03 84.7556 81.219 80.6573 81.1814 76.5581Z" fill="#203048"/>
<path d="M81.6266 70.082C82.1106 72.4291 82.5946 74.834 83.1125 77.1907C83.6304 79.5474 84.1676 81.9137 84.792 84.198C84.9517 84.763 85.1017 85.3425 85.276 85.8834L85.4066 86.2987L85.4695 86.5064V86.4822C85.4357 86.4388 85.397 86.4339 85.426 86.4822C85.6249 86.699 85.8792 86.8576 86.1617 86.941C86.6192 87.1109 87.0904 87.2418 87.5701 87.3322C89.8584 87.6941 92.1753 87.8444 94.4913 87.7813L94.9511 90.4084C94.3025 90.6161 93.6976 90.7658 93.0587 90.9155C92.4198 91.0652 91.7906 91.1908 91.1469 91.2874C89.815 91.5086 88.4647 91.5992 87.1152 91.5578C86.365 91.5376 85.619 91.4405 84.8888 91.268C83.9603 91.0654 83.0878 90.6615 82.3332 90.0849C81.8404 89.6878 81.4337 89.1949 81.1378 88.6361C81.0603 88.4912 80.9926 88.327 80.9296 88.187L80.8425 87.96L80.6634 87.4771C80.4166 86.8637 80.2133 86.2601 79.9907 85.6564C79.1727 83.2418 78.4903 80.803 77.8901 78.3691C77.2899 75.9351 76.7721 73.506 76.3413 71.0093L81.6266 70.082Z" fill="#E4897B"/>
<path d="M74.6956 68.8991C73.6937 72.1395 77.7545 81.8029 77.7545 81.8029L85.8421 79.7746C85.8421 79.7746 85.5324 74.7522 83.6883 70.768C80.9102 64.7604 75.8959 65.0115 74.6956 68.8991Z" fill="#263238"/>
<path d="M94.4229 87.7813L98.4498 87.6799L96.5138 91.8621C96.5138 91.8621 94.873 92.0794 93.5275 89.8724L92.1094 88.1822L93.7405 87.8586C93.965 87.8115 94.1935 87.7856 94.4229 87.7813Z" fill="#E4897B"/>
<path d="M100.991 88.4574L98.6868 91.9249L96.5137 91.8621L98.4497 87.6799L100.991 88.4574Z" fill="#E4897B"/>
<path d="M80.4259 167.783L80.242 172.018H76.6846L76.8685 167.783H80.4259Z" fill="#CE6F64"/>
<path d="M51.3959 156.362L54.3725 158.308L50.9845 161.157L48.0127 159.216L51.3959 156.362Z" fill="#CE6F64"/>
<path d="M66.9178 53.4743C67.1308 56.9852 67.0776 59.0569 68.8538 60.8582C71.5255 63.5771 75.8767 61.969 76.7188 58.4436C77.4787 55.2853 77.0044 50.0696 73.5583 48.6692C72.7979 48.3629 71.9721 48.2545 71.1582 48.354C70.3443 48.4535 69.5691 48.7576 68.9053 49.238C68.2415 49.7183 67.7109 50.359 67.3632 51.1C67.0156 51.841 66.8623 52.658 66.9178 53.4743Z" fill="#E4897B"/>
<path d="M62.7745 52.856C63.6506 56.0578 65.7124 59.7474 68.3793 59.984C71.6898 60.2737 73.1854 56.8595 73.621 53.3341C75.6054 51.9771 74.5648 50.4848 76.554 50.2965C79.1095 50.055 78.2916 45.3899 74.9278 44.6414C74.9278 44.6414 76.0555 46.7421 73.6887 45.6797C71.4379 44.6124 68.9373 44.1798 66.4578 44.4289C66.4578 44.4289 69.4779 45.9356 66.5255 46.6069C63.5731 47.2782 62.6923 49.094 64.0523 50.1902C64.0523 50.1951 62.1986 50.7504 62.7745 52.856Z" fill="#263238"/>
<path d="M71.6028 54.0588C71.6678 54.9315 72.02 55.7583 72.6047 56.4106C73.3791 57.2654 74.1873 56.7342 74.3229 55.6959C74.4487 54.7638 74.1922 53.1943 73.2435 52.7211C72.2949 52.2478 71.5399 53.006 71.6028 54.0588Z" fill="#E4897B"/>
<path d="M72.9095 96.9765C72.9095 96.9765 76.3749 122.016 73.6452 132.051C69.3182 147.94 52.7751 161.351 52.7751 161.351L47.1655 157.68C47.1655 157.68 61.2548 146.356 62.9778 133.051C64.5266 121.108 60.6401 106.664 60.6401 96.9717L72.9095 96.9765Z" fill="#407BFF"/>
<path opacity="0.1" d="M72.9095 96.9765C72.9095 96.9765 76.3749 122.016 73.6452 132.051C69.3182 147.94 52.7751 161.351 52.7751 161.351L47.1655 157.68C47.1655 157.68 61.2548 146.356 62.9778 133.051C64.5266 121.108 60.6401 106.664 60.6401 96.9717L72.9095 96.9765Z" fill="black"/>
<path d="M74.3418 111.29C73.4192 110.236 72.4036 109.266 71.3071 108.393C71.8976 116.52 72.3816 128.56 71.8444 137.112C72.5667 135.473 73.1685 133.783 73.6448 132.056C74.9758 127.155 74.8355 118.689 74.3418 111.29Z" fill="#407BFF"/>
<path opacity="0.3" d="M74.3418 111.29C73.4192 110.236 72.4036 109.266 71.3071 108.393C71.8976 116.52 72.3816 128.56 71.8444 137.112C72.5667 135.473 73.1685 133.783 73.6448 132.056C74.9758 127.155 74.8355 118.689 74.3418 111.29Z" fill="black"/>
<path d="M55.0355 160.1C55.0597 160.1 52.8623 161.548 52.8623 161.548L46.7349 157.54L48.6709 155.942L55.0355 160.1Z" fill="#407BFF"/>
<path opacity="0.3" d="M55.0355 160.1C55.0597 160.1 52.8623 161.548 52.8623 161.548L46.7349 157.54L48.6709 155.942L55.0355 160.1Z" fill="black"/>
<path d="M79.6565 96.9766C79.6565 96.9766 85.0095 119.626 85.3871 130.448C85.813 142.579 81.5683 171.198 81.5683 171.198H75.5425C75.5425 171.198 74.802 142.357 74.5358 131.308C74.2405 119.259 67.1548 96.9766 67.1548 96.9766H79.6565Z" fill="#407BFF"/>
<path opacity="0.1" d="M79.6565 96.9766C79.6565 96.9766 85.0095 119.626 85.3871 130.448C85.813 142.579 81.5683 171.198 81.5683 171.198H75.5425C75.5425 171.198 74.802 142.357 74.5358 131.308C74.2405 119.259 67.1548 96.9766 67.1548 96.9766H79.6565Z" fill="black"/>
<path d="M82.7249 168.807C82.7539 168.807 82.3861 171.299 82.3861 171.299H75.0583L74.8599 169.072L82.7249 168.807Z" fill="#407BFF"/>
<path opacity="0.3" d="M82.7249 168.807C82.7539 168.807 82.3861 171.299 82.3861 171.299H75.0583L74.8599 169.072L82.7249 168.807Z" fill="black"/>
<path d="M172.304 75.2109C172.715 75.5973 173.039 75.9257 173.378 76.2927C173.717 76.6597 174.036 77.0171 174.346 77.3889C174.975 78.1278 175.566 78.9053 176.137 79.6877C177.278 81.257 178.292 82.9138 179.172 84.6425L179.351 84.995C179.438 85.1657 179.511 85.3434 179.569 85.5263C179.685 85.8796 179.757 86.2464 179.782 86.6177C179.813 87.2725 179.723 87.9274 179.515 88.5494C179.162 89.5825 178.637 90.549 177.962 91.4083C176.745 92.9668 175.311 94.3427 173.703 95.4939L172.497 94.1127C173.064 93.4511 173.654 92.7412 174.182 92.0313C174.718 91.3435 175.204 90.6171 175.634 89.8581C176.035 89.1959 176.332 88.4759 176.515 87.7236C176.577 87.4544 176.589 87.176 176.548 86.9026C176.531 86.8107 176.502 86.7214 176.461 86.637C176.443 86.6 176.422 86.5644 176.398 86.5307L176.244 86.27C175.31 84.7513 174.297 83.2828 173.209 81.8705C172.672 81.1606 172.096 80.4797 171.515 79.8084C171.229 79.4704 170.934 79.142 170.639 78.8136C170.344 78.4852 170.024 78.1568 169.768 77.9008L172.304 75.2109Z" fill="#E4897B"/>
<path d="M172.962 93.7071L169.347 93.1179L171.239 96.2763C171.239 96.2763 173.567 96.1942 174.23 94.8275L172.962 93.7071Z" fill="#E4897B"/>
<path d="M166.675 94.5764L168.398 97.1407L171.239 96.2763L169.346 93.1179L166.675 94.5764Z" fill="#E4897B"/>
<path d="M172.787 176.138C172.541 176.159 172.296 176.092 172.095 175.949C172.034 175.892 171.989 175.82 171.965 175.741C171.94 175.661 171.937 175.577 171.955 175.495C171.958 175.444 171.976 175.394 172.005 175.351C172.035 175.309 172.076 175.275 172.124 175.254C172.545 175.066 173.649 175.771 173.774 175.853C173.789 175.862 173.8 175.875 173.806 175.891C173.812 175.906 173.813 175.924 173.808 175.94C173.806 175.956 173.799 175.972 173.788 175.984C173.777 175.996 173.762 176.004 173.745 176.007C173.432 176.087 173.11 176.131 172.787 176.138ZM172.303 175.389C172.268 175.384 172.232 175.384 172.197 175.389C172.175 175.399 172.157 175.415 172.144 175.434C172.131 175.454 172.124 175.477 172.124 175.5C172.111 175.554 172.112 175.61 172.128 175.664C172.143 175.717 172.172 175.766 172.211 175.805C172.395 175.969 172.869 175.993 173.503 175.867C173.14 175.628 172.732 175.465 172.303 175.389Z" fill="#407BFF"/>
<path d="M173.755 176.003H173.712C173.368 175.805 172.705 175.037 172.787 174.617C172.803 174.55 172.84 174.491 172.892 174.447C172.944 174.404 173.01 174.378 173.078 174.375C173.143 174.366 173.21 174.371 173.273 174.391C173.335 174.411 173.393 174.445 173.441 174.491C173.838 174.839 173.842 175.882 173.842 175.94C173.841 175.954 173.837 175.969 173.829 175.981C173.822 175.994 173.811 176.004 173.799 176.012L173.755 176.003ZM173.136 174.554H173.097C172.991 174.554 172.966 174.612 172.957 174.655C172.908 174.901 173.32 175.491 173.663 175.766C173.672 175.361 173.555 174.963 173.329 174.626C173.3 174.599 173.266 174.579 173.228 174.566C173.191 174.554 173.151 174.549 173.112 174.554H173.136Z" fill="#407BFF"/>
<path d="M156.293 176.138C155.984 176.168 155.674 176.089 155.417 175.916C155.359 175.865 155.314 175.8 155.286 175.728C155.258 175.656 155.248 175.578 155.257 175.501C155.26 175.454 155.275 175.408 155.3 175.369C155.326 175.329 155.361 175.296 155.402 175.274C155.852 175.023 157.295 175.757 157.459 175.848C157.474 175.858 157.486 175.872 157.494 175.888C157.502 175.904 157.505 175.922 157.503 175.94C157.5 175.957 157.492 175.973 157.48 175.985C157.468 175.997 157.452 176.005 157.435 176.008C157.059 176.087 156.677 176.131 156.293 176.138ZM155.649 175.39C155.594 175.386 155.538 175.398 155.489 175.423C155.472 175.432 155.457 175.445 155.447 175.461C155.437 175.477 155.431 175.496 155.431 175.515C155.424 175.565 155.429 175.617 155.446 175.665C155.462 175.713 155.491 175.756 155.528 175.79C155.751 175.988 156.346 176.022 157.149 175.887C156.681 175.638 156.174 175.47 155.649 175.39Z" fill="#407BFF"/>
<path d="M157.42 176.003H157.382C156.951 175.81 156.094 175.037 156.162 174.617C156.162 174.52 156.249 174.399 156.486 174.375C156.573 174.366 156.661 174.374 156.744 174.4C156.827 174.426 156.904 174.468 156.97 174.525C157.425 174.902 157.512 175.877 157.512 175.921C157.514 175.935 157.512 175.95 157.506 175.964C157.5 175.978 157.491 175.989 157.478 175.998C157.46 176.006 157.44 176.007 157.42 176.003ZM156.554 174.554H156.501C156.346 174.554 156.336 174.631 156.331 174.651C156.293 174.897 156.873 175.51 157.299 175.776C157.257 175.363 157.088 174.973 156.815 174.66C156.742 174.598 156.65 174.56 156.554 174.554Z" fill="#407BFF"/>
<path d="M163.141 64.1084C163.001 66.2912 162.623 70.7245 164.303 71.9511C164.303 71.9511 163.998 74.1871 160.034 74.7086C155.678 75.2737 157.667 72.8204 157.667 72.8204C159.976 71.9415 159.681 70.1885 159.051 68.5851L163.141 64.1084Z" fill="#E4897B"/>
<path d="M154.125 60.2499C154.101 60.25 154.077 60.2448 154.056 60.2348C154.034 60.2248 154.015 60.2102 153.999 60.192C153.861 60.0282 153.686 59.8991 153.488 59.8152C153.291 59.7313 153.076 59.695 152.862 59.7091C152.839 59.7132 152.816 59.7127 152.793 59.7075C152.771 59.7024 152.75 59.6927 152.731 59.6792C152.713 59.6656 152.697 59.6484 152.685 59.6287C152.674 59.6089 152.666 59.587 152.663 59.5642C152.658 59.5188 152.671 59.473 152.699 59.4369C152.727 59.4007 152.768 59.377 152.813 59.371C153.087 59.348 153.361 59.3913 153.614 59.4972C153.867 59.6032 154.091 59.7687 154.265 59.9795C154.286 60.0047 154.3 60.0353 154.304 60.0677C154.308 60.1002 154.303 60.1332 154.29 60.1629C154.276 60.1927 154.254 60.218 154.227 60.236C154.199 60.2539 154.168 60.2638 154.135 60.2644L154.125 60.2499Z" fill="#263238"/>
<path d="M153.369 62.3892C153.197 63.0818 152.932 63.7479 152.58 64.3692C152.742 64.4559 152.92 64.5061 153.104 64.5161C153.287 64.5261 153.47 64.4957 153.64 64.4271L153.369 62.3892Z" fill="#DE5753"/>
<path d="M153.563 61.8578C153.602 62.1476 153.481 62.3987 153.292 62.4277C153.103 62.4566 152.915 62.2345 152.881 61.9447C152.847 61.655 152.963 61.4039 153.152 61.3797C153.341 61.3556 153.529 61.5487 153.563 61.8578Z" fill="#263238"/>
<path d="M153.239 61.385L152.518 61.2737C152.518 61.2737 152.943 61.7722 153.239 61.385Z" fill="#263238"/>
<path d="M161.409 175.925H157.779L157.537 167.547H161.167L161.409 175.925Z" fill="#E4897B"/>
<path d="M177.889 175.925H174.259L173.093 167.547H176.723L177.889 175.925Z" fill="#E4897B"/>
<path d="M174.036 175.52H178.112C178.181 175.519 178.248 175.544 178.301 175.589C178.354 175.634 178.388 175.697 178.397 175.766L178.881 178.987C178.89 179.068 178.882 179.151 178.856 179.228C178.831 179.306 178.79 179.378 178.735 179.438C178.68 179.499 178.613 179.547 178.538 179.58C178.463 179.613 178.382 179.63 178.3 179.63C176.882 179.605 176.195 179.523 174.404 179.523C173.301 179.523 171.689 179.634 170.169 179.634C168.649 179.634 168.567 178.132 169.201 177.997C172.042 177.389 172.492 176.548 173.446 175.742C173.612 175.604 173.82 175.526 174.036 175.52Z" fill="#263238"/>
<path d="M157.657 175.52H161.728C161.798 175.519 161.866 175.543 161.919 175.589C161.973 175.634 162.008 175.697 162.018 175.766L162.502 178.987C162.511 179.068 162.503 179.151 162.477 179.228C162.452 179.306 162.411 179.378 162.356 179.438C162.301 179.499 162.234 179.547 162.159 179.58C162.084 179.613 162.003 179.63 161.921 179.63C160.503 179.605 159.816 179.523 158.025 179.523C156.922 179.523 154.637 179.634 153.117 179.634C151.598 179.634 151.515 178.132 152.149 177.997C154.991 177.389 156.109 176.548 157.067 175.742C157.233 175.604 157.441 175.526 157.657 175.52Z" fill="#263238"/>
<path d="M157.537 167.547L157.663 171.869H161.293L161.167 167.547H157.537Z" fill="#CE6F64"/>
<path d="M176.723 167.547H173.093L173.698 171.869H177.323L176.723 167.547Z" fill="#CE6F64"/>
<path d="M163.19 59.5883C163.436 63.1716 163.615 64.6832 162.057 66.7453C159.71 69.8408 155.247 69.3627 153.931 65.9243C152.745 62.8287 152.542 57.4924 155.842 55.6186C156.569 55.2034 157.389 54.9802 158.226 54.9701C159.063 54.96 159.888 55.1635 160.624 55.5611C161.36 55.9588 161.982 56.5374 162.431 57.2422C162.88 57.947 163.141 58.7546 163.19 59.5883Z" fill="#E4897B"/>
<path d="M165.281 62.9156C167.295 64.036 168.79 61.2737 168.79 61.2737C168.79 61.2737 165.179 61.6648 165.504 59.5206C165.93 56.6762 163.887 53.2184 158.766 53.6627C158.481 53.6869 158.21 53.7207 157.944 53.7642C157.408 53.5106 156.801 53.4452 156.223 53.5784C155.645 53.7116 155.129 54.0357 154.759 54.4982C153.307 54.6189 151.347 56.3478 152.678 58.6321C152.771 58.3696 152.916 58.1283 153.104 57.9222C153.215 59.2599 154.386 61.3847 155.848 61.5248C156.163 63.3551 154.943 65.4751 155.364 67.3875C155.988 70.145 160.649 70.768 160.649 70.768C160.489 70.4237 160.429 70.041 160.477 69.6641C160.525 69.2873 160.678 68.9317 160.92 68.6383C164.086 70.0871 166.172 68.6721 166.172 68.6721C164.013 67.8705 164.666 66.441 164.666 66.441C165.412 66.7712 166.256 66.8002 167.023 66.5219C167.789 66.2436 168.417 65.6797 168.776 64.9487C168.059 64.9827 167.347 64.8088 166.727 64.448C166.107 64.0872 165.605 63.555 165.281 62.9156Z" fill="#263238"/>
<path d="M157.111 62.0752C157.119 62.4191 157.059 62.7613 156.935 63.0821C156.81 63.4028 156.623 63.6958 156.385 63.9442C155.746 64.6058 154.962 64.1422 154.749 63.2971C154.56 62.534 154.667 61.2736 155.499 60.9259C155.682 60.854 155.881 60.829 156.076 60.8531C156.271 60.8773 156.457 60.9497 156.618 61.0639C156.778 61.1781 156.907 61.3305 156.993 61.5071C157.079 61.6837 157.12 61.879 157.111 62.0752Z" fill="#E4897B"/>
<path d="M160.126 95.4601C160.126 95.4601 161.046 119.297 163.233 133.293C164.995 144.603 172.821 171.029 172.821 171.029H177.768C177.768 171.029 173.688 145.506 172.792 134.326C170.527 106.031 176.408 99.9562 170.856 94.0645L160.126 95.4601Z" fill="#263238"/>
<path d="M164.26 102.999C164.26 102.999 162.024 102.612 160.717 106.862C161.201 114.912 162.028 125.595 163.234 133.293C163.5 135.007 163.906 137.074 164.405 139.339C163.461 125.74 164.26 102.999 164.26 102.999Z" fill="#161F33"/>
<path d="M156.269 95.9622C156.269 95.9622 152.194 122.335 152.431 133.37C152.678 144.849 156.893 171.038 156.893 171.038H161.796C161.796 171.038 161.022 145.53 161.453 134.258C161.937 121.968 166.965 94.5762 166.965 94.5762L156.269 95.9622Z" fill="#263238"/>
<path d="M178.484 171.26H171.907L171.394 169.058L178.436 169.107L178.484 171.26Z" fill="#407BFF"/>
<path opacity="0.2" d="M178.484 171.26H171.907L171.394 169.058L178.436 169.107L178.484 171.26Z" fill="black"/>
<path d="M170.609 71.9558C172.502 72.1394 175.377 77.5047 175.377 77.5047L170.6 81.1604C170.6 81.1604 166.645 77.6978 167.115 75.7517C167.604 73.7282 168.794 71.7868 170.609 71.9558Z" fill="#407BFF"/>
<path opacity="0.1" d="M170.609 71.9558C172.502 72.1394 175.377 77.5047 175.377 77.5047L170.6 81.1604C170.6 81.1604 166.645 77.6978 167.115 75.7517C167.604 73.7282 168.794 71.7868 170.609 71.9558Z" fill="black"/>
<path d="M169.182 74.2644C168.699 74.1347 168.2 74.0794 167.701 74.1002C167.447 74.6282 167.25 75.182 167.115 75.7519C166.631 77.6836 170.6 81.1606 170.6 81.1606L170.953 80.8902L169.182 74.2644Z" fill="#407BFF"/>
<path opacity="0.3" d="M169.182 74.2644C168.699 74.1347 168.2 74.0794 167.701 74.1002C167.447 74.6282 167.25 75.182 167.115 75.7519C166.631 77.6836 170.6 81.1606 170.6 81.1606L170.953 80.8902L169.182 74.2644Z" fill="black"/>
<path d="M154.647 79.417C153.268 82.8989 151.816 86.4388 150.659 89.9304C150.582 90.1525 150.519 90.365 150.451 90.5823L150.286 91.1184C150.241 91.2762 150.241 91.4434 150.286 91.6013C150.56 92.2051 150.993 92.7228 151.54 93.0984C152.987 94.1343 154.564 94.9769 156.23 95.6048L155.794 97.3819C153.745 97.1123 151.763 96.4672 149.948 95.4792C148.831 94.8839 147.921 93.9645 147.339 92.8424C147.005 92.1253 146.888 91.326 147.005 90.5437C147.016 90.4479 147.032 90.3528 147.053 90.2588L147.102 90.0559L147.184 89.6889C147.242 89.4426 147.3 89.206 147.363 88.9645C147.847 87.0328 148.467 85.1977 149.12 83.377C149.773 81.5564 150.456 79.7599 151.225 77.9683L154.647 79.417Z" fill="#E4897B"/>
<path d="M151.709 74.53C151.709 74.53 150.073 75.3558 156.268 95.9623L170.875 94.0596C169.849 88.1582 169.365 84.5024 170.609 71.956C168.515 71.8063 166.412 71.8063 164.317 71.956C162.087 72.0854 159.87 72.3759 157.682 72.8253C154.879 73.4482 151.709 74.53 151.709 74.53Z" fill="#407BFF"/>
<path opacity="0.1" d="M151.709 74.53C151.709 74.53 150.073 75.3558 156.268 95.9623L170.875 94.0596C169.849 88.1582 169.365 84.5024 170.609 71.956C168.515 71.8063 166.412 71.8063 164.317 71.956C162.087 72.0854 159.87 72.3759 157.682 72.8253C154.879 73.4482 151.709 74.53 151.709 74.53Z" fill="black"/>
<path d="M170.982 93.176L171.819 94.3881C171.882 94.4847 171.775 94.6006 171.611 94.6247L156.292 96.6241C156.162 96.6241 156.041 96.5903 156.021 96.5082L155.721 95.2187C155.697 95.1318 155.803 95.0401 155.949 95.0207L170.74 93.089C170.784 93.0819 170.83 93.0862 170.872 93.1014C170.914 93.1166 170.952 93.1423 170.982 93.176Z" fill="#407BFF"/>
<path opacity="0.2" d="M170.982 93.176L171.819 94.3881C171.882 94.4847 171.775 94.6006 171.611 94.6247L156.292 96.6241C156.162 96.6241 156.041 96.5903 156.021 96.5082L155.721 95.2187C155.697 95.1318 155.803 95.0401 155.949 95.0207L170.74 93.089C170.784 93.0819 170.83 93.0862 170.872 93.1014C170.914 93.1166 170.952 93.1423 170.982 93.176Z" fill="black"/>
<path d="M169.211 95.0834L169.608 95.0303C169.686 95.0303 169.739 94.9724 169.729 94.9241L169.323 93.2531C169.307 93.2246 169.282 93.2023 169.252 93.19C169.222 93.1777 169.189 93.1761 169.158 93.1855L168.761 93.2338C168.679 93.2338 168.626 93.2918 168.64 93.3449L169.047 95.011C169.056 95.0641 169.134 95.0931 169.211 95.0834Z" fill="#263238"/>
<path d="M159.609 96.3199L160.005 96.2668C160.083 96.2668 160.141 96.2088 160.126 96.1605L159.72 94.4896C159.704 94.4614 159.679 94.4391 159.65 94.4261C159.62 94.413 159.587 94.4099 159.555 94.4172L159.158 94.4703C159.081 94.4703 159.023 94.5283 159.037 94.5765L159.444 96.2475C159.454 96.3199 159.531 96.3489 159.609 96.3199Z" fill="#263238"/>
<path d="M152.392 81.5228C152.793 83.3869 153.36 85.7485 154.187 88.7378L154.366 81.1606L152.392 81.5228Z" fill="#407BFF"/>
<path opacity="0.3" d="M152.392 81.5228C152.793 83.3869 153.36 85.7485 154.187 88.7378L154.366 81.1606L152.392 81.5228Z" fill="black"/>
<path d="M151.709 74.5299C149.894 75.2591 148.321 81.4551 148.321 81.4551L154.565 84.4879C154.565 84.4879 157.58 76.9107 156.23 75.433C154.879 73.9552 153.8 73.6944 151.709 74.5299Z" fill="#407BFF"/>
<path opacity="0.1" d="M151.709 74.5299C149.894 75.2591 148.321 81.4551 148.321 81.4551L154.565 84.4879C154.565 84.4879 157.58 76.9107 156.23 75.433C154.879 73.9552 153.8 73.6944 151.709 74.5299Z" fill="black"/>
<path d="M162.634 171.26H156.056L155.543 169.058L162.866 169.107L162.634 171.26Z" fill="#407BFF"/>
<path opacity="0.2" d="M162.634 171.26H156.056L155.543 169.058L162.866 169.107L162.634 171.26Z" fill="black"/>
<path d="M156.331 95.0061L155.804 94.7888C155.674 94.7362 155.533 94.7187 155.394 94.7382C155.255 94.7577 155.124 94.8134 155.014 94.8997C154.904 94.986 154.819 95.0998 154.767 95.2296C154.715 95.3594 154.699 95.5006 154.72 95.6388L155.102 98.1548C155.12 98.2807 155.166 98.401 155.237 98.507C155.308 98.613 155.401 98.702 155.51 98.7676C155.62 98.8332 155.742 98.8738 155.869 98.8864C155.996 98.899 156.124 98.8834 156.244 98.8406C156.436 98.771 156.616 98.6716 156.777 98.546C156.952 98.4011 157.09 98.2173 157.181 98.0093C157.272 97.8012 157.312 97.5749 157.299 97.3483L157.246 96.3052C157.237 96.0233 157.145 95.7503 156.983 95.5195C156.82 95.2888 156.594 95.1103 156.331 95.0061Z" fill="#E4897B"/>
</svg>
