<svg width="344" height="256" viewBox="0 0 344 256" fill="none" xmlns="http://www.w3.org/2000/svg">
<path d="M344 224.969H0V225.141H344V224.969Z" fill="#E6E6E6"/>
<path d="M78.3357 230.48H54.6685V230.652H78.3357V230.48Z" fill="#E6E6E6"/>
<path d="M89.9423 230.48H82.8696V230.652H89.9423V230.48Z" fill="#E6E6E6"/>
<path d="M124.838 227.106H111.518V227.278H124.838V227.106Z" fill="#E6E6E6"/>
<path d="M296.26 234.293H266.545V234.465H296.26V234.293Z" fill="#E6E6E6"/>
<path d="M306.745 234.293H302.39V234.465H306.745V234.293Z" fill="#E6E6E6"/>
<path d="M274.065 228.26H209.613V228.432H274.065V228.26Z" fill="#E6E6E6"/>
<path d="M163.056 194.323H30.2102C29.1695 194.321 28.172 193.907 27.4368 193.171C26.7015 192.435 26.2886 191.438 26.2886 190.399V3.8892C26.2976 2.85576 26.7146 1.86763 27.4488 1.13942C28.1831 0.411223 29.1754 0.00177033 30.2102 0H163.056C164.098 0 165.097 0.413374 165.834 1.14918C166.571 1.88499 166.985 2.88296 166.985 3.92356V190.399C166.985 191.44 166.571 192.438 165.834 193.173C165.097 193.909 164.098 194.323 163.056 194.323ZM30.2102 0.137428C29.2151 0.139248 28.2614 0.535325 27.5584 1.23872C26.8554 1.94212 26.4606 2.89536 26.4606 3.8892V190.399C26.4606 191.393 26.8554 192.346 27.5584 193.049C28.2614 193.753 29.2151 194.149 30.2102 194.151H163.056C164.052 194.149 165.006 193.753 165.71 193.05C166.414 192.347 166.811 191.393 166.813 190.399V3.8892C166.811 2.89473 166.414 1.9415 165.71 1.2383C165.006 0.535102 164.052 0.139244 163.056 0.137428H30.2102Z" fill="#E6E6E6"/>
<path d="M311.877 194.323H179.025C177.983 194.321 176.985 193.907 176.249 193.171C175.512 192.436 175.098 191.439 175.096 190.399V3.8892C175.107 2.85513 175.526 1.86701 176.261 1.13899C176.996 0.410983 177.989 0.00175103 179.025 0H311.877C312.911 0.00357621 313.902 0.413828 314.634 1.14184C315.367 1.86984 315.783 2.85695 315.792 3.8892V190.399C315.792 191.437 315.38 192.433 314.646 193.168C313.913 193.904 312.917 194.319 311.877 194.323ZM179.025 0.137428C178.029 0.139244 177.075 0.535102 176.37 1.2383C175.666 1.9415 175.27 2.89473 175.268 3.8892V190.399C175.27 191.393 175.666 192.347 176.37 193.05C177.075 193.753 178.029 194.149 179.025 194.151H311.877C312.873 194.149 313.828 193.753 314.532 193.05C315.236 192.347 315.632 191.393 315.634 190.399V3.8892C315.632 2.89473 315.236 1.9415 314.532 1.2383C313.828 0.535102 312.873 0.139244 311.877 0.137428H179.025Z" fill="#E6E6E6"/>
<path d="M288.286 131.319H240.078V224.969H288.286V131.319Z" fill="#F5F5F5"/>
<path d="M288.286 131.319H284.309V224.969H288.286V131.319Z" fill="#F0F0F0"/>
<path d="M132.798 154.221H243.793V133.992H132.798V154.221Z" fill="#E0E0E0"/>
<path d="M179.079 225.038H131.49C131.308 225.038 131.133 224.965 131.004 224.836C130.875 224.707 130.802 224.533 130.802 224.35C130.802 224.168 130.875 223.993 131.004 223.865C131.133 223.736 131.308 223.663 131.49 223.663H179.079C185.959 223.663 186.874 221.657 186.874 213.7V113.378C186.874 113.195 186.947 113.021 187.076 112.892C187.205 112.763 187.38 112.691 187.562 112.691C187.745 112.691 187.92 112.763 188.049 112.892C188.178 113.021 188.25 113.195 188.25 113.378V213.7C188.25 222.207 186.93 225.038 179.079 225.038Z" fill="#E0E0E0"/>
<path d="M137.063 138.706L287.198 138.706V131.683L137.063 131.683V138.706Z" fill="#F0F0F0"/>
<path d="M138.15 131.319H89.9421V224.969H138.15V131.319Z" fill="#F5F5F5"/>
<path d="M138.144 131.319H134.167V224.969H138.144V131.319Z" fill="#F0F0F0"/>
<path d="M104.012 224.969L104.012 58.2006H62.6423L62.6423 224.969H104.012Z" fill="#FAFAFA"/>
<path d="M101.741 99.8547V63.0723H64.9128V99.8547H101.741Z" fill="#F5F5F5"/>
<path d="M75.1709 62.5776H91.504C91.504 63.5891 91.1017 64.5591 90.3856 65.2743C89.6695 65.9895 88.6983 66.3912 87.6856 66.3912H79.0168C78.5131 66.3949 78.0136 66.2989 77.5471 66.1089C77.0807 65.9188 76.6565 65.6385 76.299 65.284C75.9415 64.9295 75.6578 64.5079 75.4642 64.0434C75.2706 63.5789 75.1709 63.0808 75.1709 62.5776Z" fill="#E0E0E0"/>
<path d="M101.735 139.936V103.153H64.906V139.936H101.735Z" fill="#F5F5F5"/>
<path d="M101.741 180.016V143.234H64.9128V180.016H101.741Z" fill="#F5F5F5"/>
<path d="M101.741 220.104V183.322H64.9128V220.104H101.741Z" fill="#F5F5F5"/>
<path d="M75.1709 102.665H91.504C91.5022 103.676 91.0993 104.645 90.3836 105.36C89.6679 106.075 88.6978 106.477 87.6856 106.479H79.0168C78.5133 106.481 78.0142 106.385 77.5482 106.195C77.0822 106.004 76.6583 105.724 76.301 105.37C75.9437 105.015 75.66 104.594 75.466 104.13C75.2721 103.666 75.1718 103.168 75.1709 102.665Z" fill="#E0E0E0"/>
<path d="M75.1709 142.746H91.504C91.504 143.757 91.1017 144.727 90.3856 145.443C89.6695 146.158 88.6983 146.56 87.6856 146.56H79.0168C78.5131 146.563 78.0136 146.467 77.5471 146.277C77.0807 146.087 76.6565 145.807 76.299 145.452C75.9415 145.098 75.6578 144.676 75.4642 144.212C75.2706 143.747 75.1709 143.249 75.1709 142.746Z" fill="#E0E0E0"/>
<path d="M75.1709 182.827H91.504C91.504 183.838 91.1017 184.808 90.3856 185.523C89.6695 186.238 88.6983 186.64 87.6856 186.64H79.0168C78.5131 186.644 78.0136 186.548 77.5471 186.358C77.0807 186.168 76.6565 185.888 76.299 185.533C75.9415 185.179 75.6578 184.757 75.4642 184.292C75.2706 183.828 75.1709 183.33 75.1709 182.827Z" fill="#E0E0E0"/>
<path d="M62.6423 224.969L62.6423 58.2006H41.9817L41.9817 224.969H62.6423Z" fill="#F0F0F0"/>
<path d="M181.9 131.319H171.505L174.03 111.103H184.432L181.9 131.319Z" fill="#F0F0F0"/>
<path d="M184.205 131.319H173.802L176.334 111.103H186.73L184.205 131.319Z" fill="#F5F5F5"/>
<path d="M206.51 131.319H198.99L197.552 129.031H205.065L206.51 131.319Z" fill="#F0F0F0"/>
<path d="M246.799 131.319H201.288L199.85 129.031H240.662L246.799 131.319Z" fill="#FAFAFA"/>
<path d="M148.924 125.519H152.213C153.753 125.519 155.23 126.13 156.319 127.218C157.408 128.306 158.02 129.781 158.02 131.319H143.104C143.104 130.556 143.255 129.801 143.547 129.096C143.84 128.392 144.269 127.752 144.81 127.213C145.35 126.674 145.992 126.248 146.698 125.957C147.404 125.666 148.161 125.518 148.924 125.519Z" fill="#F0F0F0"/>
<path d="M185.464 121.211H175.069L176.335 111.103H186.73L185.464 121.211Z" fill="#F0F0F0"/>
<path d="M147.232 118.792H220.848C220.993 118.793 221.136 118.762 221.268 118.702C221.4 118.643 221.518 118.556 221.614 118.447C221.71 118.339 221.781 118.211 221.823 118.073C221.866 117.934 221.878 117.788 221.859 117.645L216.19 72.3487C216.16 72.1021 216.041 71.8752 215.854 71.7106C215.668 71.546 215.428 71.4553 215.179 71.4554H141.584C141.439 71.4553 141.297 71.4859 141.165 71.5449C141.034 71.604 140.916 71.6904 140.821 71.7982C140.725 71.906 140.653 72.0329 140.611 72.1705C140.568 72.308 140.555 72.4531 140.572 72.5961L146.241 117.899C146.271 118.142 146.388 118.366 146.57 118.53C146.752 118.695 146.987 118.788 147.232 118.792Z" fill="#F0F0F0"/>
<path d="M148.347 118.792H221.915C222.059 118.793 222.203 118.762 222.335 118.702C222.467 118.643 222.585 118.556 222.68 118.447C222.776 118.339 222.848 118.211 222.89 118.073C222.932 117.934 222.945 117.788 222.926 117.645L217.257 72.3487C217.225 72.1027 217.105 71.8766 216.919 71.7123C216.733 71.548 216.494 71.4567 216.245 71.4554H142.678C142.533 71.4553 142.391 71.4859 142.259 71.5449C142.128 71.604 142.01 71.6904 141.915 71.7982C141.819 71.906 141.747 72.0329 141.705 72.1705C141.662 72.308 141.649 72.4531 141.666 72.5961L147.335 117.899C147.366 118.146 147.485 118.373 147.671 118.537C147.858 118.702 148.098 118.793 148.347 118.792Z" fill="#F5F5F5"/>
<path d="M220.552 116.284L215.248 73.8879C215.238 73.8187 215.203 73.7555 215.15 73.71C215.096 73.6645 215.029 73.6398 214.959 73.6406H144.322C144.281 73.6391 144.241 73.6466 144.204 73.6624C144.166 73.6783 144.133 73.7022 144.106 73.7324C144.079 73.7625 144.059 73.7983 144.048 73.8371C144.036 73.8758 144.033 73.9167 144.04 73.9567L149.344 116.36C149.352 116.429 149.386 116.492 149.438 116.537C149.49 116.583 149.557 116.608 149.626 116.607H220.27C220.31 116.607 220.35 116.597 220.387 116.58C220.424 116.563 220.456 116.539 220.483 116.508C220.509 116.478 220.529 116.442 220.541 116.404C220.553 116.365 220.557 116.324 220.552 116.284Z" fill="#E0E0E0"/>
<path d="M193.665 131.319H176.727V131.106C176.727 130.659 176.904 130.231 177.22 129.915C177.537 129.6 177.965 129.422 178.412 129.422H191.98C192.427 129.422 192.855 129.6 193.172 129.915C193.488 130.231 193.665 130.659 193.665 131.106V131.319Z" fill="#FAFAFA"/>
<path d="M178.701 131.319H167.212V131.106C167.212 130.659 167.389 130.231 167.705 129.915C168.021 129.6 168.45 129.422 168.897 129.422H177.016C177.463 129.422 177.891 129.6 178.207 129.915C178.524 130.231 178.701 130.659 178.701 131.106V131.319Z" fill="#F0F0F0"/>
<path d="M80.1244 39.3661V39.3317C80.2826 38.8026 80.434 38.2667 80.5647 37.7307C80.7976 38.1012 81.1145 38.4117 81.4898 38.6373C81.8651 38.8629 82.2882 38.9972 82.725 39.0294H82.9108C84.0598 38.9194 85.1606 37.8063 85.8554 36.0541C85.8689 36.0226 85.8758 35.9887 85.8758 35.9544C85.8758 35.9202 85.8689 35.8863 85.8554 35.8548C85.8221 35.7921 85.7652 35.7451 85.6972 35.7243C84.8725 35.5155 84.013 35.4829 83.1748 35.6285C82.3366 35.7741 81.5387 36.0948 80.833 36.5694C80.9362 36.061 81.0257 35.5456 81.1014 35.0371C81.2828 35.0721 81.467 35.0905 81.6518 35.0921C83.5231 35.0921 84.8991 33.4223 84.9679 33.3399C84.9922 33.3096 85.0089 33.2741 85.0169 33.2361C85.0248 33.1982 85.0237 33.1589 85.0137 33.1214C85.0036 33.084 84.9849 33.0494 84.9591 33.0205C84.9332 32.9916 84.9009 32.9692 84.8647 32.9551C84.43 32.7395 83.9545 32.6183 83.4695 32.5994C82.9846 32.5804 82.5011 32.6642 82.0508 32.8451C81.5702 33.0893 81.1816 33.4822 80.9431 33.9652C80.5926 32.8899 79.9516 31.9322 79.091 31.1975C78.2303 30.4628 77.1832 29.9796 76.0652 29.8011C76.0305 29.7929 75.9943 29.793 75.9597 29.8014C75.925 29.8097 75.8928 29.8261 75.8657 29.8492C75.8368 29.8695 75.8131 29.8962 75.7964 29.9272C75.7797 29.9582 75.7704 29.9927 75.7694 30.0279C75.673 31.7251 75.7281 33.8071 77.0009 34.7966C77.5333 35.1887 78.1838 35.3875 78.8447 35.3601C79.4368 35.3458 80.0244 35.2534 80.5922 35.0852C80.4105 36.3132 80.1462 37.5276 79.801 38.7202C78.5559 37.0258 76.7895 35.7853 74.7718 35.1883C74.708 35.1735 74.6409 35.1838 74.5846 35.217C74.5282 35.2503 74.4868 35.304 74.469 35.3669C74.0838 36.8305 74.2833 38.0193 75.0401 38.8026C75.4249 39.1479 75.8755 39.4123 76.3648 39.5799C76.8542 39.7476 77.3724 39.8151 77.8884 39.7784C78.4431 39.7749 78.9961 39.7173 79.5396 39.6066C79.2231 40.6098 78.8516 41.5924 78.5007 42.5269C77.737 41.8398 75.4873 40.1357 73.038 40.8503C72.9722 40.8721 72.9178 40.919 72.8866 40.9809C72.8732 41.0124 72.8663 41.0463 72.8663 41.0805C72.8663 41.1147 72.8732 41.1486 72.8866 41.1801C73.5746 42.8018 74.3108 43.7019 75.2602 44.0111C75.5133 44.0945 75.7781 44.1362 76.0446 44.1348C76.7716 44.104 77.4801 43.8964 78.1086 43.5301C77.5857 44.7739 77.0284 45.9351 76.4986 46.9658C75.8699 46.3254 75.0798 45.8661 74.2117 45.6364C73.3436 45.4066 72.4295 45.4149 71.5657 45.6603C71.5067 45.6719 71.4543 45.7052 71.4187 45.7535C71.383 45.8018 71.3667 45.8617 71.373 45.9214C71.4339 46.441 71.6306 46.9356 71.9434 47.3553C72.2562 47.775 72.674 48.1052 73.155 48.3126C73.5178 48.4685 73.9089 48.548 74.3039 48.5462C74.8519 48.5394 75.39 48.4003 75.8726 48.1408C75.3359 49.1372 74.8406 49.9686 74.4553 50.6008H69.7769C69.0338 49.3296 68.1738 47.7492 67.3345 45.9763C67.7254 46.0929 68.1305 46.1553 68.5385 46.1619C69.0402 46.1681 69.5366 46.0589 69.9892 45.8426C70.4419 45.6264 70.8386 45.3089 71.1486 44.9149C71.4586 44.5209 71.6736 44.0609 71.777 43.5705C71.8803 43.0801 71.8692 42.5726 71.7446 42.0871C71.7285 42.0308 71.6923 41.9822 71.6429 41.9506C71.5935 41.9189 71.5342 41.9064 71.4762 41.9154C70.5208 42.0084 69.6019 42.3299 68.7972 42.8525C67.9924 43.3752 67.3255 44.0837 66.8529 44.9182C66.3025 43.6813 65.7658 42.3689 65.298 41.0152C65.8935 41.3536 66.5606 41.5467 67.245 41.5787C67.5166 41.5818 67.7867 41.5376 68.0431 41.4481C69.4191 40.9946 70.2103 39.3386 70.8846 37.6208C70.8997 37.5897 70.9076 37.5557 70.9076 37.5211C70.9076 37.4866 70.8997 37.4525 70.8846 37.4215C70.8687 37.3899 70.8464 37.362 70.8192 37.3396C70.792 37.3171 70.7603 37.3005 70.7263 37.2909C67.9743 36.5213 65.7108 39.1668 65.009 40.1151C64.6421 38.9709 64.3366 37.808 64.094 36.6313C64.6721 36.7443 65.2594 36.8041 65.8484 36.8099C66.4338 36.8527 67.0217 36.7747 67.5756 36.5808C68.1295 36.387 68.6376 36.0814 69.0682 35.683C69.9007 34.8035 70.1002 33.4842 69.653 31.8763C69.6451 31.8448 69.6309 31.8152 69.6112 31.7893C69.5915 31.7634 69.5667 31.7418 69.5384 31.7258C69.5102 31.7097 69.4789 31.6995 69.4466 31.6959C69.4142 31.6922 69.3815 31.6952 69.3503 31.7045C67.1548 32.3888 65.2436 33.7715 63.9082 35.6418L63.805 35.0165C63.7978 34.9624 63.7737 34.9119 63.7362 34.8722C63.6228 34.4656 63.4251 34.0874 63.1561 33.7619C62.8871 33.4364 62.5527 33.1709 62.1745 32.9826C61.6781 32.7913 61.1469 32.7071 60.6157 32.7356C60.0845 32.764 59.5653 32.9044 59.0922 33.1475C59.0559 33.1632 59.0234 33.1867 58.9973 33.2164C58.9711 33.2461 58.9518 33.2813 58.9409 33.3193C58.9324 33.3566 58.933 33.3954 58.9426 33.4324C58.9522 33.4695 58.9704 33.5037 58.9959 33.5323C59.0647 33.6216 60.5783 35.4082 62.6148 35.4082C62.8343 35.4053 63.0531 35.3823 63.2684 35.3395C63.3578 35.9235 63.4679 36.5076 63.5918 37.0848C62.8072 36.5689 61.922 36.2251 60.9946 36.0758C60.0672 35.9266 59.1187 35.9754 58.2116 36.219C58.1436 36.2398 58.0867 36.2868 58.0534 36.3495C58.0397 36.3822 58.0327 36.4172 58.0327 36.4526C58.0327 36.488 58.0397 36.523 58.0534 36.5557C58.8446 38.4659 60.0692 39.6753 61.3351 39.7784H61.5071C62.147 39.7784 63.0138 39.4829 63.8945 38.3079C64.2413 39.6439 64.6593 40.9605 65.1466 42.2521C63.9564 41.6886 61.2801 40.7197 59.3674 42.1971C59.3411 42.2161 59.319 42.2402 59.3022 42.2679C59.2855 42.2957 59.2746 42.3265 59.2701 42.3586C59.2656 42.3907 59.2676 42.4234 59.2761 42.4547C59.2845 42.4859 59.2992 42.5152 59.3193 42.5407C60.5577 44.2241 61.6998 45.0418 62.8212 45.0418C63.75 45.0418 64.6375 44.4578 65.525 43.3034C66.0342 44.5677 66.5846 45.7771 67.1281 46.8902C65.9378 46.155 64.6306 46.2718 63.0895 47.2407C63.0539 47.262 63.0244 47.2922 63.0039 47.3284C62.9834 47.3645 62.9726 47.4053 62.9726 47.4468C62.9697 47.4873 62.9778 47.5277 62.996 47.564C63.0141 47.6002 63.0417 47.6309 63.0758 47.653C63.9936 48.3137 65.0776 48.7063 66.2062 48.7867C66.7884 48.7983 67.3593 48.6251 67.8367 48.292C68.277 49.1372 68.7105 49.9136 69.1095 50.6077H66.9836V51.817H67.7542L68.394 58.2211H77.8127L78.4457 51.817H79.2231V50.6077H74.9919C75.4598 49.8312 76.0583 48.7936 76.6982 47.5774C76.7173 47.5529 76.7313 47.5249 76.7394 47.4949C76.9046 47.1857 77.0628 46.8696 77.2279 46.5398C77.5077 46.9626 77.8848 47.3124 78.3277 47.5598C78.7706 47.8073 79.2663 47.9453 79.7735 47.9622C79.8789 47.969 79.9846 47.969 80.09 47.9622C80.6505 47.8987 81.1824 47.6815 81.6269 47.3347C82.0713 46.9878 82.4109 46.5248 82.6081 45.997C82.6284 45.9427 82.6285 45.883 82.6083 45.8287C82.588 45.7744 82.5489 45.7293 82.498 45.7015C81.7766 45.2945 80.9686 45.0648 80.1408 45.0313C79.3129 44.9979 78.489 45.1616 77.737 45.5091C78.0948 44.7601 78.425 43.9562 78.7828 43.1247C78.8098 43.0939 78.8266 43.0555 78.831 43.0148C78.9273 42.7812 79.0167 42.5475 79.113 42.3276C79.9318 43.3584 80.7436 43.8668 81.5898 43.8668C82.615 43.8668 83.6538 43.111 84.7684 41.5512C84.8071 41.4991 84.8237 41.4338 84.8147 41.3696C84.8057 41.3053 84.7718 41.2471 84.7202 41.2076C82.9658 39.8952 80.5922 40.7953 79.4777 41.3176C79.7047 40.6991 79.9111 40.0738 80.1038 39.4348L80.1244 39.3661Z" fill="#E0E0E0"/>
<path d="M276.899 36.4664H241.715V75.0492H276.899V36.4664Z" fill="#E0E0E0"/>
<path d="M272.558 38.0468C272.529 38.0538 272.498 38.0538 272.469 38.0468C272.386 37.9918 264.075 33.0582 261.461 33.0582C258.846 33.0582 250.9 37.9918 250.817 38.0399C250.798 38.0523 250.777 38.0607 250.755 38.0647C250.733 38.0686 250.71 38.068 250.688 38.0629C250.666 38.0577 250.646 38.0481 250.628 38.0347C250.61 38.0213 250.595 38.0044 250.583 37.9849C250.56 37.9465 250.553 37.9006 250.563 37.8569C250.573 37.8133 250.6 37.7754 250.638 37.7513C250.969 37.5452 258.722 32.7146 261.461 32.7146C264.199 32.7146 272.331 37.5246 272.675 37.7513C272.694 37.7626 272.711 37.7777 272.725 37.7957C272.738 37.8138 272.748 37.8344 272.753 37.8563C272.758 37.8781 272.759 37.9008 272.755 37.923C272.751 37.9451 272.742 37.9662 272.73 37.9849C272.711 38.011 272.684 38.0308 272.653 38.0418C272.623 38.0528 272.59 38.0545 272.558 38.0468Z" fill="#EBEBEB"/>
<path d="M280.704 36.4664H244.364V75.0492H280.704V36.4664Z" fill="#F5F5F5"/>
<path d="M277.663 72.0051V39.5035H247.411V72.0051H277.663Z" fill="white"/>
<path d="M268.396 61.6097C271.634 58.3762 271.634 53.1336 268.396 49.9C265.159 46.6665 259.91 46.6665 256.672 49.9C253.434 53.1336 253.434 58.3762 256.672 61.6097C259.91 64.8433 265.159 64.8433 268.396 61.6097Z" fill="#E0E0E0"/>
<path d="M261.832 178.14H292.668C295.498 178.143 298.215 177.036 300.236 175.059C302.257 173.081 303.421 170.391 303.477 167.565L304.633 111.179C304.654 110.132 304.465 109.092 304.079 108.119C303.692 107.147 303.116 106.26 302.382 105.513C301.648 104.766 300.773 104.172 299.807 103.767C298.84 103.361 297.803 103.153 296.755 103.153H277.422C275.488 103.153 273.621 103.863 272.179 105.15C270.736 106.436 269.818 108.208 269.6 110.128L261.832 178.14Z" fill="#E6E6E6"/>
<path d="M278.661 178.14H245.802C245.393 178.14 245.001 177.978 244.712 177.69C244.423 177.401 244.261 177.009 244.261 176.601V176.457C244.261 175.338 244.706 174.265 245.498 173.474C246.29 172.682 247.365 172.238 248.485 172.238H278.661V178.14Z" fill="#E6E6E6"/>
<path d="M276.067 225.738C275.907 225.742 275.751 225.69 275.625 225.591C275.5 225.492 275.413 225.352 275.379 225.196L265.747 178.828H248.96L239.328 225.196C239.29 225.378 239.182 225.538 239.027 225.64C238.871 225.743 238.681 225.779 238.499 225.742C238.316 225.704 238.156 225.596 238.054 225.441C237.951 225.286 237.914 225.096 237.952 224.914L247.708 178.003C247.74 177.845 247.826 177.704 247.952 177.604C248.078 177.503 248.235 177.45 248.396 177.453H266.284C266.445 177.45 266.602 177.503 266.727 177.604C266.853 177.704 266.939 177.845 266.972 178.003L276.721 224.914C276.757 225.091 276.722 225.276 276.623 225.428C276.524 225.58 276.368 225.687 276.191 225.725C276.15 225.734 276.109 225.739 276.067 225.738Z" fill="#E6E6E6"/>
<path d="M265.602 225.738C265.557 225.745 265.51 225.745 265.465 225.738C265.376 225.72 265.292 225.685 265.217 225.635C265.142 225.584 265.078 225.519 265.028 225.444C264.979 225.369 264.944 225.284 264.927 225.196C264.91 225.107 264.91 225.016 264.928 224.928L274.684 178.017C274.716 177.859 274.803 177.718 274.928 177.617C275.054 177.517 275.211 177.464 275.372 177.467H293.26C293.421 177.464 293.578 177.517 293.704 177.617C293.829 177.718 293.916 177.859 293.948 178.017L303.697 224.928C303.716 225.018 303.716 225.111 303.699 225.201C303.681 225.292 303.646 225.378 303.595 225.455C303.544 225.532 303.479 225.598 303.403 225.649C303.326 225.701 303.24 225.737 303.15 225.756C303.06 225.774 302.967 225.775 302.876 225.757C302.785 225.74 302.699 225.705 302.622 225.654C302.545 225.603 302.479 225.538 302.427 225.461C302.376 225.385 302.34 225.3 302.321 225.209L292.689 178.841H275.888L266.256 225.209C266.221 225.357 266.138 225.489 266.02 225.585C265.901 225.681 265.755 225.735 265.602 225.738Z" fill="#E6E6E6"/>
<path d="M172 256C245.673 256 305.396 252.518 305.396 248.222C305.396 243.926 245.673 240.443 172 240.443C98.3273 240.443 38.6038 243.926 38.6038 248.222C38.6038 252.518 98.3273 256 172 256Z" fill="#F5F5F5"/>
<path d="M183.772 241.872C183.556 241.872 183.347 241.797 183.181 241.661C183.014 241.524 182.9 241.334 182.857 241.123L169.785 176.835H147.019L133.947 241.123C133.884 241.352 133.737 241.549 133.535 241.674C133.333 241.798 133.091 241.841 132.858 241.794C132.625 241.747 132.419 241.613 132.281 241.42C132.143 241.226 132.085 240.988 132.117 240.752L145.34 175.715C145.384 175.504 145.499 175.315 145.665 175.179C145.832 175.043 146.04 174.968 146.255 174.966H170.542C170.757 174.966 170.966 175.041 171.133 175.178C171.299 175.314 171.414 175.504 171.457 175.715L184.687 240.752C184.736 240.995 184.686 241.246 184.549 241.452C184.413 241.659 184.2 241.802 183.958 241.852L183.772 241.872Z" fill="#407BFF"/>
<path d="M147.232 241.872C147.017 241.871 146.809 241.795 146.642 241.659C146.476 241.523 146.361 241.334 146.317 241.123L133.245 176.835H110.479L97.407 241.123C97.3897 241.25 97.3466 241.372 97.2804 241.481C97.2141 241.591 97.1261 241.685 97.0217 241.759C96.9174 241.833 96.7989 241.885 96.6737 241.912C96.5485 241.938 96.4191 241.939 96.2937 241.913C96.1683 241.888 96.0494 241.837 95.9444 241.764C95.8395 241.691 95.7506 241.597 95.6835 241.488C95.6163 241.379 95.5722 241.258 95.5538 241.131C95.5355 241.005 95.5434 240.876 95.5769 240.752L108.807 175.715C108.85 175.504 108.964 175.314 109.131 175.178C109.298 175.041 109.507 174.966 109.722 174.966H134.009C134.223 174.967 134.431 175.042 134.597 175.178C134.762 175.315 134.875 175.504 134.917 175.715L148.147 240.752C148.196 240.995 148.146 241.246 148.01 241.452C147.873 241.659 147.66 241.802 147.418 241.852L147.232 241.872Z" fill="#407BFF"/>
<path d="M152.344 175.907H110.513C106.674 175.908 102.987 174.405 100.245 171.721C97.5022 169.037 95.9227 165.387 95.8452 161.553L94.2904 98.0613C94.2611 96.6421 94.5156 95.2314 95.039 93.9116C95.5624 92.5919 96.3441 91.3897 97.3385 90.3755C98.3328 89.3613 99.5198 88.5554 100.83 88.005C102.14 87.4546 103.547 87.1708 104.968 87.1702H131.195C133.819 87.1719 136.352 88.1378 138.309 89.8839C140.267 91.63 141.513 94.0344 141.811 96.6389L152.344 175.907Z" fill="#407BFF"/>
<path d="M129.53 167.868H170.466C171.986 167.868 173.443 168.471 174.518 169.544C175.593 170.618 176.197 172.073 176.197 173.592V173.791C176.197 174.338 175.979 174.862 175.592 175.248C175.205 175.635 174.68 175.852 174.133 175.852H129.53V167.868Z" fill="#407BFF"/>
<g opacity="0.3">
<path opacity="0.3" d="M183.772 241.872C183.556 241.872 183.347 241.797 183.181 241.661C183.014 241.524 182.9 241.334 182.857 241.123L169.785 176.835H147.019L133.947 241.123C133.884 241.352 133.737 241.549 133.535 241.674C133.333 241.798 133.091 241.841 132.858 241.794C132.625 241.747 132.419 241.613 132.281 241.42C132.143 241.226 132.085 240.988 132.117 240.752L145.34 175.715C145.384 175.504 145.499 175.315 145.665 175.179C145.832 175.043 146.04 174.968 146.255 174.966H170.542C170.757 174.966 170.966 175.041 171.133 175.178C171.299 175.314 171.414 175.504 171.457 175.715L184.687 240.752C184.736 240.995 184.686 241.246 184.549 241.452C184.413 241.659 184.2 241.802 183.958 241.852L183.772 241.872Z" fill="black"/>
<path opacity="0.3" d="M147.232 241.872C147.017 241.871 146.809 241.795 146.642 241.659C146.476 241.523 146.361 241.334 146.317 241.123L133.245 176.835H110.479L97.407 241.123C97.3897 241.25 97.3466 241.372 97.2804 241.481C97.2141 241.591 97.1261 241.685 97.0217 241.759C96.9174 241.833 96.7989 241.885 96.6737 241.912C96.5485 241.938 96.4191 241.939 96.2937 241.913C96.1683 241.888 96.0494 241.837 95.9444 241.764C95.8395 241.691 95.7506 241.597 95.6835 241.488C95.6163 241.379 95.5722 241.258 95.5538 241.131C95.5355 241.005 95.5434 240.876 95.5769 240.752L108.807 175.715C108.85 175.504 108.964 175.314 109.131 175.178C109.298 175.041 109.507 174.966 109.722 174.966H134.009C134.223 174.967 134.431 175.042 134.597 175.178C134.762 175.315 134.875 175.504 134.917 175.715L148.147 240.752C148.196 240.995 148.146 241.246 148.01 241.452C147.873 241.659 147.66 241.802 147.418 241.852L147.232 241.872Z" fill="black"/>
<path opacity="0.3" d="M152.344 175.907H110.513C106.674 175.908 102.987 174.405 100.245 171.721C97.5022 169.037 95.9227 165.387 95.8452 161.553L94.2904 98.0613C94.2611 96.6421 94.5156 95.2314 95.039 93.9116C95.5624 92.5919 96.3441 91.3897 97.3385 90.3755C98.3328 89.3613 99.5198 88.5554 100.83 88.005C102.14 87.4546 103.547 87.1708 104.968 87.1702H131.195C133.819 87.1719 136.352 88.1378 138.309 89.8839C140.267 91.63 141.513 94.0344 141.811 96.6389L152.344 175.907Z" fill="black"/>
<path opacity="0.3" d="M129.53 167.868H170.466C171.986 167.868 173.443 168.471 174.518 169.544C175.593 170.618 176.197 172.073 176.197 173.592V173.791C176.197 174.338 175.979 174.862 175.592 175.248C175.205 175.635 174.68 175.852 174.133 175.852H129.53V167.868Z" fill="black"/>
</g>
<path d="M140.703 83.6658C140.703 83.6658 146.551 91.293 142.767 106.479C138.983 121.664 119.457 113.419 118.274 99.7311C116.898 83.5971 135.034 94.7218 138.226 80.3744L140.703 83.6658Z" fill="#263238"/>
<path d="M136.458 79.1376C133.919 80.9241 132.915 83.5215 135.722 86.0639C138.529 88.6063 142.533 88.5239 143.744 87.4794C144.955 86.435 144.714 81.1303 144.714 81.1303L136.458 79.1376Z" fill="#407BFF"/>
<path opacity="0.8" d="M136.458 79.1376C133.919 80.9241 132.915 83.5215 135.722 86.0639C138.529 88.6063 142.533 88.5239 143.744 87.4794C144.955 86.435 144.714 81.1303 144.714 81.1303L136.458 79.1376Z" fill="white"/>
<path d="M168.519 112.938C168.587 113.247 168.704 113.728 168.814 114.133L169.145 115.425C169.379 116.291 169.633 117.157 169.902 118.023C170.411 119.768 170.975 121.506 171.566 123.245C172.158 124.983 172.764 126.681 173.424 128.44C173.747 129.299 174.071 130.164 174.415 131.023L174.814 132.054C174.894 132.23 174.998 132.395 175.123 132.542C176.103 133.531 177.296 134.283 178.612 134.741C180.218 135.387 181.875 135.901 183.565 136.28C185.313 136.685 187.108 137.022 188.925 137.304C190.741 137.585 192.606 137.812 194.394 137.991L194.456 141.688C190.531 142.093 186.575 142.093 182.65 141.688C180.599 141.477 178.57 141.083 176.589 140.513C175.516 140.189 174.471 139.778 173.465 139.283C172.308 138.721 171.248 137.976 170.328 137.077C169.794 136.546 169.331 135.948 168.952 135.297C168.849 135.132 168.759 134.947 168.663 134.775L168.484 134.404L168.168 133.717C167.741 132.844 167.315 131.972 166.922 131.085C166.124 129.312 165.347 127.526 164.652 125.705C163.957 123.884 163.276 122.049 162.698 120.208C162.416 119.26 162.141 118.318 161.886 117.349L161.508 115.899C161.398 115.377 161.295 114.944 161.185 114.326L168.519 112.938Z" fill="#E58A7B"/>
<path d="M166.18 105.132C169.131 105.881 171.188 118.002 171.188 118.002L163.063 123.499C163.063 123.499 155.268 111.268 157.559 108.032C159.905 104.706 161.873 104.06 166.18 105.132Z" fill="#407BFF"/>
<path opacity="0.5" d="M166.18 105.132C169.131 105.881 171.188 118.002 171.188 118.002L163.063 123.499C163.063 123.499 155.268 111.268 157.559 108.032C159.905 104.706 161.873 104.06 166.18 105.132Z" fill="white"/>
<path opacity="0.2" d="M165.12 108.183L158.054 113.776C159.43 117.174 161.104 120.444 163.056 123.547L168.691 119.72L165.12 108.183Z" fill="#407BFF"/>
<path d="M166.179 105.132C166.179 105.132 169.619 106.328 162.739 148.264H133.692C134.181 136.452 134.194 129.168 128.546 104.919C132.613 104.082 136.736 103.54 140.882 103.297C145.277 102.984 149.689 102.984 154.084 103.297C159.754 103.84 166.179 105.132 166.179 105.132Z" fill="#407BFF"/>
<path opacity="0.5" d="M166.179 105.132C166.179 105.132 169.619 106.328 162.739 148.264H133.692C134.181 136.452 134.194 129.168 128.546 104.919C132.613 104.082 136.736 103.54 140.882 103.297C145.277 102.984 149.689 102.984 154.084 103.297C159.754 103.84 166.179 105.132 166.179 105.132Z" fill="white"/>
<path d="M193.328 137.957L198.399 132.817L199.087 140.059C199.087 140.059 195.282 142.629 192.654 141.248L193.328 137.957Z" fill="#E58A7B"/>
<path d="M204.384 132.054L204.611 138.142L199.08 140.059L198.412 132.817L204.384 132.054Z" fill="#E58A7B"/>
<path d="M195.708 235.207H202.864L203.964 218.654H196.809L195.708 235.207Z" fill="#E58A7B"/>
<path d="M168.017 235.207H175.172L177.47 218.654H170.315L168.017 235.207Z" fill="#E58A7B"/>
<path d="M175.619 234.376H167.576C167.438 234.373 167.303 234.421 167.198 234.511C167.092 234.601 167.024 234.726 167.005 234.864L166.09 241.22C166.074 241.38 166.091 241.542 166.142 241.696C166.192 241.849 166.274 241.99 166.382 242.11C166.49 242.23 166.623 242.326 166.77 242.391C166.918 242.457 167.078 242.491 167.239 242.491C170.039 242.443 171.367 242.278 174.924 242.278C177.098 242.278 182.678 242.505 185.684 242.505C188.691 242.505 188.849 239.536 187.597 239.268C181.99 238.059 178.701 236.403 176.809 234.816C176.477 234.532 176.055 234.376 175.619 234.376Z" fill="#263238"/>
<path d="M203.421 234.376H195.392C195.254 234.374 195.12 234.423 195.015 234.513C194.91 234.602 194.841 234.727 194.821 234.864L193.906 241.22C193.889 241.38 193.907 241.542 193.957 241.696C194.008 241.849 194.09 241.99 194.198 242.11C194.306 242.23 194.438 242.326 194.586 242.391C194.733 242.457 194.893 242.491 195.055 242.491C197.855 242.443 199.183 242.278 202.74 242.278C204.921 242.278 209.413 242.505 212.42 242.505C215.426 242.505 215.585 239.536 214.333 239.268C208.725 238.059 206.517 236.403 204.632 234.816C204.293 234.53 203.864 234.374 203.421 234.376Z" fill="#263238"/>
<path d="M160.476 74.0184C163.049 74.1833 164.357 87.0741 156.809 86.3251C149.262 85.5761 160.476 74.0184 160.476 74.0184Z" fill="#263238"/>
<path d="M203.965 218.654L203.393 227.188H196.238L196.802 218.654H203.965Z" fill="#CF6F64"/>
<path d="M170.315 218.654H177.477L176.286 227.188H169.124L170.315 218.654Z" fill="#CF6F64"/>
<path opacity="0.2" d="M131.449 118.401C132.137 121.919 132.626 124.956 132.997 127.691L134.697 114.56L131.449 118.401Z" fill="#407BFF"/>
<path d="M142.189 88.4827C143.022 92.7223 143.854 100.494 140.882 103.325C140.882 103.325 142.045 107.626 149.936 107.626C158.612 107.626 154.064 103.325 154.064 103.325C149.324 102.198 149.447 98.6867 150.273 95.3953L142.189 88.4827Z" fill="#E58A7B"/>
<path d="M148.367 108.547L151.009 107.599L150.658 106.877L148.367 108.547Z" fill="#263238"/>
<path d="M153.493 107.997L151.009 107.599L151.546 106.795L153.493 107.997Z" fill="#263238"/>
<path d="M141.845 101.325L140.049 103.071C139.996 103.126 139.966 103.2 139.966 103.277C139.966 103.354 139.996 103.428 140.049 103.483L147.617 112.093C147.977 110.048 149.074 108.205 150.7 106.912C144.439 104.548 142.808 102.102 142.251 101.415C142.238 101.375 142.215 101.339 142.184 101.311C142.153 101.282 142.115 101.263 142.074 101.254C142.033 101.245 141.99 101.247 141.95 101.259C141.91 101.272 141.874 101.294 141.845 101.325Z" fill="#407BFF"/>
<path d="M152.66 102.645L154.889 103.249C154.956 103.268 155.017 103.304 155.065 103.353C155.113 103.403 155.148 103.464 155.165 103.531C155.794 106.355 155.676 109.294 154.821 112.058C154.504 110.89 153.445 108.094 151.546 106.795C153.61 105.373 152.777 103.538 152.481 102.844C152.472 102.818 152.469 102.79 152.474 102.763C152.48 102.736 152.492 102.711 152.51 102.69C152.529 102.67 152.553 102.655 152.579 102.647C152.605 102.639 152.633 102.638 152.66 102.645Z" fill="#407BFF"/>
<path d="M145.498 91.2999L150.314 95.3884C150.114 96.1545 149.978 96.936 149.908 97.7247C148.099 97.4636 145.615 95.4846 145.423 93.6018C145.305 92.8365 145.33 92.0559 145.498 91.2999Z" fill="#CF6F64"/>
<path d="M141.728 77.3097C140.909 84.3529 140.407 87.3213 143.297 91.5266C147.631 97.8551 156.479 97.3192 159.389 90.6608C162.01 84.669 162.905 74.1695 156.575 70.1566C155.183 69.269 153.586 68.7517 151.937 68.6539C150.289 68.556 148.642 68.881 147.154 69.5977C145.666 70.3145 144.387 71.3994 143.437 72.7491C142.488 74.0989 141.899 75.6689 141.728 77.3097Z" fill="#E58A7B"/>
<path d="M157.855 65.6765C146.193 61.0796 137.435 66.2675 135.625 73.6405C132.784 85.0882 141.859 85.8921 141.859 85.8921L142.994 82.9649C144.624 83.9475 149.186 83.5146 147.81 75.0147C146.998 70.2048 153.094 76.9044 160.827 76.1554C162.884 75.9561 165.698 68.7686 157.855 65.6765Z" fill="#263238"/>
<path d="M161.824 68.5076C160.29 66.1507 157.153 64.1305 150.651 63.1754C150.651 63.1754 154.029 63.9381 155.123 66.405C156.217 68.8718 163.675 71.3455 161.824 68.5076Z" fill="#263238"/>
<path d="M139.485 83.4048C139.438 84.0821 139.524 84.7622 139.74 85.406C139.957 86.0498 140.298 86.6447 140.744 87.1565C141.948 88.5308 143.531 87.6856 144.026 86.0365C144.466 84.5454 144.377 82.0442 142.767 81.2884C141.157 80.5325 139.616 81.7282 139.485 83.4048Z" fill="#E58A7B"/>
<path d="M162.76 148.291C162.76 148.291 210.741 152.751 210.273 174.54C209.785 197.215 204.928 225.539 204.928 225.539H195.014C195.014 225.539 194.167 201.572 193.878 179.247C193.734 167.62 147.37 165.291 147.37 165.291L141.384 148.291H162.76Z" fill="#263238"/>
<path d="M155.082 148.291C155.082 148.291 186.09 158.564 186.875 171.276C188.312 194.68 178.013 225.56 178.013 225.56H168.25C168.25 225.56 168.808 205.083 169.97 183.878C171.443 157.231 124.37 183.507 133.692 148.312L155.082 148.291Z" fill="#263238"/>
<path d="M151.931 81.1509C151.828 81.7143 152.048 82.2297 152.42 82.2984C152.792 82.3671 153.17 81.9548 153.273 81.3914C153.377 80.8279 153.156 80.3057 152.785 80.2439C152.413 80.182 152.048 80.5806 151.931 81.1509Z" fill="#263238"/>
<path d="M158.35 82.2984C158.247 82.8618 158.467 83.3772 158.839 83.4459C159.211 83.5146 159.596 83.1023 159.699 82.5388C159.802 81.9754 159.582 81.4532 159.211 81.3913C158.839 81.3295 158.453 81.728 158.35 82.2984Z" fill="#263238"/>
<path d="M159.038 81.3917L160.477 81.2402C160.477 81.2402 159.616 82.1832 159.038 81.3917Z" fill="#263238"/>
<path d="M156.479 82.965C156.755 84.3497 157.218 85.6905 157.856 86.9504C157.531 87.0977 157.179 87.174 156.823 87.174C156.467 87.174 156.115 87.0977 155.791 86.9504L156.479 82.965Z" fill="#DF5753"/>
<path d="M153.424 88.7851C152.669 88.6655 151.953 88.3698 151.334 87.9221C150.715 87.4744 150.21 86.8873 149.86 86.2083C149.849 86.1819 149.848 86.1519 149.858 86.1249C149.868 86.0979 149.889 86.076 149.915 86.064C149.943 86.0545 149.973 86.0556 149.999 86.0671C150.026 86.0785 150.048 86.0994 150.06 86.1258C150.39 86.7675 150.867 87.3229 151.451 87.7477C152.035 88.1725 152.711 88.4548 153.424 88.572C153.453 88.5786 153.478 88.5957 153.494 88.6199C153.511 88.6441 153.518 88.6736 153.513 88.7026C153.508 88.7236 153.497 88.7426 153.481 88.7573C153.465 88.772 153.445 88.7816 153.424 88.7851Z" fill="#263238"/>
<path d="M150.425 78.6153C150.395 78.6164 150.365 78.6108 150.338 78.599C150.31 78.5871 150.286 78.5692 150.266 78.5466C150.245 78.5273 150.229 78.5039 150.217 78.4779C150.206 78.4519 150.2 78.4238 150.2 78.3955C150.2 78.3671 150.206 78.339 150.217 78.313C150.229 78.287 150.245 78.2636 150.266 78.2443C150.637 77.8826 151.089 77.6152 151.585 77.4645C152.08 77.3138 152.605 77.2843 153.115 77.3785C153.168 77.3945 153.214 77.4305 153.242 77.479C153.27 77.5276 153.279 77.585 153.266 77.6396C153.26 77.6673 153.248 77.6935 153.231 77.7165C153.214 77.7395 153.193 77.759 153.169 77.7737C153.144 77.7885 153.117 77.7982 153.089 77.8023C153.061 77.8064 153.032 77.8048 153.005 77.7976C152.565 77.7201 152.113 77.7488 151.687 77.8815C151.261 78.0143 150.873 78.247 150.555 78.5604C150.518 78.5918 150.473 78.611 150.425 78.6153Z" fill="#263238"/>
<path d="M161.859 79.7423C161.816 79.7438 161.774 79.7321 161.738 79.7087C161.703 79.6853 161.675 79.6515 161.659 79.6117C161.491 79.1993 161.228 78.8324 160.891 78.541C160.553 78.2496 160.152 78.042 159.719 77.9351C159.663 77.925 159.613 77.8936 159.58 77.8475C159.546 77.8013 159.532 77.7441 159.54 77.6878C159.55 77.6304 159.583 77.5793 159.631 77.5458C159.678 77.5123 159.737 77.4991 159.795 77.5091C160.299 77.6257 160.767 77.8622 161.16 78.1983C161.553 78.5345 161.859 78.9604 162.051 79.44C162.075 79.4929 162.076 79.5528 162.056 79.6068C162.035 79.6608 161.994 79.7046 161.941 79.7286L161.859 79.7423Z" fill="#263238"/>
<path d="M132.887 115.288C132.261 117.349 131.587 119.411 130.988 121.527C130.39 123.643 129.757 125.705 129.213 127.801C128.67 129.896 128.154 131.972 127.768 133.985C127.583 135.002 127.411 136.012 127.314 136.96C127.259 137.434 127.232 137.881 127.225 138.293C127.225 138.389 127.225 138.293 127.156 138.135C127.072 137.949 126.956 137.779 126.812 137.634C126.461 137.331 126.331 137.386 126.489 137.434C126.777 137.504 127.073 137.534 127.369 137.524C128.296 137.492 129.217 137.375 130.121 137.173C132.171 136.722 134.19 136.146 136.169 135.448C140.235 134.074 144.363 132.398 148.381 130.687L150.156 133.923C146.344 136.419 142.36 138.642 138.233 140.575C136.096 141.581 133.891 142.438 131.635 143.138C130.379 143.52 129.089 143.78 127.782 143.914C126.967 143.998 126.143 143.977 125.333 143.852C124.795 143.772 124.27 143.622 123.771 143.406C123.126 143.127 122.542 142.726 122.051 142.224C121.097 141.219 120.55 139.897 120.517 138.513C120.483 137.826 120.476 137.139 120.517 136.52C120.565 135.249 120.682 134.047 120.84 132.872C121.171 130.522 121.597 128.254 122.12 126C122.643 123.747 123.2 121.568 123.812 119.383C124.425 117.198 125.085 115.054 125.876 112.869L132.887 115.288Z" fill="#E58A7B"/>
<path d="M178.068 235.578C177.434 235.563 176.804 235.475 176.19 235.317C176.167 235.313 176.146 235.302 176.129 235.285C176.113 235.269 176.102 235.248 176.097 235.225C176.093 235.202 176.095 235.178 176.104 235.156C176.114 235.135 176.129 235.117 176.149 235.104C176.389 234.946 178.536 233.558 179.355 233.922C179.441 233.961 179.514 234.022 179.568 234.1C179.621 234.177 179.652 234.268 179.658 234.362C179.692 234.514 179.686 234.673 179.64 234.823C179.594 234.972 179.51 235.107 179.396 235.214C179.01 235.488 178.54 235.617 178.068 235.578ZM176.52 235.152C177.848 235.427 178.846 235.393 179.231 235.035C179.315 234.954 179.376 234.853 179.41 234.741C179.444 234.629 179.448 234.51 179.424 234.396C179.421 234.342 179.404 234.29 179.373 234.245C179.343 234.2 179.301 234.165 179.252 234.142C178.729 233.908 177.277 234.685 176.52 235.152Z" fill="#407BFF"/>
<path d="M176.218 235.324H176.156C176.136 235.313 176.121 235.297 176.11 235.277C176.099 235.258 176.093 235.236 176.094 235.214C176.094 235.132 176.094 233.098 176.865 232.424C176.955 232.338 177.064 232.274 177.184 232.237C177.303 232.2 177.43 232.191 177.553 232.211C177.677 232.21 177.798 232.252 177.894 232.33C177.991 232.407 178.058 232.516 178.083 232.637C178.228 233.379 177.03 234.898 176.28 235.324H176.218ZM177.429 232.424C177.278 232.425 177.132 232.484 177.023 232.589C176.479 233.07 176.369 234.431 176.335 234.974C177.023 234.479 177.945 233.228 177.828 232.672C177.828 232.582 177.759 232.466 177.512 232.431L177.429 232.424Z" fill="#407BFF"/>
<path d="M206.111 235.578C205.355 235.561 204.602 235.476 203.861 235.324C203.837 235.318 203.815 235.305 203.798 235.287C203.781 235.268 203.77 235.245 203.765 235.221C203.761 235.196 203.766 235.17 203.779 235.147C203.791 235.125 203.81 235.107 203.834 235.097C204.15 234.932 206.978 233.489 207.838 233.957C207.913 233.998 207.976 234.057 208.022 234.129C208.067 234.201 208.094 234.284 208.1 234.369C208.119 234.512 208.103 234.658 208.052 234.793C208.002 234.929 207.919 235.05 207.811 235.145C207.31 235.479 206.711 235.632 206.111 235.578ZM204.26 235.152C205.182 235.31 207.012 235.537 207.645 234.974C207.724 234.9 207.785 234.808 207.822 234.707C207.859 234.605 207.872 234.497 207.859 234.389C207.858 234.343 207.845 234.297 207.821 234.257C207.797 234.217 207.762 234.185 207.721 234.163C207.157 233.86 205.258 234.664 204.26 235.152Z" fill="#407BFF"/>
<path d="M203.889 235.324C203.867 235.331 203.843 235.331 203.82 235.324C203.803 235.311 203.79 235.294 203.78 235.275C203.771 235.256 203.766 235.235 203.765 235.214C203.765 235.131 203.937 233.228 204.818 232.465C204.941 232.36 205.085 232.282 205.24 232.234C205.395 232.187 205.558 232.172 205.719 232.191C206.159 232.232 206.283 232.452 206.318 232.623C206.441 233.414 204.776 234.925 203.937 235.303L203.889 235.324ZM205.588 232.424C205.362 232.423 205.144 232.507 204.976 232.658C204.329 233.194 204.102 234.479 204.033 234.994C204.935 234.492 206.166 233.201 206.097 232.672C206.097 232.617 206.097 232.465 205.719 232.431L205.588 232.424Z" fill="#407BFF"/>
<path d="M148.216 130.797L155 129.079L151.766 135.586C151.766 135.586 147.177 135.785 145.664 133.229L148.216 130.797Z" fill="#E58A7B"/>
<path d="M160.483 131.546L157.483 136.85L151.766 135.586L155 129.079L160.483 131.546Z" fill="#E58A7B"/>
<path d="M152.612 80.2441L154.051 80.0927C154.051 80.0927 153.163 81.0356 152.612 80.2441Z" fill="#263238"/>
<path d="M133.259 146.587L133.025 149.184C132.928 149.39 133.162 149.597 133.499 149.597H162.905C163.166 149.597 163.379 149.466 163.4 149.301L163.661 146.704C163.661 146.525 163.448 146.374 163.166 146.374H133.733C133.643 146.366 133.552 146.382 133.468 146.419C133.385 146.456 133.313 146.514 133.259 146.587Z" fill="#407BFF"/>
<path d="M137.215 149.878H136.424C136.265 149.878 136.148 149.796 136.155 149.7L136.527 146.319C136.527 146.223 136.678 146.14 136.836 146.14H137.601C137.759 146.14 137.876 146.223 137.869 146.319L137.497 149.7C137.504 149.796 137.366 149.878 137.215 149.878Z" fill="#263238"/>
<path d="M160.69 149.878H159.898C159.74 149.878 159.623 149.796 159.63 149.7L160.002 146.319C160.002 146.223 160.153 146.14 160.311 146.14H161.096C161.254 146.14 161.371 146.223 161.364 146.319L160.993 149.7C160.993 149.796 160.841 149.878 160.69 149.878Z" fill="#263238"/>
<path d="M148.953 149.878H148.161C148.003 149.878 147.886 149.796 147.893 149.7L148.264 146.319C148.264 146.223 148.416 146.14 148.574 146.14H149.359C149.517 146.14 149.634 146.223 149.627 146.319L149.255 149.7C149.242 149.796 149.111 149.878 148.953 149.878Z" fill="#263238"/>
<path d="M128.546 104.947C125.629 105.833 122.134 115.845 122.134 115.845L131.525 125.004C131.525 125.004 137.552 115.556 136.341 111.797C135.054 107.881 131.869 103.943 128.546 104.947Z" fill="#407BFF"/>
<path opacity="0.5" d="M128.546 104.947C125.629 105.833 122.134 115.845 122.134 115.845L131.525 125.004C131.525 125.004 137.552 115.556 136.341 111.797C135.054 107.881 131.869 103.943 128.546 104.947Z" fill="white"/>
<path d="M284.598 141.152H229.861V247.486H284.598V141.152Z" fill="#407BFF"/>
<path opacity="0.6" d="M284.598 141.152H229.861V247.486H284.598V141.152Z" fill="white"/>
<path d="M178.557 141.152H123.819V247.486H178.557V141.152Z" fill="#407BFF"/>
<path opacity="0.6" d="M178.557 141.152H123.819V247.486H178.557V141.152Z" fill="white"/>
<path d="M286.648 141.152H282.135V247.486H286.648V141.152Z" fill="#407BFF"/>
<path opacity="0.3" d="M286.648 141.152H282.135V247.486H286.648V141.152Z" fill="black"/>
<path d="M179.21 149.13H288.045V141.152H179.21V149.13Z" fill="#407BFF"/>
<path opacity="0.3" d="M179.21 149.13H288.045V141.152H179.21V149.13Z" fill="black"/>
<path d="M180.614 141.152H176.101V247.486H180.614V141.152Z" fill="#407BFF"/>
<path opacity="0.3" d="M180.614 141.152H176.101V247.486H180.614V141.152Z" fill="black"/>
<path d="M178.949 166.59H284.392V143.619H178.949V166.59Z" fill="#407BFF"/>
<path opacity="0.3" d="M178.949 166.59H284.392V143.619H178.949V166.59Z" fill="black"/>
<path d="M284.626 250.578H254.237C252.173 250.577 250.195 249.757 248.736 248.3C247.278 246.843 246.457 244.867 246.455 242.807V147.047C246.455 145.225 245.73 143.477 244.44 142.189C243.15 140.9 241.4 140.176 239.575 140.176H230.48V139.489H239.568C241.576 139.489 243.501 140.285 244.92 141.703C246.339 143.12 247.136 145.043 247.136 147.047V242.807C247.138 244.685 247.886 246.486 249.216 247.814C250.546 249.143 252.349 249.889 254.23 249.891H284.626C285.143 249.892 285.647 249.73 286.067 249.428C286.486 249.126 286.8 248.699 286.962 248.209C287.125 247.718 287.128 247.189 286.971 246.696C286.815 246.204 286.507 245.773 286.091 245.466L286.497 244.916C287.028 245.31 287.421 245.86 287.621 246.49C287.82 247.119 287.816 247.796 287.609 248.423C287.402 249.05 287.002 249.595 286.466 249.982C285.931 250.369 285.287 250.578 284.626 250.578Z" fill="#407BFF"/>
<path opacity="0.3" d="M284.626 250.578H254.237C252.173 250.577 250.195 249.757 248.736 248.3C247.278 246.843 246.457 244.867 246.455 242.807V147.047C246.455 145.225 245.73 143.477 244.44 142.189C243.15 140.9 241.4 140.176 239.575 140.176H230.48V139.489H239.568C241.576 139.489 243.501 140.285 244.92 141.703C246.339 143.12 247.136 145.043 247.136 147.047V242.807C247.138 244.685 247.886 246.486 249.216 247.814C250.546 249.143 252.349 249.889 254.23 249.891H284.626C285.143 249.892 285.647 249.73 286.067 249.428C286.486 249.126 286.8 248.699 286.962 248.209C287.125 247.718 287.128 247.189 286.971 246.696C286.815 246.204 286.507 245.773 286.091 245.466L286.497 244.916C287.028 245.31 287.421 245.86 287.621 246.49C287.82 247.119 287.816 247.796 287.609 248.423C287.402 249.05 287.002 249.595 286.466 249.982C285.931 250.369 285.287 250.578 284.626 250.578Z" fill="black"/>
<path d="M289.056 172.526H288.368V185.809H289.056V172.526Z" fill="#407BFF"/>
<path opacity="0.3" d="M289.056 172.526H288.368V185.809H289.056V172.526Z" fill="black"/>
<path d="M289.056 164.686H288.368V168.177H289.056V164.686Z" fill="#407BFF"/>
<path opacity="0.3" d="M289.056 164.686H288.368V168.177H289.056V164.686Z" fill="black"/>
<path d="M238.667 109.406H187.659L180.27 139.489H231.271L238.667 109.406Z" fill="#407BFF"/>
<path opacity="0.4" d="M238.667 109.406H187.659L180.27 139.489H231.271L238.667 109.406Z" fill="white"/>
<path d="M181.831 139.489L181.625 141.152H161.611L161.817 139.489H181.831Z" fill="#407BFF"/>
<path opacity="0.4" d="M181.831 139.489L181.625 141.152H161.611L161.817 139.489H181.831Z" fill="white"/>
<path d="M232.84 139.489L232.633 141.152H181.625L181.831 139.489H232.84Z" fill="#407BFF"/>
<path opacity="0.5" d="M232.84 139.489L232.633 141.152H181.625L181.831 139.489H232.84Z" fill="black"/>
<path d="M240.236 109.406H189.228L181.838 139.489H232.84L240.236 109.406Z" fill="#407BFF"/>
<path opacity="0.5" d="M240.236 109.406H189.228L181.838 139.489H232.84L240.236 109.406Z" fill="black"/>
<path d="M259.933 133.573C259.933 133.573 252.427 120.648 262.816 110.361C262.816 110.361 265.533 112.134 265.492 114.484C265.451 116.834 262.582 117.466 263.194 119.445C263.807 121.424 266.524 123.382 264.742 125.025C262.96 126.667 265.031 128.124 264.907 130.13C264.783 132.137 259.933 133.573 259.933 133.573Z" fill="#407BFF"/>
<path d="M260.504 134.754C260.504 134.754 263.545 120.125 250.418 113.646C250.418 113.646 248.396 116.181 249.187 118.456C249.978 120.73 252.888 120.366 252.929 122.448C252.971 124.53 251.017 127.223 253.225 128.22C255.434 129.216 253.913 131.257 254.677 133.126C255.441 134.995 260.504 134.754 260.504 134.754Z" fill="#407BFF"/>
<path opacity="0.5" d="M260.504 134.754C260.504 134.754 263.545 120.125 250.418 113.646C250.418 113.646 248.396 116.181 249.187 118.456C249.978 120.73 252.888 120.366 252.929 122.448C252.971 124.53 251.017 127.223 253.225 128.22C255.434 129.216 253.913 131.257 254.677 133.126C255.441 134.995 260.504 134.754 260.504 134.754Z" fill="black"/>
<path d="M249.001 131.511C249.001 131.511 249.256 141.131 258.826 141.131C268.396 141.131 268.643 131.511 268.643 131.511H249.001Z" fill="#407BFF"/>
<path opacity="0.5" d="M249.001 131.511C249.001 131.511 249.256 141.131 258.826 141.131C268.396 141.131 268.643 131.511 268.643 131.511H249.001Z" fill="black"/>
<path d="M197.559 68.4801L189.386 57.9325L181.212 68.4801H185.058V82.1335H193.713V68.4801H197.559Z" fill="#407BFF"/>
<path d="M221.536 80.8829C221.536 75.7802 223.566 70.8865 227.178 67.2783C230.791 63.6701 235.691 61.6431 240.8 61.6431V66.6523C238.93 66.6514 237.078 67.0185 235.351 67.7325C233.623 68.4466 232.053 69.4936 230.73 70.8139C229.408 72.1341 228.359 73.7017 227.643 75.427C226.927 77.1523 226.559 79.0016 226.559 80.8692L221.536 80.8829Z" fill="#407BFF"/>
<path d="M221.536 80.8829H226.559C226.559 84.6553 228.059 88.2732 230.73 90.9406C233.401 93.6081 237.023 95.1067 240.8 95.1067C243.299 95.1112 245.754 94.452 247.914 93.1964L250.432 97.5735C247.504 99.2622 244.182 100.151 240.8 100.151C237.418 100.151 234.096 99.262 231.168 97.5733C228.239 95.8845 225.807 93.4556 224.117 90.5307C222.426 87.6057 221.536 84.2878 221.536 80.9104V80.8829Z" fill="#407BFF"/>
<path opacity="0.5" d="M221.536 80.8829H226.559C226.559 84.6553 228.059 88.2732 230.73 90.9406C233.401 93.6081 237.023 95.1067 240.8 95.1067C243.299 95.1112 245.754 94.452 247.914 93.1964L250.432 97.5735C247.504 99.2622 244.182 100.151 240.8 100.151C237.418 100.151 234.096 99.262 231.168 97.5733C228.239 95.8845 225.807 93.4556 224.117 90.5307C222.426 87.6057 221.536 84.2878 221.536 80.9104V80.8829Z" fill="white"/>
<path d="M240.8 66.6524V61.6294C245.054 61.6132 249.194 63.0039 252.574 65.5845C255.953 68.1651 258.383 71.7905 259.483 75.8949C260.582 79.9994 260.291 84.352 258.654 88.2737C257.016 92.1953 254.125 95.4654 250.432 97.5736L247.921 93.224C250.656 91.6687 252.798 89.2517 254.012 86.3511C255.226 83.4506 255.442 80.2301 254.629 77.1933C253.815 74.1565 252.016 71.4748 249.514 69.5675C247.012 67.6603 243.947 66.6351 240.8 66.6524Z" fill="#407BFF"/>
<path opacity="0.7" d="M240.8 66.6524V61.6294C245.054 61.6132 249.194 63.0039 252.574 65.5845C255.953 68.1651 258.383 71.7905 259.483 75.8949C260.582 79.9994 260.291 84.352 258.654 88.2737C257.016 92.1953 254.125 95.4654 250.432 97.5736L247.921 93.224C250.656 91.6687 252.798 89.2517 254.012 86.3511C255.226 83.4506 255.442 80.2301 254.629 77.1933C253.815 74.1565 252.016 71.4748 249.514 69.5675C247.012 67.6603 243.947 66.6351 240.8 66.6524Z" fill="black"/>
<path d="M222.712 33.6698H205.162C204.536 33.6698 203.936 33.9181 203.493 34.3601C203.05 34.8021 202.802 35.4016 202.802 36.0267V68.439C202.807 69.0605 203.058 69.6547 203.5 70.0922C203.942 70.5298 204.539 70.7753 205.162 70.7752H227.625C228.249 70.7734 228.848 70.5243 229.289 70.0825C229.73 69.6407 229.978 69.0422 229.978 68.4184V40.9328L222.712 33.6698Z" fill="#263238"/>
<path d="M221.681 67.5526H207.088C206.814 67.5526 206.552 67.444 206.358 67.2507C206.165 67.0574 206.056 66.7952 206.056 66.5219C206.058 66.2497 206.168 65.9893 206.361 65.7975C206.554 65.6057 206.816 65.498 207.088 65.498H221.688C221.96 65.498 222.221 65.6057 222.415 65.7975C222.608 65.9893 222.718 66.2497 222.72 66.5219C222.718 66.7959 222.607 67.058 222.413 67.2511C222.218 67.4442 221.955 67.5526 221.681 67.5526Z" fill="#407BFF"/>
<path d="M214.801 38.9814H207.088C206.816 38.9814 206.554 38.8738 206.361 38.682C206.168 38.4902 206.058 38.2298 206.056 37.9576C206.056 37.6842 206.165 37.4221 206.358 37.2288C206.552 37.0355 206.814 36.9269 207.088 36.9269H214.808C215.081 36.9269 215.344 37.0355 215.537 37.2288C215.731 37.4221 215.84 37.6842 215.84 37.9576C215.839 38.0929 215.811 38.2268 215.758 38.3515C215.706 38.4762 215.629 38.5893 215.532 38.6844C215.436 38.7795 215.322 38.8546 215.196 38.9056C215.071 38.9566 214.936 38.9823 214.801 38.9814Z" fill="#407BFF"/>
<path d="M219.844 43.0628H207.088C206.816 43.0628 206.554 42.9552 206.361 42.7634C206.168 42.5716 206.058 42.3112 206.056 42.039C206.056 41.7656 206.165 41.5035 206.358 41.3102C206.552 41.1169 206.814 41.0083 207.088 41.0083H219.851C220.123 41.0101 220.384 41.1195 220.576 41.3126C220.768 41.5057 220.876 41.7668 220.876 42.039C220.876 42.174 220.849 42.3077 220.797 42.4324C220.745 42.5571 220.669 42.6702 220.573 42.7654C220.477 42.8606 220.363 42.9358 220.238 42.9869C220.113 43.0379 219.979 43.0637 219.844 43.0628Z" fill="#407BFF"/>
<path d="M225.705 47.1445H207.088C206.816 47.1445 206.554 47.0369 206.361 46.8451C206.168 46.6532 206.058 46.3928 206.056 46.1207C206.056 45.8473 206.165 45.5851 206.358 45.3919C206.552 45.1986 206.814 45.09 207.088 45.09H225.712C225.986 45.09 226.248 45.1986 226.442 45.3919C226.636 45.5851 226.744 45.8473 226.744 46.1207C226.743 46.256 226.716 46.3899 226.663 46.5146C226.61 46.6393 226.534 46.7524 226.437 46.8475C226.341 46.9426 226.226 47.0177 226.101 47.0687C225.975 47.1196 225.841 47.1454 225.705 47.1445Z" fill="#407BFF"/>
<path d="M225.705 51.2261H214.876C214.604 51.2261 214.342 51.1184 214.149 50.9266C213.956 50.7348 213.846 50.4744 213.844 50.2022C213.844 49.9289 213.953 49.6667 214.146 49.4734C214.34 49.2801 214.603 49.1715 214.876 49.1715H225.705C225.979 49.1715 226.242 49.2801 226.435 49.4734C226.629 49.6667 226.737 49.9289 226.737 50.2022C226.736 50.4744 226.626 50.7348 226.433 50.9266C226.239 51.1184 225.978 51.2261 225.705 51.2261Z" fill="#407BFF"/>
<path d="M209.909 51.2261H207.088C206.816 51.2261 206.554 51.1184 206.361 50.9266C206.168 50.7348 206.058 50.4744 206.056 50.2022C206.056 49.9289 206.165 49.6667 206.358 49.4734C206.552 49.2801 206.814 49.1715 207.088 49.1715H209.916C210.19 49.1715 210.452 49.2801 210.646 49.4734C210.839 49.6667 210.948 49.9289 210.948 50.2022C210.947 50.3376 210.919 50.4714 210.867 50.5961C210.814 50.7208 210.737 50.834 210.641 50.929C210.544 51.0241 210.43 51.0993 210.304 51.1502C210.179 51.2012 210.044 51.227 209.909 51.2261Z" fill="#407BFF"/>
<path d="M225.705 55.3077H207.088C206.814 55.3077 206.552 55.1991 206.358 55.0058C206.165 54.8125 206.056 54.5504 206.056 54.277C206.058 54.0048 206.168 53.7444 206.361 53.5526C206.554 53.3608 206.816 53.2532 207.088 53.2532H225.712C225.985 53.2532 226.246 53.3608 226.44 53.5526C226.633 53.7444 226.743 54.0048 226.744 54.277C226.744 54.4129 226.717 54.5475 226.665 54.673C226.613 54.7985 226.536 54.9125 226.44 55.0083C226.343 55.1041 226.228 55.1799 226.102 55.2312C225.976 55.2826 225.842 55.3086 225.705 55.3077Z" fill="#407BFF"/>
<path d="M218.516 59.3894H207.088C206.814 59.3894 206.552 59.2808 206.358 59.0875C206.165 58.8942 206.056 58.632 206.056 58.3587C206.058 58.0865 206.168 57.8261 206.361 57.6343C206.554 57.4425 206.816 57.3348 207.088 57.3348H218.523C218.795 57.3348 219.057 57.4425 219.25 57.6343C219.443 57.8261 219.553 58.0865 219.555 58.3587C219.555 58.4946 219.528 58.6292 219.476 58.7547C219.423 58.8802 219.347 58.9941 219.25 59.0899C219.153 59.1857 219.039 59.2615 218.913 59.3129C218.787 59.3643 218.652 59.3903 218.516 59.3894Z" fill="#407BFF"/>
<path d="M225.705 59.3894H222.651C222.378 59.3876 222.117 59.2782 221.925 59.0851C221.733 58.892 221.625 58.6308 221.625 58.3587C221.625 58.0871 221.733 57.8267 221.926 57.6347C222.118 57.4427 222.379 57.3348 222.651 57.3348H225.705C225.978 57.3348 226.239 57.4425 226.433 57.6343C226.626 57.8261 226.736 58.0865 226.737 58.3587C226.737 58.632 226.629 58.8942 226.435 59.0875C226.242 59.2808 225.979 59.3894 225.705 59.3894Z" fill="#407BFF"/>
<path d="M225.705 63.4709H207.088C206.814 63.4709 206.552 63.3623 206.358 63.169C206.165 62.9757 206.056 62.7136 206.056 62.4402C206.058 62.168 206.168 61.9076 206.361 61.7158C206.554 61.524 206.816 61.4164 207.088 61.4164H225.712C225.985 61.4164 226.246 61.524 226.44 61.7158C226.633 61.9076 226.743 62.168 226.744 62.4402C226.744 62.5761 226.717 62.7107 226.665 62.8362C226.613 62.9617 226.536 63.0757 226.44 63.1715C226.343 63.2673 226.228 63.343 226.102 63.3944C225.976 63.4458 225.842 63.4718 225.705 63.4709Z" fill="#407BFF"/>
<g opacity="0.5">
<path opacity="0.5" d="M221.681 67.5526H207.088C206.814 67.5526 206.552 67.444 206.358 67.2507C206.165 67.0574 206.056 66.7952 206.056 66.5219C206.058 66.2497 206.168 65.9893 206.361 65.7975C206.554 65.6057 206.816 65.498 207.088 65.498H221.688C221.96 65.498 222.221 65.6057 222.415 65.7975C222.608 65.9893 222.718 66.2497 222.72 66.5219C222.718 66.7959 222.607 67.058 222.413 67.2511C222.218 67.4442 221.955 67.5526 221.681 67.5526Z" fill="white"/>
</g>
<g opacity="0.5">
<path opacity="0.5" d="M214.801 38.9814H207.088C206.816 38.9814 206.554 38.8738 206.361 38.682C206.168 38.4902 206.058 38.2298 206.056 37.9576C206.056 37.6842 206.165 37.4221 206.358 37.2288C206.552 37.0355 206.814 36.9269 207.088 36.9269H214.808C215.081 36.9269 215.344 37.0355 215.537 37.2288C215.731 37.4221 215.84 37.6842 215.84 37.9576C215.839 38.0929 215.811 38.2268 215.758 38.3515C215.706 38.4762 215.629 38.5893 215.532 38.6844C215.436 38.7795 215.322 38.8546 215.196 38.9056C215.071 38.9566 214.936 38.9823 214.801 38.9814Z" fill="white"/>
</g>
<g opacity="0.5">
<path opacity="0.5" d="M219.844 43.0628H207.088C206.816 43.0628 206.554 42.9552 206.361 42.7634C206.168 42.5716 206.058 42.3112 206.056 42.039C206.056 41.7656 206.165 41.5035 206.358 41.3102C206.552 41.1169 206.814 41.0083 207.088 41.0083H219.851C220.123 41.0101 220.384 41.1195 220.576 41.3126C220.768 41.5057 220.876 41.7668 220.876 42.039C220.876 42.174 220.849 42.3077 220.797 42.4324C220.745 42.5571 220.669 42.6702 220.573 42.7654C220.477 42.8606 220.363 42.9358 220.238 42.9869C220.113 43.0379 219.979 43.0637 219.844 43.0628Z" fill="white"/>
</g>
<g opacity="0.5">
<path opacity="0.5" d="M225.705 47.1445H207.088C206.816 47.1445 206.554 47.0369 206.361 46.8451C206.168 46.6532 206.058 46.3928 206.056 46.1207C206.056 45.8473 206.165 45.5851 206.358 45.3919C206.552 45.1986 206.814 45.09 207.088 45.09H225.712C225.986 45.09 226.248 45.1986 226.442 45.3919C226.636 45.5851 226.744 45.8473 226.744 46.1207C226.743 46.256 226.716 46.3899 226.663 46.5146C226.61 46.6393 226.534 46.7524 226.437 46.8475C226.341 46.9426 226.226 47.0177 226.101 47.0687C225.975 47.1196 225.841 47.1454 225.705 47.1445Z" fill="white"/>
</g>
<g opacity="0.5">
<path opacity="0.5" d="M225.705 51.2261H214.876C214.604 51.2261 214.342 51.1184 214.149 50.9266C213.956 50.7348 213.846 50.4744 213.844 50.2022C213.844 49.9289 213.953 49.6667 214.146 49.4734C214.34 49.2801 214.603 49.1715 214.876 49.1715H225.705C225.979 49.1715 226.242 49.2801 226.435 49.4734C226.629 49.6667 226.737 49.9289 226.737 50.2022C226.736 50.4744 226.626 50.7348 226.433 50.9266C226.239 51.1184 225.978 51.2261 225.705 51.2261Z" fill="white"/>
</g>
<g opacity="0.5">
<path opacity="0.5" d="M209.909 51.2261H207.088C206.816 51.2261 206.554 51.1184 206.361 50.9266C206.168 50.7348 206.058 50.4744 206.056 50.2022C206.056 49.9289 206.165 49.6667 206.358 49.4734C206.552 49.2801 206.814 49.1715 207.088 49.1715H209.916C210.19 49.1715 210.452 49.2801 210.646 49.4734C210.839 49.6667 210.948 49.9289 210.948 50.2022C210.947 50.3376 210.919 50.4714 210.867 50.5961C210.814 50.7208 210.737 50.834 210.641 50.929C210.544 51.0241 210.43 51.0993 210.304 51.1502C210.179 51.2012 210.044 51.227 209.909 51.2261Z" fill="white"/>
</g>
<g opacity="0.5">
<path opacity="0.5" d="M225.705 55.3077H207.088C206.814 55.3077 206.552 55.1991 206.358 55.0058C206.165 54.8125 206.056 54.5504 206.056 54.277C206.058 54.0048 206.168 53.7444 206.361 53.5526C206.554 53.3608 206.816 53.2532 207.088 53.2532H225.712C225.985 53.2532 226.246 53.3608 226.44 53.5526C226.633 53.7444 226.743 54.0048 226.744 54.277C226.744 54.4129 226.717 54.5475 226.665 54.673C226.613 54.7985 226.536 54.9125 226.44 55.0083C226.343 55.1041 226.228 55.1799 226.102 55.2312C225.976 55.2826 225.842 55.3086 225.705 55.3077Z" fill="white"/>
</g>
<g opacity="0.5">
<path opacity="0.5" d="M218.516 59.3894H207.088C206.814 59.3894 206.552 59.2808 206.358 59.0875C206.165 58.8942 206.056 58.632 206.056 58.3587C206.058 58.0865 206.168 57.8261 206.361 57.6343C206.554 57.4425 206.816 57.3348 207.088 57.3348H218.523C218.795 57.3348 219.057 57.4425 219.25 57.6343C219.443 57.8261 219.553 58.0865 219.555 58.3587C219.555 58.4946 219.528 58.6292 219.476 58.7547C219.423 58.8802 219.347 58.9941 219.25 59.0899C219.153 59.1857 219.039 59.2615 218.913 59.3129C218.787 59.3643 218.652 59.3903 218.516 59.3894Z" fill="white"/>
</g>
<g opacity="0.5">
<path opacity="0.5" d="M225.705 59.3894H222.651C222.378 59.3876 222.117 59.2782 221.925 59.0851C221.733 58.892 221.625 58.6308 221.625 58.3587C221.625 58.0871 221.733 57.8267 221.926 57.6347C222.118 57.4427 222.379 57.3348 222.651 57.3348H225.705C225.978 57.3348 226.239 57.4425 226.433 57.6343C226.626 57.8261 226.736 58.0865 226.737 58.3587C226.737 58.632 226.629 58.8942 226.435 59.0875C226.242 59.2808 225.979 59.3894 225.705 59.3894Z" fill="white"/>
</g>
<g opacity="0.5">
<path opacity="0.5" d="M225.705 63.4709H207.088C206.814 63.4709 206.552 63.3623 206.358 63.169C206.165 62.9757 206.056 62.7136 206.056 62.4402C206.058 62.168 206.168 61.9076 206.361 61.7158C206.554 61.524 206.816 61.4164 207.088 61.4164H225.712C225.985 61.4164 226.246 61.524 226.44 61.7158C226.633 61.9076 226.743 62.168 226.744 62.4402C226.744 62.5761 226.717 62.7107 226.665 62.8362C226.613 62.9617 226.536 63.0757 226.44 63.1715C226.343 63.2673 226.228 63.343 226.102 63.3944C225.976 63.4458 225.842 63.4718 225.705 63.4709Z" fill="white"/>
</g>
<path d="M222.712 33.6698V38.576C222.712 38.8857 222.772 39.1926 222.89 39.479C223.008 39.7653 223.182 40.0255 223.402 40.2446C223.621 40.4636 223.881 40.6372 224.168 40.7553C224.455 40.8734 224.762 40.9338 225.072 40.9328H229.978L222.712 33.6698Z" fill="#407BFF"/>
<path opacity="0.5" d="M222.712 33.6698V38.576C222.712 38.8857 222.772 39.1926 222.89 39.479C223.008 39.7653 223.182 40.0255 223.402 40.2446C223.621 40.4636 223.881 40.6372 224.168 40.7553C224.455 40.8734 224.762 40.9338 225.072 40.9328H229.978L222.712 33.6698Z" fill="white"/>
</svg>
