<svg width="67" height="22" viewBox="0 0 67 22" fill="none" xmlns="http://www.w3.org/2000/svg">
<path d="M1.14773 18V6.36364H3.25568V16.233H8.38068V18H1.14773ZM13.983 18.1705C13.108 18.1705 12.3523 17.9886 11.7159 17.625C11.0833 17.2576 10.5966 16.7386 10.2557 16.0682C9.91477 15.3939 9.74432 14.6004 9.74432 13.6875C9.74432 12.7898 9.91477 12.0019 10.2557 11.3239C10.6004 10.642 11.0814 10.1117 11.6989 9.73295C12.3163 9.35038 13.0417 9.15909 13.875 9.15909C14.4129 9.15909 14.9205 9.24621 15.3977 9.42045C15.8788 9.59091 16.303 9.85606 16.6705 10.2159C17.0417 10.5758 17.3333 11.0341 17.5455 11.5909C17.7576 12.1439 17.8636 12.803 17.8636 13.5682V14.1989H10.7102V12.8125H15.892C15.8883 12.4186 15.803 12.0682 15.6364 11.7614C15.4697 11.4508 15.2367 11.2064 14.9375 11.0284C14.642 10.8504 14.2973 10.7614 13.9034 10.7614C13.483 10.7614 13.1136 10.8636 12.7955 11.0682C12.4773 11.2689 12.2292 11.5341 12.0511 11.8636C11.8769 12.1894 11.7879 12.5473 11.7841 12.9375V14.1477C11.7841 14.6553 11.8769 15.0909 12.0625 15.4545C12.2481 15.8144 12.5076 16.0909 12.8409 16.2841C13.1742 16.4735 13.5644 16.5682 14.0114 16.5682C14.3106 16.5682 14.5814 16.5265 14.8239 16.4432C15.0663 16.3561 15.2765 16.2292 15.4545 16.0625C15.6326 15.8958 15.767 15.6894 15.858 15.4432L17.7784 15.6591C17.6572 16.1667 17.4261 16.6098 17.0852 16.9886C16.7481 17.3636 16.3163 17.6553 15.7898 17.8636C15.2633 18.0682 14.661 18.1705 13.983 18.1705ZM27.1491 9.27273L24.0412 18H21.7685L18.6605 9.27273H20.8537L22.8594 15.7557H22.9503L24.9616 9.27273H27.1491ZM32.1392 18.1705C31.2642 18.1705 30.5085 17.9886 29.8722 17.625C29.2396 17.2576 28.7528 16.7386 28.4119 16.0682C28.071 15.3939 27.9006 14.6004 27.9006 13.6875C27.9006 12.7898 28.071 12.0019 28.4119 11.3239C28.7566 10.642 29.2377 10.1117 29.8551 9.73295C30.4725 9.35038 31.1979 9.15909 32.0312 9.15909C32.5691 9.15909 33.0767 9.24621 33.554 9.42045C34.035 9.59091 34.4593 9.85606 34.8267 10.2159C35.1979 10.5758 35.4896 11.0341 35.7017 11.5909C35.9138 12.1439 36.0199 12.803 36.0199 13.5682V14.1989H28.8665V12.8125H34.0483C34.0445 12.4186 33.9593 12.0682 33.7926 11.7614C33.6259 11.4508 33.393 11.2064 33.0938 11.0284C32.7983 10.8504 32.4536 10.7614 32.0597 10.7614C31.6392 10.7614 31.2699 10.8636 30.9517 11.0682C30.6335 11.2689 30.3854 11.5341 30.2074 11.8636C30.0331 12.1894 29.9441 12.5473 29.9403 12.9375V14.1477C29.9403 14.6553 30.0331 15.0909 30.2188 15.4545C30.4044 15.8144 30.6638 16.0909 30.9972 16.2841C31.3305 16.4735 31.7206 16.5682 32.1676 16.5682C32.4669 16.5682 32.7377 16.5265 32.9801 16.4432C33.2225 16.3561 33.4328 16.2292 33.6108 16.0625C33.7888 15.8958 33.9233 15.6894 34.0142 15.4432L35.9347 15.6591C35.8134 16.1667 35.5824 16.6098 35.2415 16.9886C34.9044 17.3636 34.4725 17.6553 33.946 17.8636C33.4195 18.0682 32.8172 18.1705 32.1392 18.1705ZM39.8168 6.36364V18H37.7599V6.36364H39.8168Z" fill="white"/>
<path d="M56.6989 18V6.36364H61.2898C62.1723 6.36364 62.9242 6.5322 63.5455 6.86932C64.1667 7.20265 64.6402 7.66667 64.9659 8.26136C65.2955 8.85227 65.4602 9.53409 65.4602 10.3068C65.4602 11.0795 65.2936 11.7614 64.9602 12.3523C64.6269 12.9432 64.1439 13.4034 63.5114 13.733C62.8826 14.0625 62.1212 14.2273 61.2273 14.2273H58.3011V12.2557H60.8295C61.303 12.2557 61.6932 12.1742 62 12.0114C62.3106 11.8447 62.5417 11.6155 62.6932 11.3239C62.8485 11.0284 62.9261 10.6894 62.9261 10.3068C62.9261 9.92045 62.8485 9.58333 62.6932 9.29545C62.5417 9.00379 62.3106 8.77841 62 8.61932C61.6894 8.45644 61.2955 8.375 60.8182 8.375H59.1591V18H56.6989Z" fill="#FF8819"/>
<path d="M52.1989 3.36364H54.6591V10.9205C54.6591 11.7689 54.4564 12.5114 54.0511 13.1477C53.6496 13.7841 53.0871 14.2803 52.3636 14.6364C51.6402 14.9886 50.7973 15.1648 49.8352 15.1648C48.8693 15.1648 48.0246 14.9886 47.3011 14.6364C46.5777 14.2803 46.0152 13.7841 45.6136 13.1477C45.2121 12.5114 45.0114 11.7689 45.0114 10.9205V3.36364H47.4716V10.7102C47.4716 11.1534 47.5682 11.5473 47.7614 11.892C47.9583 12.2367 48.2348 12.5076 48.5909 12.7045C48.947 12.9015 49.3617 13 49.8352 13C50.3125 13 50.7273 12.9015 51.0795 12.7045C51.4356 12.5076 51.7102 12.2367 51.9034 11.892C52.1004 11.5473 52.1989 11.1534 52.1989 10.7102V3.36364Z" fill="#FF8819"/>
<line x1="46.25" y1="18.75" x2="53.75" y2="18.75" stroke="#FF8819" stroke-width="2.5" stroke-linecap="square"/>
</svg>
