<svg width="32" height="32" viewBox="0 0 32 32" fill="none" xmlns="http://www.w3.org/2000/svg">
<path d="M27.6 21.9875C26.8625 20.7125 25.975 18.2875 25.975 14V13.1125C25.975 7.575 21.5375 3.0375 16.075 3H16C14.6884 3.00164 13.39 3.2616 12.1789 3.76503C10.9678 4.26847 9.86769 5.00552 8.94143 5.93411C8.01516 6.86269 7.28087 7.96463 6.78047 9.177C6.28006 10.3894 6.02336 11.6884 6.025 13V14C6.025 18.2875 5.1375 20.7125 4.4 21.9875C4.22164 22.2913 4.1267 22.6369 4.1248 22.9892C4.1229 23.3415 4.2141 23.6881 4.38917 23.9938C4.56424 24.2996 4.81697 24.5536 5.12179 24.7303C5.4266 24.907 5.77268 25 6.125 25H11C11 26.3261 11.5268 27.5979 12.4645 28.5355C13.4021 29.4732 14.6739 30 16 30C17.3261 30 18.5978 29.4732 19.5355 28.5355C20.4732 27.5979 21 26.3261 21 25H25.875C26.2272 25.0022 26.5738 24.9108 26.8791 24.7351C27.1844 24.5594 27.4375 24.3057 27.6125 24C27.786 23.6926 27.8762 23.3451 27.874 22.9921C27.8718 22.6391 27.7773 22.2928 27.6 21.9875ZM16 28C15.2054 27.9967 14.4442 27.6796 13.8823 27.1177C13.3204 26.5558 13.0033 25.7946 13 25H19C18.9967 25.7946 18.6796 26.5558 18.1177 27.1177C17.5558 27.6796 16.7946 27.9967 16 28Z" fill="black"/>
</svg>
