<svg width="16" height="16" viewBox="0 0 16 16" fill="none" xmlns="http://www.w3.org/2000/svg">
<path d="M13 3.50002H11.2688L10.4187 2.22502C10.3735 2.15531 10.3114 2.09814 10.2382 2.05881C10.165 2.01948 10.0831 1.99926 10 2.00002H6C5.91691 1.99926 5.83496 2.01948 5.76177 2.05881C5.68857 2.09814 5.62648 2.15531 5.58125 2.22502L4.73125 3.50002H3C2.60268 3.50167 2.22211 3.66023 1.94116 3.94118C1.66021 4.22213 1.50165 4.6027 1.5 5.00002V12C1.50165 12.3973 1.66021 12.7779 1.94116 13.0589C2.22211 13.3398 2.60268 13.4984 3 13.5H13C13.3973 13.4984 13.7779 13.3398 14.0588 13.0589C14.3398 12.7779 14.4984 12.3973 14.5 12V5.00002C14.4984 4.6027 14.3398 4.22213 14.0588 3.94118C13.7779 3.66023 13.3973 3.50167 13 3.50002ZM10.25 8.25002C10.25 8.69503 10.118 9.13004 9.87081 9.50005C9.62357 9.87006 9.27217 10.1585 8.86104 10.3287C8.4499 10.499 7.9975 10.5436 7.56105 10.4568C7.12459 10.37 6.72368 10.1557 6.40901 9.84101C6.09434 9.52634 5.88005 9.12543 5.79323 8.68897C5.70642 8.25252 5.75097 7.80012 5.92127 7.38898C6.09157 6.97785 6.37996 6.62645 6.74997 6.37921C7.11998 6.13198 7.55499 6.00002 8 6.00002C8.59674 6.00002 9.16903 6.23707 9.59099 6.65903C10.0129 7.08099 10.25 7.65328 10.25 8.25002Z" fill="white"/>
</svg>
