<svg width="32" height="32" viewBox="0 0 32 32" fill="none" xmlns="http://www.w3.org/2000/svg">
<path d="M26.9252 11.6125C26.8487 11.4305 26.72 11.2752 26.5554 11.1662C26.3908 11.0572 26.1976 10.9994 26.0002 11H6.0002C5.80277 10.9994 5.60958 11.0572 5.44497 11.1662C5.28036 11.2752 5.1517 11.4305 5.0752 11.6125C5.00315 11.7972 4.98487 11.9985 5.02248 12.1932C5.06008 12.3879 5.15204 12.5679 5.2877 12.7125L15.2877 22.7125C15.4788 22.8973 15.7343 23.0006 16.0002 23.0006C16.2661 23.0006 16.5216 22.8973 16.7127 22.7125L26.7127 12.7125C26.8484 12.5679 26.9403 12.3879 26.9779 12.1932C27.0155 11.9985 26.9972 11.7972 26.9252 11.6125Z" fill="#335EF7"/>
</svg>
