<svg width="40" height="40" viewBox="0 0 40 40" fill="none" xmlns="http://www.w3.org/2000/svg">
<path d="M33.75 6.25H6.25C5.58696 6.25 4.95107 6.51339 4.48223 6.98223C4.01339 7.45107 3.75 8.08696 3.75 8.75V31.25C3.75 31.913 4.01339 32.5489 4.48223 33.0178C4.95107 33.4866 5.58696 33.75 6.25 33.75H8.34375C8.58044 33.7507 8.81234 33.6833 9.0118 33.5558C9.21126 33.4284 9.36988 33.2463 9.46875 33.0312C10.0804 31.7513 11.0417 30.6705 12.2418 29.9139C13.4418 29.1574 14.8314 28.7559 16.25 28.7559C17.6686 28.7559 19.0582 29.1574 20.2582 29.9139C21.4583 30.6705 22.4196 31.7513 23.0312 33.0312C23.1301 33.2463 23.2887 33.4284 23.4882 33.5558C23.6877 33.6833 23.9196 33.7507 24.1562 33.75H33.75C34.413 33.75 35.0489 33.4866 35.5178 33.0178C35.9866 32.5489 36.25 31.913 36.25 31.25V8.75C36.25 8.08696 35.9866 7.45107 35.5178 6.98223C35.0489 6.51339 34.413 6.25 33.75 6.25ZM16.25 26.25C15.2611 26.25 14.2944 25.9568 13.4721 25.4073C12.6499 24.8579 12.009 24.077 11.6306 23.1634C11.2522 22.2498 11.1531 21.2445 11.3461 20.2745C11.539 19.3046 12.0152 18.4137 12.7145 17.7145C13.4137 17.0152 14.3046 16.539 15.2745 16.3461C16.2445 16.1531 17.2498 16.2522 18.1634 16.6306C19.077 17.009 19.8579 17.6499 20.4073 18.4721C20.9568 19.2944 21.25 20.2611 21.25 21.25C21.2459 22.5748 20.7178 23.8442 19.781 24.781C18.8442 25.7178 17.5748 26.2459 16.25 26.25ZM33.75 31.25H24.9062C24.3647 30.3107 23.6733 29.4663 22.8594 28.75H30C30.3315 28.75 30.6495 28.6183 30.8839 28.3839C31.1183 28.1495 31.25 27.8315 31.25 27.5V12.5C31.25 12.1685 31.1183 11.8505 30.8839 11.6161C30.6495 11.3817 30.3315 11.25 30 11.25H10C9.66848 11.25 9.35054 11.3817 9.11612 11.6161C8.8817 11.8505 8.75 12.1685 8.75 12.5V27.5C8.75159 27.7759 8.8444 28.0435 9.01398 28.2611C9.18356 28.4787 9.42037 28.6342 9.6875 28.7031C8.85389 29.4308 8.14642 30.2914 7.59375 31.25H6.25V8.75H33.75V31.25Z" fill="white"/>
</svg>
