<svg width="32" height="32" viewBox="0 0 32 32" fill="none" xmlns="http://www.w3.org/2000/svg">
<path d="M4 4L28 28" stroke="black" stroke-width="1.5" stroke-linecap="round" stroke-linejoin="round"/>
<path d="M14.1126 14.1161C13.6122 14.6161 13.331 15.2944 13.3307 16.0018C13.3305 16.7092 13.6112 17.3877 14.1113 17.8881C14.6113 18.3884 15.2896 18.6697 15.997 18.6699C16.7044 18.6702 17.3829 18.3894 17.8833 17.8894" stroke="black" stroke-width="1.5" stroke-linecap="round" stroke-linejoin="round"/>
<path d="M12.484 7.15333C13.6272 6.8263 14.8109 6.66245 16 6.66667C21.3333 6.66667 25.7773 9.77733 29.3333 16C28.296 17.8147 27.184 19.3653 25.996 20.6507M23.1427 23.132C20.968 24.5987 18.5893 25.3333 16 25.3333C10.6667 25.3333 6.22266 22.2227 2.66666 16C4.49199 12.8067 6.55066 10.4333 8.84266 8.87867" stroke="black" stroke-width="1.5" stroke-linecap="round" stroke-linejoin="round"/>
</svg>
