<svg width="26" height="26" viewBox="0 0 26 26" fill="none" xmlns="http://www.w3.org/2000/svg">
<path d="M13 0C10.4288 0 7.91543 0.762437 5.77759 2.1909C3.63975 3.61935 1.97351 5.64968 0.989572 8.02512C0.0056327 10.4006 -0.251811 13.0144 0.249797 15.5362C0.751405 18.0579 1.98953 20.3743 3.80762 22.1924C5.6257 24.0105 7.94208 25.2486 10.4638 25.7502C12.9856 26.2518 15.5995 25.9944 17.9749 25.0104C20.3503 24.0265 22.3807 22.3603 23.8091 20.2224C25.2376 18.0846 26 15.5712 26 13C25.9934 9.55422 24.6216 6.25145 22.1851 3.81491C19.7486 1.37837 16.4458 0.00660747 13 0ZM17.175 13.7375L12.175 18.2375C11.9894 18.4042 11.7495 18.4976 11.5 18.5C11.3611 18.5007 11.2237 18.4722 11.0966 18.4162C10.9695 18.3602 10.8557 18.278 10.7625 18.175C10.5835 17.9794 10.4896 17.7207 10.5013 17.4558C10.513 17.1909 10.6295 16.9416 10.825 16.7625L15 13L10.825 9.2375C10.636 9.05683 10.5253 8.80933 10.5165 8.548C10.5078 8.28668 10.6018 8.03234 10.7783 7.83946C10.9548 7.64658 11.1999 7.53052 11.461 7.51613C11.722 7.50175 11.9784 7.59019 12.175 7.7625L17.175 12.2625C17.2773 12.3562 17.359 12.4701 17.4149 12.5971C17.4708 12.7241 17.4997 12.8613 17.4997 13C17.4997 13.1387 17.4708 13.2759 17.4149 13.4029C17.359 13.5299 17.2773 13.6438 17.175 13.7375Z" fill="black"/>
</svg>
