<svg width="32" height="32" viewBox="0 0 32 32" fill="none" xmlns="http://www.w3.org/2000/svg">
<path d="M22.5 26.2C23.1926 25.897 23.8612 25.5418 24.5 25.1375V30C24.5 30.2652 24.3946 30.5196 24.2071 30.7071C24.0196 30.8946 23.7652 31 23.5 31C23.2348 31 22.9804 30.8946 22.7929 30.7071C22.6054 30.5196 22.5 30.2652 22.5 30V26.2ZM15.1125 11.525C14.9914 11.7613 14.9667 12.0354 15.0436 12.2895C15.1206 12.5437 15.2931 12.7581 15.525 12.8875L21.375 16L23.5 14.8625L16.475 11.1125C16.2387 10.9914 15.9646 10.9667 15.7105 11.0436C15.4563 11.1206 15.2419 11.2931 15.1125 11.525ZM31.475 11.1125L16.475 3.1125C16.3275 3.03879 16.1649 3.00041 16 3.00041C15.8351 3.00041 15.6725 3.03879 15.525 3.1125L0.525 11.1125C0.365985 11.1998 0.23335 11.3283 0.140965 11.4844C0.0485805 11.6405 -0.000160217 11.8186 -0.000160217 12C-0.000160217 12.1814 0.0485805 12.3595 0.140965 12.5156C0.23335 12.6717 0.365985 12.8002 0.525 12.8875L3.5 14.4625V20.6875C3.49812 21.1167 3.63881 21.5344 3.9 21.875C4.8875 23.2 8.6875 27.5 16 27.5C18.2343 27.5186 20.448 27.0716 22.5 26.1875V16.6L21.375 16L16 18.8625L4.975 12.9875L3.125 12L16 5.1375L28.875 12L27.025 12.9875L23.5 14.8625L23.975 15.1125C24.1441 15.2101 24.2826 15.353 24.375 15.525C24.4581 15.6694 24.5013 15.8334 24.5 16V25.1375C25.8813 24.2685 27.0997 23.1643 28.1 21.875C28.3612 21.5344 28.5019 21.1167 28.5 20.6875V14.4625L31.475 12.8875C31.634 12.8002 31.7667 12.6717 31.859 12.5156C31.9514 12.3595 32.0002 12.1814 32.0002 12C32.0002 11.8186 31.9514 11.6405 31.859 11.4844C31.7667 11.3283 31.634 11.1998 31.475 11.1125Z" fill="black"/>
</svg>
