<svg width="32" height="32" viewBox="0 0 32 32" fill="none" xmlns="http://www.w3.org/2000/svg">
<path d="M26.975 14.775C26.9379 14.6138 26.8613 14.4643 26.7523 14.34C26.6432 14.2157 26.505 14.1203 26.35 14.0625L19.15 11.3625L20.975 2.2C21.017 1.98776 20.9899 1.76766 20.8976 1.57195C20.8054 1.37625 20.6529 1.21523 20.4625 1.1125C20.2702 1.01022 20.0495 0.97437 19.8347 1.01054C19.62 1.04671 19.4232 1.15287 19.275 1.3125L5.275 16.3125C5.16029 16.4315 5.07728 16.5774 5.0336 16.7369C4.98992 16.8963 4.98697 17.0641 5.025 17.225C5.06413 17.3853 5.14139 17.5338 5.2502 17.6578C5.35901 17.7819 5.49617 17.8778 5.65 17.9375L12.85 20.6375L11.025 29.8C10.983 30.0122 11.0101 30.2323 11.1024 30.428C11.1946 30.6238 11.3471 30.7848 11.5375 30.8875C11.681 30.9599 11.8393 30.9984 12 31C12.1358 31.0006 12.2703 30.9731 12.3951 30.9194C12.5198 30.8656 12.6321 30.7867 12.725 30.6875L26.725 15.6875C26.8397 15.5685 26.9227 15.4226 26.9664 15.2631C27.0101 15.1037 27.013 14.9359 26.975 14.775Z" fill="black"/>
</svg>
