<svg width="389" height="389" viewBox="0 0 389 389" fill="none" xmlns="http://www.w3.org/2000/svg">
<circle cx="194.5" cy="194.5" r="194.5" fill="#335EF7"/>
<path d="M34.7386 224V165.818H45.2784V215.165H70.9034V224H34.7386ZM98.9148 224.852C94.5398 224.852 90.7614 223.943 87.5795 222.125C84.4167 220.288 81.983 217.693 80.2784 214.341C78.5739 210.97 77.7216 207.002 77.7216 202.438C77.7216 197.949 78.5739 194.009 80.2784 190.619C82.0019 187.21 84.4072 184.559 87.4943 182.665C90.5814 180.752 94.2083 179.795 98.375 179.795C101.064 179.795 103.602 180.231 105.989 181.102C108.394 181.955 110.515 183.28 112.352 185.08C114.208 186.879 115.667 189.17 116.727 191.955C117.788 194.72 118.318 198.015 118.318 201.841V204.994H82.5511V198.062H108.46C108.441 196.093 108.015 194.341 107.182 192.807C106.348 191.254 105.184 190.032 103.688 189.142C102.21 188.252 100.487 187.807 98.517 187.807C96.4148 187.807 94.5682 188.318 92.9773 189.341C91.3864 190.345 90.1458 191.67 89.2557 193.318C88.3845 194.947 87.9394 196.737 87.9205 198.688V204.739C87.9205 207.277 88.3845 209.455 89.3125 211.273C90.2405 213.072 91.5379 214.455 93.2045 215.42C94.8712 216.367 96.822 216.841 99.0568 216.841C100.553 216.841 101.907 216.633 103.119 216.216C104.331 215.78 105.383 215.146 106.273 214.312C107.163 213.479 107.835 212.447 108.29 211.216L117.892 212.295C117.286 214.833 116.131 217.049 114.426 218.943C112.741 220.818 110.581 222.277 107.949 223.318C105.316 224.341 102.305 224.852 98.9148 224.852ZM164.746 180.364L149.206 224H137.842L122.303 180.364H133.268L143.297 212.778H143.751L153.808 180.364H164.746ZM189.696 224.852C185.321 224.852 181.543 223.943 178.361 222.125C175.198 220.288 172.764 217.693 171.06 214.341C169.355 210.97 168.503 207.002 168.503 202.438C168.503 197.949 169.355 194.009 171.06 190.619C172.783 187.21 175.188 184.559 178.276 182.665C181.363 180.752 184.99 179.795 189.156 179.795C191.846 179.795 194.384 180.231 196.77 181.102C199.175 181.955 201.296 183.28 203.134 185.08C204.99 186.879 206.448 189.17 207.509 191.955C208.569 194.72 209.099 198.015 209.099 201.841V204.994H173.332V198.062H199.241C199.223 196.093 198.796 194.341 197.963 192.807C197.13 191.254 195.965 190.032 194.469 189.142C192.991 188.252 191.268 187.807 189.298 187.807C187.196 187.807 185.349 188.318 183.759 189.341C182.168 190.345 180.927 191.67 180.037 193.318C179.166 194.947 178.721 196.737 178.702 198.688V204.739C178.702 207.277 179.166 209.455 180.094 211.273C181.022 213.072 182.319 214.455 183.986 215.42C185.652 216.367 187.603 216.841 189.838 216.841C191.334 216.841 192.688 216.633 193.901 216.216C195.113 215.78 196.164 215.146 197.054 214.312C197.944 213.479 198.616 212.447 199.071 211.216L208.673 212.295C208.067 214.833 206.912 217.049 205.207 218.943C203.522 220.818 201.363 222.277 198.73 223.318C196.098 224.341 193.086 224.852 189.696 224.852ZM228.084 165.818V224H217.8V165.818H228.084Z" fill="white"/>
<path d="M312.494 224V165.818H335.449C339.862 165.818 343.621 166.661 346.727 168.347C349.833 170.013 352.201 172.333 353.83 175.307C355.477 178.261 356.301 181.67 356.301 185.534C356.301 189.398 355.468 192.807 353.801 195.761C352.134 198.716 349.72 201.017 346.557 202.665C343.413 204.312 339.606 205.136 335.136 205.136H320.506V195.278H333.148C335.515 195.278 337.466 194.871 339 194.057C340.553 193.223 341.708 192.078 342.466 190.619C343.242 189.142 343.631 187.447 343.631 185.534C343.631 183.602 343.242 181.917 342.466 180.477C341.708 179.019 340.553 177.892 339 177.097C337.447 176.282 335.477 175.875 333.091 175.875H324.795V224H312.494Z" fill="#FF8819"/>
<path d="M289.994 151.818H302.295V189.602C302.295 193.845 301.282 197.557 299.256 200.739C297.248 203.92 294.436 206.402 290.818 208.182C287.201 209.943 282.987 210.824 278.176 210.824C273.347 210.824 269.123 209.943 265.506 208.182C261.888 206.402 259.076 203.92 257.068 200.739C255.061 197.557 254.057 193.845 254.057 189.602V151.818H266.358V188.551C266.358 190.767 266.841 192.737 267.807 194.46C268.792 196.184 270.174 197.538 271.955 198.523C273.735 199.508 275.809 200 278.176 200C280.563 200 282.636 199.508 284.398 198.523C286.178 197.538 287.551 196.184 288.517 194.46C289.502 192.737 289.994 190.767 289.994 188.551V151.818Z" fill="#FF8819"/>
<line x1="257.5" y1="224.5" x2="300.5" y2="224.5" stroke="#FF8819" stroke-width="9" stroke-linecap="square"/>
</svg>
